<svg xmlns="http://www.w3.org/2000/svg" width="22" height="22" viewBox="0 0 22 22" fill="none">
  <g clip-path="url(#clip0_298_23525)">
    <path d="M10.9055 21.811C16.9284 21.811 21.811 16.9284 21.811 10.9055C21.811 4.88256 16.9284 0 10.9055 0C4.88256 0 0 4.88256 0 10.9055C0 16.9284 4.88256 21.811 10.9055 21.811Z" fill="#D80027"/>
    <path d="M5.96779 6.63672L6.90924 9.53349H9.95511L7.49286 11.3269L8.43431 14.2237L5.96779 12.4345L3.50127 14.2237L4.44699 11.3269L1.98047 9.53349H5.02634L5.96779 6.63672Z" fill="#FFDA44"/>
    <path d="M12.9292 16.8905L12.2092 16.0045L11.1442 16.4177L11.7619 15.4592L11.042 14.5689L12.1453 14.8628L12.7673 13.9043L12.8269 15.046L13.9345 15.3399L12.8653 15.7489L12.9292 16.8905Z" fill="#FFDA44"/>
    <path d="M14.3597 14.292L14.7005 13.2015L13.7676 12.5412L14.9092 12.5241L15.2458 11.4336L15.6164 12.5156L16.7581 12.5028L15.8422 13.1844L16.2085 14.2665L15.2756 13.6062L14.3597 14.292Z" fill="#FFDA44"/>
    <path d="M16.29 8.00435L15.7873 9.031L16.6052 9.82761L15.4763 9.66574L14.9736 10.6881L14.7777 9.5635L13.6445 9.40162L14.6584 8.86912L14.4624 7.74023L15.2804 8.53685L16.29 8.00435Z" fill="#FFDA44"/>
    <path d="M12.9581 4.89453L12.8729 6.03194L13.9336 6.4622L12.8218 6.73483L12.7408 7.8765L12.1402 6.90523L11.0283 7.17787L11.7653 6.30458L11.1604 5.33757L12.2211 5.76782L12.9581 4.89453Z" fill="#FFDA44"/>
  </g>
  <defs>
    <clipPath id="clip0_298_23525">
      <rect width="21.811" height="21.811" fill="white"/>
    </clipPath>
  </defs>
</svg>
