<svg xmlns="http://www.w3.org/2000/svg" width="21" height="21" viewBox="0 0 21 21" fill="none">
  <g clip-path="url(#clip0_298_31820)">
    <path d="M10.0996 20.1993C15.6775 20.1993 20.1993 15.6775 20.1993 10.0996C20.1993 4.52176 15.6775 0 10.0996 0C4.52176 0 0 4.52176 0 10.0996C0 15.6775 4.52176 20.1993 10.0996 20.1993Z" fill="#D80027"/>
    <path d="M11.1424 7.6407C10.9129 8.59539 10.5051 8.41332 10.3049 9.24591C9.12601 8.96245 8.39994 7.77693 8.6834 6.59791C8.96674 5.41898 10.1524 4.69291 11.3314 4.97637C10.931 6.64151 11.3478 6.78685 11.1424 7.6407Z" fill="#F0F0F0"/>
    <path d="M8.083 8.34767C8.92004 8.86093 8.62084 9.1926 9.35078 9.64026C8.71687 10.6739 7.36506 10.998 6.33134 10.3642C5.29767 9.73029 4.97349 8.3784 5.6074 7.34473C7.06735 8.23996 7.33424 7.88857 8.083 8.34767Z" fill="#F0F0F0"/>
    <path d="M7.81055 11.4762C8.55741 10.8388 8.78027 11.2258 9.43158 10.6699C10.2188 11.5922 10.1093 12.978 9.1871 13.7653C8.2648 14.5526 6.87894 14.4429 6.0918 13.5207C7.39425 12.4089 7.14251 12.0464 7.81055 11.4762Z" fill="#F0F0F0"/>
    <path d="M10.7016 12.7025C10.326 11.7952 10.763 11.7027 10.4355 10.9116C11.5559 10.4479 12.8402 10.9803 13.3039 12.1007C13.7676 13.221 13.2351 14.5052 12.1147 14.969C11.46 13.3866 11.0375 13.514 10.7016 12.7025Z" fill="#F0F0F0"/>
    <path d="M12.7601 10.3319C11.7812 10.4087 11.8281 9.96447 10.9746 10.0315C10.8798 8.8227 11.783 7.76575 12.9918 7.67087C14.2006 7.57623 15.2576 8.47936 15.3523 9.68823C13.645 9.82209 13.6355 10.2633 12.7601 10.3319Z" fill="#F0F0F0"/>
  </g>
  <defs>
    <clipPath id="clip0_298_31820">
      <rect width="20.1993" height="20.1993" fill="white"/>
    </clipPath>
  </defs>
</svg>
