<svg xmlns="http://www.w3.org/2000/svg" width="22" height="22" viewBox="0 0 22 22" fill="none">
  <g clip-path="url(#clip0_298_23501)">
    <path d="M10.9055 21.811C16.9284 21.811 21.811 16.9284 21.811 10.9055C21.811 4.88256 16.9284 0 10.9055 0C4.88256 0 0 4.88256 0 10.9055C0 16.9284 4.88256 21.811 10.9055 21.811Z" fill="#F0F0F0"/>
    <path d="M10.9054 0C6.58181 0 2.846 2.51614 1.08203 6.16399H20.7287C18.9648 2.51614 15.229 0 10.9054 0Z" fill="#FF9811"/>
    <path d="M10.9054 21.811C15.229 21.811 18.9648 19.2948 20.7288 15.647H1.08203C2.846 19.2948 6.58181 21.811 10.9054 21.811Z" fill="#6DA544"/>
    <path d="M10.9055 14.6987C13.0004 14.6987 14.6987 13.0004 14.6987 10.9055C14.6987 8.81058 13.0004 7.1123 10.9055 7.1123C8.81058 7.1123 7.1123 8.81058 7.1123 10.9055C7.1123 13.0004 8.81058 14.6987 10.9055 14.6987Z" fill="#0052B4"/>
    <path d="M10.9049 13.2762C12.2143 13.2762 13.2757 12.2148 13.2757 10.9054C13.2757 9.59609 12.2143 8.53467 10.9049 8.53467C9.5956 8.53467 8.53418 9.59609 8.53418 10.9054C8.53418 12.2148 9.5956 13.2762 10.9049 13.2762Z" fill="#F0F0F0"/>
    <path d="M10.9056 7.97998L11.637 9.63872L13.4391 9.44272L12.3683 10.9055L13.4391 12.3682L11.637 12.1722L10.9056 13.8309L10.1742 12.1722L8.37207 12.3682L9.44285 10.9055L8.37207 9.44272L10.1742 9.63872L10.9056 7.97998Z" fill="#0052B4"/>
  </g>
  <defs>
    <clipPath id="clip0_298_23501">
      <rect width="21.811" height="21.811" fill="white"/>
    </clipPath>
  </defs>
</svg>
