<svg xmlns="http://www.w3.org/2000/svg" width="22" height="22" viewBox="0 0 22 22" fill="none">
  <g clip-path="url(#clip0_298_23550)">
    <path d="M10.9055 21.811C16.9284 21.811 21.811 16.9284 21.811 10.9055C21.811 4.88256 16.9284 0 10.9055 0C4.88256 0 0 4.88256 0 10.9055C0 16.9284 4.88256 21.811 10.9055 21.811Z" fill="#F0F0F0"/>
    <path d="M21.8115 10.9054C21.8115 6.58181 19.2953 2.846 15.6475 1.08203V20.7287C19.2953 18.9648 21.8115 15.229 21.8115 10.9054Z" fill="#D80027"/>
    <path d="M0 10.9054C0 15.229 2.51614 18.9648 6.16399 20.7288V1.08203C2.51614 2.846 0 6.58181 0 10.9054Z" fill="#D80027"/>
    <path d="M12.8021 12.3279L14.6987 11.3796L13.7504 10.9055V9.95718L11.8538 10.9055L12.8021 9.00887H11.8538L10.9055 7.58643L9.95719 9.00887H9.00888L9.95719 10.9055L8.06057 9.95718V10.9055L7.1123 11.3796L9.00888 12.3279L8.53475 13.2762H10.4314V14.6987H11.3796V13.2762H13.2763L12.8021 12.3279Z" fill="#D80027"/>
  </g>
  <defs>
    <clipPath id="clip0_298_23550">
      <rect width="21.811" height="21.811" fill="white"/>
    </clipPath>
  </defs>
</svg>
