<svg xmlns="http://www.w3.org/2000/svg" width="21" height="21" viewBox="0 0 21 21" fill="none">
  <g clip-path="url(#clip0_298_31833)">
    <path d="M10.0996 20.1993C15.6775 20.1993 20.1993 15.6775 20.1993 10.0996C20.1993 4.52176 15.6775 0 10.0996 0C4.52176 0 0 4.52176 0 10.0996C0 15.6775 4.52176 20.1993 10.0996 20.1993Z" fill="#6DA544"/>
    <path d="M10.1 3.95215L18.4432 10.0997L10.1 16.2473L1.75684 10.0997L10.1 3.95215Z" fill="#FFDA44"/>
    <path d="M10.0998 13.6127C12.0399 13.6127 13.6127 12.0399 13.6127 10.0998C13.6127 8.15969 12.0399 6.58691 10.0998 6.58691C8.15969 6.58691 6.58691 8.15969 6.58691 10.0998C6.58691 12.0399 8.15969 13.6127 10.0998 13.6127Z" fill="#F0F0F0"/>
    <path d="M8.34321 9.87988C7.73234 9.87988 7.14282 9.97279 6.58789 10.1452C6.61247 12.0641 8.17491 13.6124 10.0997 13.6124C11.2899 13.6124 12.341 13.0199 12.9765 12.1145C11.8893 10.7535 10.2165 9.87988 8.34321 9.87988Z" fill="#0052B4"/>
    <path d="M13.547 10.7729C13.5893 10.5549 13.6122 10.3301 13.6122 10.0998C13.6122 8.15966 12.0394 6.58691 10.0993 6.58691C8.65163 6.58691 7.4089 7.46278 6.87109 8.71332C7.34649 8.61481 7.83869 8.56293 8.34284 8.56293C10.3832 8.56289 12.2289 9.41102 13.547 10.7729Z" fill="#0052B4"/>
  </g>
  <defs>
    <clipPath id="clip0_298_31833">
      <rect width="20.1993" height="20.1993" fill="white"/>
    </clipPath>
  </defs>
</svg>
