<svg xmlns="http://www.w3.org/2000/svg" width="22" height="22" viewBox="0 0 22 22" fill="none">
  <g clip-path="url(#clip0_298_23513)">
    <path d="M10.9055 21.811C16.9284 21.811 21.811 16.9284 21.811 10.9055C21.811 4.88256 16.9284 0 10.9055 0C4.88256 0 0 4.88256 0 10.9055C0 16.9284 4.88256 21.811 10.9055 21.811Z" fill="#F0F0F0"/>
    <path d="M2.25466 4.26562C1.39803 5.38016 0.752088 6.66475 0.375977 8.06027H6.0493L2.25466 4.26562Z" fill="#0052B4"/>
    <path d="M21.4359 8.06023C21.0598 6.66475 20.4138 5.38016 19.5573 4.26562L15.7627 8.06023H21.4359Z" fill="#0052B4"/>
    <path d="M0.375977 13.7505C0.752131 15.146 1.39807 16.4306 2.25466 17.545L6.04918 13.7505H0.375977Z" fill="#0052B4"/>
    <path d="M17.5456 2.25422C16.431 1.39758 15.1465 0.751643 13.751 0.375488V6.04877L17.5456 2.25422Z" fill="#0052B4"/>
    <path d="M4.2666 19.5562C5.38113 20.4129 6.66573 21.0588 8.0612 21.435V15.7617L4.2666 19.5562Z" fill="#0052B4"/>
    <path d="M8.06116 0.375488C6.66568 0.751643 5.38109 1.39758 4.2666 2.25417L8.06116 6.04873V0.375488Z" fill="#0052B4"/>
    <path d="M13.751 21.435C15.1465 21.0588 16.431 20.4129 17.5455 19.5563L13.751 15.7617V21.435Z" fill="#0052B4"/>
    <path d="M15.7627 13.75L19.5573 17.5446C20.4138 16.4301 21.0598 15.1455 21.4359 13.75H15.7627Z" fill="#0052B4"/>
    <path d="M21.7187 9.48305H12.328H12.328V0.0923133C11.8623 0.0316941 11.3876 0 10.9055 0C10.4233 0 9.94866 0.0316941 9.48305 0.0923133V9.48297V9.48301H0.0923133C0.0316941 9.94867 0 10.4234 0 10.9055C0 11.3877 0.0316941 11.8623 0.0923133 12.3279H9.48297H9.48301V21.7187C9.94867 21.7793 10.4233 21.811 10.9055 21.811C11.3876 21.811 11.8623 21.7793 12.3279 21.7187V12.328V12.328H21.7187C21.7793 11.8623 21.811 11.3877 21.811 10.9055C21.811 10.4234 21.7793 9.94866 21.7187 9.48305Z" fill="#D80027"/>
    <path d="M13.75 13.7505L18.6164 18.6169C18.8402 18.3932 19.0537 18.1593 19.2574 17.9168L15.0911 13.7505H13.75V13.7505Z" fill="#D80027"/>
    <path d="M8.06078 13.7505H8.0607L3.19434 18.6169C3.41807 18.8407 3.65198 19.0542 3.89446 19.2579L8.06078 15.0915V13.7505Z" fill="#D80027"/>
    <path d="M8.06018 8.06087V8.06079L3.19377 3.19434C2.96995 3.41807 2.75645 3.65198 2.55273 3.89446L6.7191 8.06083H8.06018V8.06087Z" fill="#D80027"/>
    <path d="M13.75 8.06071L18.6164 3.19422C18.3927 2.9704 18.1588 2.75689 17.9163 2.55322L13.75 6.71959V8.06071Z" fill="#D80027"/>
  </g>
  <defs>
    <clipPath id="clip0_298_23513">
      <rect width="21.811" height="21.811" fill="white"/>
    </clipPath>
  </defs>
</svg>
