<svg xmlns="http://www.w3.org/2000/svg" width="22" height="22" viewBox="0 0 22 22" fill="none">
  <g clip-path="url(#clip0_298_23482)">
    <path d="M10.9055 21.811C16.9284 21.811 21.811 16.9284 21.811 10.9055C21.811 4.88256 16.9284 0 10.9055 0C4.88256 0 0 4.88256 0 10.9055C0 16.9284 4.88256 21.811 10.9055 21.811Z" fill="#F0F0F0"/>
    <path d="M10.9057 0V10.9055L3.19434 18.6169C5.16785 20.5903 7.89422 21.811 10.9057 21.811C16.9286 21.811 21.8112 16.9284 21.8112 10.9055C21.8112 4.88259 10.9057 0 10.9057 0Z" fill="#D80027"/>
    <path d="M10.9057 0C7.89422 0 5.16785 1.22065 3.19434 3.19412C5.87002 5.8698 6.81986 6.81968 10.9057 10.9055H21.8112C21.8112 4.88259 16.9286 0 10.9057 0Z" fill="#0052B4"/>
    <path d="M7.46726 10.9059L6.13542 10.2794L6.84466 8.98953L5.39841 9.26621L5.21514 7.80518L4.20775 8.87971L3.2004 7.80518L3.01709 9.26621L1.57088 8.98949L2.28012 10.2794L0.948242 10.9059L2.28012 11.5323L1.57088 12.8222L3.01722 12.5456L3.20035 14.0066L4.20775 12.932L5.21514 14.0066L5.39841 12.5456L6.84458 12.8223L6.13538 11.5324L7.46726 10.9059Z" fill="#FFDA44"/>
    <path d="M2.90862 4.26758L3.35182 4.8871L4.07793 4.65711L3.62561 5.27003L4.06882 5.88956L3.34607 5.64883L2.89379 6.26171L2.89946 5.50003L2.17676 5.25925L2.903 5.02926L2.90862 4.26758Z" fill="#FFDA44"/>
    <path d="M2.90862 15.5498L3.35182 16.1693L4.07793 15.9393L3.62561 16.5523L4.06882 17.1718L3.34607 16.9311L2.89379 17.5439L2.89946 16.7823L2.17676 16.5415L2.903 16.3115L2.90862 15.5498Z" fill="#FFDA44"/>
    <path d="M9.22986 9.90869L8.7867 10.5282L8.06055 10.2981L8.51287 10.9111L8.06966 11.5307L8.79241 11.2899L9.24473 11.9028L9.23902 11.1411L9.96172 10.9004L9.23553 10.6704L9.22986 9.90869Z" fill="#FFDA44"/>
  </g>
  <defs>
    <clipPath id="clip0_298_23482">
      <rect width="21.811" height="21.811" fill="white"/>
    </clipPath>
  </defs>
</svg>
