<svg xmlns="http://www.w3.org/2000/svg" width="22" height="22" viewBox="0 0 22 22" fill="none">
  <g clip-path="url(#clip0_298_23532)">
    <path d="M10.9055 21.811C16.9284 21.811 21.811 16.9284 21.811 10.9055C21.811 4.88256 16.9284 0 10.9055 0C4.88256 0 0 4.88256 0 10.9055C0 16.9284 4.88256 21.811 10.9055 21.811Z" fill="#6DA544"/>
    <path d="M10.9054 4.26758L19.9142 10.9057L10.9054 17.5438L1.89648 10.9057L10.9054 4.26758Z" fill="#FFDA44"/>
    <path d="M10.9055 14.6987C13.0004 14.6987 14.6987 13.0004 14.6987 10.9055C14.6987 8.81058 13.0004 7.1123 10.9055 7.1123C8.81058 7.1123 7.1123 8.81058 7.1123 10.9055C7.1123 13.0004 8.81058 14.6987 10.9055 14.6987Z" fill="#F0F0F0"/>
    <path d="M9.00866 10.6685C8.34905 10.6685 7.71249 10.7688 7.11328 10.9549C7.13982 13.027 8.82693 14.6988 10.9053 14.6988C12.1904 14.6988 13.3255 14.059 14.0116 13.0813C12.8377 11.6118 11.0314 10.6685 9.00866 10.6685Z" fill="#0052B4"/>
    <path d="M14.6285 11.6322C14.6742 11.3969 14.6989 11.1542 14.6989 10.9055C14.6989 8.81054 13.0006 7.1123 10.9057 7.1123C9.34253 7.1123 8.00064 8.05806 7.41992 9.40838C7.93325 9.30201 8.46472 9.24599 9.0091 9.24599C11.2122 9.24595 13.2053 10.1618 14.6285 11.6322Z" fill="#0052B4"/>
  </g>
  <defs>
    <clipPath id="clip0_298_23532">
      <rect width="21.811" height="21.811" fill="white"/>
    </clipPath>
  </defs>
</svg>
