<svg xmlns="http://www.w3.org/2000/svg" width="21" height="21" viewBox="0 0 21 21" fill="none">
  <g clip-path="url(#clip0_298_31777)">
    <path d="M10.0996 20.1993C15.6775 20.1993 20.1993 15.6775 20.1993 10.0996C20.1993 4.52176 15.6775 0 10.0996 0C4.52176 0 0 4.52176 0 10.0996C0 15.6775 4.52176 20.1993 10.0996 20.1993Z" fill="#F0F0F0"/>
    <path d="M9.66016 10.0995H20.1989C20.1989 9.18794 20.0774 8.30493 19.851 7.46484H9.66016V10.0995Z" fill="#D80027"/>
    <path d="M9.66016 4.83001H18.7165C18.0983 3.82116 17.3079 2.92943 16.3862 2.19531H9.66016V4.83001Z" fill="#D80027"/>
    <path d="M10.0994 20.1995C12.4763 20.1995 14.661 19.3779 16.3863 18.0039H3.8125C5.53776 19.3779 7.72248 20.1995 10.0994 20.1995Z" fill="#D80027"/>
    <path d="M1.48209 15.3691H18.7166C19.213 14.5592 19.5979 13.6739 19.8511 12.7344H0.347656C0.600818 13.6739 0.985748 14.5592 1.48209 15.3691Z" fill="#D80027"/>
    <path d="M10.0996 10.0996C10.0996 4.52179 10.0996 3.86421 10.0996 0C4.52179 0 0 4.52179 0 10.0996H10.0996Z" fill="#0052B4"/>
    <path d="M6.71601 8.64543C5.3367 8.64543 4.21856 7.52725 4.21856 6.14798C4.21856 4.76871 5.33674 3.65053 6.71601 3.65053C7.14607 3.65053 7.55073 3.7593 7.90402 3.95072C7.3498 3.40877 6.59186 3.07422 5.75544 3.07422C4.05787 3.07422 2.68164 4.45041 2.68164 6.14802C2.68164 7.84562 4.05787 9.22182 5.75544 9.22182C6.59186 9.22182 7.3498 8.88727 7.90402 8.34532C7.55073 8.53666 7.14611 8.64543 6.71601 8.64543Z" fill="#FFDA44"/>
    <path d="M7.41984 4.3916L7.86324 5.3188L8.86456 5.08745L8.41616 6.01216L9.22144 6.65076L8.21882 6.87678L8.22162 7.90454L7.41984 7.26155L6.61803 7.90454L6.62079 6.87678L5.61816 6.65076L6.42345 6.01216L5.975 5.08745L6.97641 5.3188L7.41984 4.3916Z" fill="#FFDA44"/>
  </g>
  <defs>
    <clipPath id="clip0_298_31777">
      <rect width="20.1993" height="20.1993" fill="white"/>
    </clipPath>
  </defs>
</svg>
