<svg xmlns="http://www.w3.org/2000/svg" width="21" height="21" viewBox="0 0 21 21" fill="none">
  <g clip-path="url(#clip0_298_31845)">
    <path d="M10.0996 20.1993C15.6775 20.1993 20.1993 15.6775 20.1993 10.0996C20.1993 4.52176 15.6775 0 10.0996 0C4.52176 0 0 4.52176 0 10.0996C0 15.6775 4.52176 20.1993 10.0996 20.1993Z" fill="#F0F0F0"/>
    <path d="M20.1397 11.1976C20.1397 11.1976 20.1397 11.1975 20.1397 11.1973L9.06387 0.0527344C8.56421 0.103667 8.07529 0.191013 7.59985 0.31209C3.23101 1.42443 0 10.0999 0 10.0999C0 10.0999 14.1394 19.5618 15.7525 18.4701C16.0752 18.2517 16.3847 18.0151 16.6793 17.7618L10.1152 11.1976H20.1397Z" fill="#0052B4"/>
    <path d="M17.5646 10.0997L7.7422 0.277344C3.30163 1.33926 0 5.33359 0 10.0997C0 15.6775 4.5218 20.1993 10.0996 20.1993C12.2154 20.1993 14.1788 19.5483 15.8015 18.4362L7.46493 10.0997H17.5646Z" fill="#D80027"/>
    <path d="M9.60569 14.9126L8.37223 14.3324L9.02907 13.1379L7.68968 13.3941L7.51996 12.041L6.58704 13.0362L5.65413 12.041L5.48437 13.3941L4.14502 13.1379L4.80186 14.3324L3.56836 14.9126L4.80186 15.4928L4.14502 16.6874L5.48445 16.4312L5.65409 17.7842L6.58704 16.789L7.51996 17.7842L7.68968 16.4312L9.02903 16.6874L8.37219 15.4928L9.60569 14.9126Z" fill="#F0F0F0"/>
    <path d="M8.78277 5.60127L7.88564 5.17933L8.36336 4.31049L7.38918 4.49686L7.26574 3.5127L6.58721 4.23652L5.90868 3.5127L5.78519 4.49686L4.81101 4.31049L5.28877 5.17933L4.3916 5.60127L6.58721 6.04044L8.78277 5.60127Z" fill="#F0F0F0"/>
    <path d="M9.22155 5.60156C9.22155 7.05666 8.04195 8.23626 6.58685 8.23626C5.13175 8.23626 3.95215 7.05666 3.95215 5.60156" fill="#F0F0F0"/>
  </g>
  <defs>
    <clipPath id="clip0_298_31845">
      <rect width="20.1993" height="20.1993" fill="white"/>
    </clipPath>
  </defs>
</svg>
