<svg xmlns="http://www.w3.org/2000/svg" width="22" height="22" viewBox="0 0 22 22" fill="none">
  <g clip-path="url(#clip0_298_23556)">
    <path d="M21.811 10.9055C21.811 16.9284 16.9284 21.811 10.9055 21.811C4.88259 21.811 0 16.9284 0 10.9055C0 10.9081 10.9055 0.00123539 10.9055 0C16.9284 0 21.811 4.88259 21.811 10.9055Z" fill="#0052B4"/>
    <path d="M10.876 10.9056H10.9052C10.9052 10.8958 10.9052 10.8863 10.9052 10.8765C10.8954 10.8862 10.8857 10.8959 10.876 10.9056Z" fill="#F0F0F0"/>
    <path d="M10.9055 5.68981C10.9055 3.77092 10.9055 2.5135 10.9055 0H10.9037C4.88157 0.000979791 0 4.88311 0 10.9055H5.68981V7.70145L8.89381 10.9055H10.8764C10.8861 10.8957 10.8958 10.886 10.9055 10.8763C10.9055 10.1416 10.9055 9.48599 10.9055 8.89386L7.70149 5.68981H10.9055Z" fill="#F0F0F0"/>
    <path d="M5.51769 1.42236C3.81205 2.39359 2.39408 3.81156 1.42285 5.51721V10.9054H4.26778V4.26733V4.26729H10.9059C10.9059 3.37002 10.9059 2.51521 10.9059 1.42236H5.51769Z" fill="#D80027"/>
    <path d="M10.9061 9.56448L7.03151 5.68996H5.69043C5.69043 5.68992 5.69043 5.68996 5.69043 5.68996L10.906 10.9056H10.9061C10.9061 10.9056 10.9061 9.98093 10.9061 9.56448Z" fill="#D80027"/>
    <path d="M6.57722 12.8022L7.17574 14.0537L8.5273 13.7414L7.92205 14.9896L9.00893 15.8515L7.65567 16.1565L7.65946 17.5438L6.57722 16.6759L5.49502 17.5438L5.49881 16.1565L4.14551 15.8515L5.23244 14.9896L4.6271 13.7414L5.97874 14.0537L6.57722 12.8022Z" fill="#F0F0F0"/>
    <path d="M16.3281 15.1729L16.6274 15.7986L17.3032 15.6424L17.0005 16.2665L17.544 16.6975L16.8674 16.85L16.8692 17.5436L16.3281 17.1096L15.787 17.5436L15.7889 16.85L15.1123 16.6975L15.6557 16.2665L15.3531 15.6424L16.0289 15.7986L16.3281 15.1729Z" fill="#F0F0F0"/>
    <path d="M13.544 8.53516L13.8432 9.16094L14.519 9.00469L14.2164 9.62882L14.7598 10.0598L14.0832 10.2123L14.0851 10.9059L13.544 10.4719L13.0029 10.9059L13.0047 10.2123L12.3281 10.0598L12.8716 9.62882L12.5689 9.00469L13.2447 9.16094L13.544 8.53516Z" fill="#F0F0F0"/>
    <path d="M16.3281 4.7417L16.6274 5.36749L17.3032 5.21127L17.0006 5.8354L17.544 6.26634L16.8674 6.41889L16.8692 7.11249L16.3281 6.67853L15.787 7.11249L15.7889 6.41889L15.1123 6.26634L15.6557 5.8354L15.3531 5.21127L16.0289 5.36749L16.3281 4.7417Z" fill="#F0F0F0"/>
    <path d="M18.7598 7.58643L19.059 8.21221L19.7348 8.05596L19.4322 8.68008L19.9757 9.11106L19.299 9.26361L19.3009 9.95718L18.7598 9.52326L18.2187 9.95718L18.2206 9.26361L17.5439 9.11106L18.0874 8.68008L17.7848 8.05596L18.4605 8.21221L18.7598 7.58643Z" fill="#F0F0F0"/>
    <path d="M17.0206 10.9058L17.2559 11.6302H18.0177L17.4014 12.078L17.6369 12.8024L17.0206 12.3547L16.4043 12.8024L16.6397 12.078L16.0234 11.6302H16.7852L17.0206 10.9058Z" fill="#F0F0F0"/>
  </g>
  <defs>
    <clipPath id="clip0_298_23556">
      <rect width="21.811" height="21.811" fill="white"/>
    </clipPath>
  </defs>
</svg>
