<svg xmlns="http://www.w3.org/2000/svg" width="22" height="22" viewBox="0 0 22 22" fill="none">
  <g clip-path="url(#clip0_298_23519)">
    <path d="M10.9055 21.811C16.9284 21.811 21.811 16.9284 21.811 10.9055C21.811 4.88256 16.9284 0 10.9055 0C4.88256 0 0 4.88256 0 10.9055C0 16.9284 4.88256 21.811 10.9055 21.811Z" fill="#D80027"/>
    <path d="M12.032 8.25027C11.7842 9.28114 11.3438 9.08454 11.1277 9.98357C9.8547 9.67749 9.07069 8.39737 9.37677 7.12428C9.68272 5.85128 10.963 5.06728 12.236 5.37335C11.8038 7.17135 12.2537 7.32829 12.032 8.25027Z" fill="#F0F0F0"/>
    <path d="M8.72827 9.01412C9.63211 9.56834 9.30903 9.92647 10.0972 10.4099C9.41272 11.526 7.95305 11.876 6.83685 11.1915C5.7207 10.5071 5.37066 9.0473 6.05515 7.93115C7.63159 8.89782 7.91977 8.51839 8.72827 9.01412Z" fill="#F0F0F0"/>
    <path d="M8.43402 12.3921C9.24047 11.7038 9.48112 12.1217 10.1844 11.5215C11.0345 12.5173 10.9162 14.0138 9.9204 14.8638C8.92451 15.7139 7.42807 15.5955 6.57812 14.5998C7.98451 13.3992 7.71268 13.0077 8.43402 12.3921Z" fill="#F0F0F0"/>
    <path d="M11.5558 13.7156C11.1503 12.736 11.6221 12.6361 11.2686 11.7819C12.4783 11.2812 13.865 11.856 14.3658 13.0658C14.8664 14.2756 14.2915 15.6623 13.0817 16.163C12.3747 14.4544 11.9185 14.5919 11.5558 13.7156Z" fill="#F0F0F0"/>
    <path d="M13.7791 11.1561C12.722 11.239 12.7728 10.7594 11.8511 10.8317C11.7488 9.52648 12.724 8.38519 14.0293 8.28274C15.3346 8.18055 16.4758 9.15574 16.5781 10.4611C14.7346 10.6056 14.7244 11.082 13.7791 11.1561Z" fill="#F0F0F0"/>
  </g>
  <defs>
    <clipPath id="clip0_298_23519">
      <rect width="21.811" height="21.811" fill="white"/>
    </clipPath>
  </defs>
</svg>
