<svg xmlns="http://www.w3.org/2000/svg" width="21" height="21" viewBox="0 0 21 21" fill="none">
  <g clip-path="url(#clip0_298_31808)">
    <path d="M10.0996 20.1993C15.6775 20.1993 20.1993 15.6775 20.1993 10.0996C20.1993 4.52176 15.6775 0 10.0996 0C4.52176 0 0 4.52176 0 10.0996C0 15.6775 4.52176 20.1993 10.0996 20.1993Z" fill="#0052B4"/>
    <path d="M10.1 3.95215L10.427 4.95852H11.4851L10.629 5.58048L10.9561 6.58685L10.1 5.96485L9.24389 6.58685L9.57091 5.58048L8.71484 4.95852H9.77298L10.1 3.95215Z" fill="#FFDA44"/>
    <path d="M5.75311 5.75315L6.69601 6.23351L7.44421 5.48535L7.27863 6.53043L8.22148 7.01083L7.17637 7.17637L7.01083 8.22152L6.53043 7.27867L5.48535 7.44425L6.23355 6.69605L5.75311 5.75315Z" fill="#FFDA44"/>
    <path d="M3.95215 10.1L4.95852 9.77298V8.71484L5.58044 9.57095L6.58685 9.24393L5.96482 10.1L6.58685 10.9561L5.58044 10.6291L4.95852 11.4851V10.427L3.95215 10.1Z" fill="#FFDA44"/>
    <path d="M5.75311 14.4469L6.23351 13.504L5.48535 12.7558L6.53047 12.9214L7.01079 11.9785L7.17637 13.0236L8.22145 13.1892L7.27871 13.6696L7.44421 14.7146L6.69601 13.9664L5.75311 14.4469Z" fill="#FFDA44"/>
    <path d="M10.1 16.2469L9.77294 15.2406H8.71484L9.57095 14.6186L9.24389 13.6123L10.1 14.2342L10.9561 13.6123L10.629 14.6186L11.4851 15.2406H10.427L10.1 16.2469Z" fill="#FFDA44"/>
    <path d="M14.4468 14.4469L13.504 13.9665L12.7557 14.7147L12.9213 13.6695L11.9785 13.1892L13.0236 13.0236L13.1891 11.9785L13.6695 12.9214L14.7146 12.7558L13.9664 13.504L14.4468 14.4469Z" fill="#FFDA44"/>
    <path d="M16.2469 10.1L15.2406 10.427V11.4851L14.6186 10.629L13.6123 10.9561L14.2343 10.1L13.6123 9.24393L14.6186 9.57095L15.2406 8.71484V9.77302L16.2469 10.1Z" fill="#FFDA44"/>
    <path d="M14.4468 5.75311L13.9664 6.69601L14.7146 7.44421L13.6695 7.27859L13.1891 8.22145L13.0236 7.17633L11.9785 7.01075L12.9213 6.53039L12.7557 5.48535L13.504 6.23351L14.4468 5.75311Z" fill="#FFDA44"/>
  </g>
  <defs>
    <clipPath id="clip0_298_31808">
      <rect width="20.1993" height="20.1993" fill="white"/>
    </clipPath>
  </defs>
</svg>
