<svg xmlns="http://www.w3.org/2000/svg" width="22" height="22" viewBox="0 0 22 22" fill="none">
  <g clip-path="url(#clip0_298_23464)">
    <path d="M10.9055 21.811C16.9284 21.811 21.811 16.9284 21.811 10.9055C21.811 4.88256 16.9284 0 10.9055 0C4.88256 0 0 4.88256 0 10.9055C0 16.9284 4.88256 21.811 10.9055 21.811Z" fill="#F0F0F0"/>
    <path d="M10.4316 10.9055H21.8113C21.8113 9.92117 21.6801 8.96762 21.4356 8.06055H10.4316V10.9055Z" fill="#D80027"/>
    <path d="M10.4316 5.21553H20.2106C19.5431 4.12618 18.6895 3.1633 17.6943 2.37061H10.4316V5.21553Z" fill="#D80027"/>
    <path d="M10.9057 21.8107C13.4723 21.8107 15.8313 20.9236 17.6942 19.4399H4.11719C5.98007 20.9236 8.33911 21.8107 10.9057 21.8107Z" fill="#D80027"/>
    <path d="M1.60093 16.5949H20.2106C20.7466 15.7204 21.1622 14.7645 21.4356 13.75H0.375977C0.649338 14.7645 1.06498 15.7204 1.60093 16.5949Z" fill="#D80027"/>
    <path d="M5.05163 1.70305H6.04543L5.12102 2.37463L5.47413 3.4613L4.54976 2.78972L3.6254 3.4613L3.93041 2.52253C3.1165 3.20051 2.40313 3.99482 1.81525 4.87987H2.13369L1.54526 5.30735C1.45358 5.46029 1.36566 5.61565 1.2814 5.77331L1.56238 6.63812L1.03815 6.25724C0.90784 6.53333 0.788646 6.81564 0.681508 7.10382L0.991079 8.05669H2.13369L1.20927 8.72827L1.56238 9.81495L0.638014 9.14336L0.0843046 9.54567C0.0288825 9.99118 0 10.445 0 10.9055H10.9055C10.9055 4.88259 10.9055 4.17254 10.9055 0C8.75115 0 6.74288 0.624936 5.05163 1.70305ZM5.47413 9.81495L4.54976 9.14336L3.6254 9.81495L3.9785 8.72827L3.05409 8.05669H4.1967L4.54976 6.97002L4.90283 8.05669H6.04543L5.12102 8.72827L5.47413 9.81495ZM5.12102 5.55145L5.47413 6.63812L4.54976 5.96654L3.6254 6.63812L3.9785 5.55145L3.05409 4.87987H4.1967L4.54976 3.7932L4.90283 4.87987H6.04543L5.12102 5.55145ZM9.38588 9.81495L8.46151 9.14336L7.53715 9.81495L7.89025 8.72827L6.96584 8.05669H8.10845L8.46151 6.97002L8.81458 8.05669H9.95718L9.03277 8.72827L9.38588 9.81495ZM9.03277 5.55145L9.38588 6.63812L8.46151 5.96654L7.53715 6.63812L7.89025 5.55145L6.96584 4.87987H8.10845L8.46151 3.7932L8.81458 4.87987H9.95718L9.03277 5.55145ZM9.03277 2.37463L9.38588 3.4613L8.46151 2.78972L7.53715 3.4613L7.89025 2.37463L6.96584 1.70305H8.10845L8.46151 0.616373L8.81458 1.70305H9.95718L9.03277 2.37463Z" fill="#0052B4"/>
  </g>
  <defs>
    <clipPath id="clip0_298_23464">
      <rect width="21.811" height="21.811" fill="white"/>
    </clipPath>
  </defs>
</svg>
