<svg xmlns="http://www.w3.org/2000/svg" width="21" height="21" viewBox="0 0 21 21" fill="none">
  <g clip-path="url(#clip0_298_31814)">
    <path d="M10.0996 20.1993C15.6775 20.1993 20.1993 15.6775 20.1993 10.0996C20.1993 4.52176 15.6775 0 10.0996 0C4.52176 0 0 4.52176 0 10.0996C0 15.6775 4.52176 20.1993 10.0996 20.1993Z" fill="#F0F0F0"/>
    <path d="M2.08752 3.9502C1.29418 4.98237 0.695975 6.17204 0.347656 7.46443H5.60175L2.08752 3.9502Z" fill="#0052B4"/>
    <path d="M19.8507 7.46439C19.5024 6.17204 18.9041 4.98237 18.1108 3.9502L14.5967 7.46439H19.8507Z" fill="#0052B4"/>
    <path d="M0.347656 12.7344C0.696015 14.0267 1.29422 15.2164 2.08752 16.2485L5.60163 12.7344H0.347656Z" fill="#0052B4"/>
    <path d="M16.2486 2.08755C15.2164 1.29422 14.0268 0.696015 12.7344 0.347656V5.60171L16.2486 2.08755Z" fill="#0052B4"/>
    <path d="M3.9502 18.1108C4.98237 18.9041 6.17204 19.5023 7.46439 19.8507V14.5967L3.9502 18.1108Z" fill="#0052B4"/>
    <path d="M7.46435 0.347656C6.172 0.696015 4.98233 1.29422 3.9502 2.08752L7.46435 5.60167V0.347656Z" fill="#0052B4"/>
    <path d="M12.7344 19.8507C14.0267 19.5023 15.2164 18.9041 16.2485 18.1108L12.7344 14.5967V19.8507Z" fill="#0052B4"/>
    <path d="M14.5967 12.7344L18.1108 16.2486C18.9041 15.2164 19.5024 14.0267 19.8507 12.7344H14.5967Z" fill="#0052B4"/>
    <path d="M20.1138 8.7823H11.417H11.417V0.0854918C10.9858 0.0293521 10.5461 0 10.0996 0C9.65308 0 9.21351 0.0293521 8.7823 0.0854918V8.78222V8.78226H0.0854918C0.0293521 9.21351 0 9.65316 0 10.0996C0 10.5462 0.0293521 10.9858 0.0854918 11.417H8.78222H8.78226V20.1138C9.21351 20.1699 9.65308 20.1993 10.0996 20.1993C10.5461 20.1993 10.9858 20.17 11.417 20.1138V11.417V11.417H20.1138C20.1699 10.9858 20.1993 10.5462 20.1993 10.0996C20.1993 9.65316 20.1699 9.21351 20.1138 8.7823Z" fill="#D80027"/>
    <path d="M12.7344 12.7344L17.2412 17.2412C17.4485 17.034 17.6462 16.8174 17.8348 16.5928L13.9764 12.7344H12.7344V12.7344Z" fill="#D80027"/>
    <path d="M7.46485 12.7344H7.46477L2.95801 17.2411C3.16521 17.4484 3.38184 17.6461 3.6064 17.8348L7.46485 13.9763V12.7344Z" fill="#D80027"/>
    <path d="M7.46473 7.46493V7.46485L2.95793 2.95801C2.75065 3.16521 2.55292 3.38184 2.36426 3.6064L6.22275 7.46489H7.46473V7.46493Z" fill="#D80027"/>
    <path d="M12.7344 7.46477L17.2412 2.95789C17.034 2.75061 16.8174 2.55288 16.5928 2.36426L12.7344 6.22275V7.46477Z" fill="#D80027"/>
  </g>
  <defs>
    <clipPath id="clip0_298_31814">
      <rect width="20.1993" height="20.1993" fill="white"/>
    </clipPath>
  </defs>
</svg>
