<svg xmlns="http://www.w3.org/2000/svg" width="21" height="21" viewBox="0 0 21 21" fill="none">
  <g clip-path="url(#clip0_298_31765)">
    <path d="M10.0996 20.1993C15.6775 20.1993 20.1993 15.6775 20.1993 10.0996C20.1993 4.52176 15.6775 0 10.0996 0C4.52176 0 0 4.52176 0 10.0996C0 15.6775 4.52176 20.1993 10.0996 20.1993Z" fill="#F0F0F0"/>
    <path d="M9.66016 10.0995H20.1989C20.1989 9.18798 20.0774 8.30489 19.851 7.46484H9.66016V10.0995Z" fill="#D80027"/>
    <path d="M9.66016 4.83001H18.7165C18.0983 3.82116 17.3078 2.92943 16.3861 2.19531H9.66016V4.83001Z" fill="#D80027"/>
    <path d="M10.0994 20.1985C12.4763 20.1985 14.661 19.377 16.3862 18.0029H3.8125C5.53772 19.377 7.72244 20.1985 10.0994 20.1985Z" fill="#D80027"/>
    <path d="M1.48209 15.3691H18.7166C19.213 14.5592 19.5979 13.6739 19.8511 12.7344H0.347656C0.600818 13.6739 0.985748 14.5592 1.48209 15.3691Z" fill="#D80027"/>
    <path d="M4.67834 1.5772H5.59871L4.74261 2.19916L5.06962 3.20553L4.21356 2.58357L3.3575 3.20553L3.63997 2.33613C2.88621 2.96401 2.22555 3.69962 1.68112 4.51927H1.97602L1.43107 4.91517C1.34617 5.0568 1.26474 5.20068 1.18671 5.34669L1.44693 6.1476L0.961438 5.79486C0.840755 6.05055 0.730369 6.31199 0.631148 6.57888L0.917844 7.46134H1.97602L1.11992 8.0833L1.44693 9.08967L0.590868 8.46771L0.0780749 8.84029C0.0267482 9.25288 0 9.67312 0 10.0996H10.0996C10.0996 4.52179 10.0996 3.86421 10.0996 0C8.10448 0 6.24461 0.578756 4.67834 1.5772ZM5.06962 9.08967L4.21356 8.46771L3.3575 9.08967L3.68451 8.0833L2.82841 7.46134H3.88658L4.21356 6.45497L4.54053 7.46134H5.59871L4.74261 8.0833L5.06962 9.08967ZM4.74261 5.14123L5.06962 6.1476L4.21356 5.52564L3.3575 6.1476L3.68451 5.14123L2.82841 4.51927H3.88658L4.21356 3.5129L4.54053 4.51927H5.59871L4.74261 5.14123ZM8.69231 9.08967L7.83625 8.46771L6.98019 9.08967L7.3072 8.0833L6.4511 7.46134H7.50927L7.83625 6.45497L8.16323 7.46134H9.2214L8.3653 8.0833L8.69231 9.08967ZM8.3653 5.14123L8.69231 6.1476L7.83625 5.52564L6.98019 6.1476L7.3072 5.14123L6.4511 4.51927H7.50927L7.83625 3.5129L8.16323 4.51927H9.2214L8.3653 5.14123ZM8.3653 2.19916L8.69231 3.20553L7.83625 2.58357L6.98019 3.20553L7.3072 2.19916L6.4511 1.5772H7.50927L7.83625 0.570826L8.16323 1.5772H9.2214L8.3653 2.19916Z" fill="#0052B4"/>
  </g>
  <defs>
    <clipPath id="clip0_298_31765">
      <rect width="20.1993" height="20.1993" fill="white"/>
    </clipPath>
  </defs>
</svg>
