<svg xmlns="http://www.w3.org/2000/svg" width="21" height="21" viewBox="0 0 21 21" fill="none">
  <g clip-path="url(#clip0_298_31796)">
    <path d="M10.0996 20.1993C15.6775 20.1993 20.1993 15.6775 20.1993 10.0996C20.1993 4.52176 15.6775 0 10.0996 0C4.52176 0 0 4.52176 0 10.0996C0 15.6775 4.52176 20.1993 10.0996 20.1993Z" fill="#F0F0F0"/>
    <path d="M5.70801 13.6123L6.58624 19.5709C7.68032 19.9769 8.86375 20.199 10.0991 20.199C14.4416 20.199 18.1436 17.4583 19.5705 13.6123H5.70801Z" fill="black"/>
    <path d="M5.70801 6.58674L6.58624 0.62811C7.68032 0.222113 8.86375 0 10.0991 0C14.4416 0 18.1436 2.74079 19.5705 6.58674H5.70801Z" fill="#6DA544"/>
    <path d="M0 10.0994C0 14.4419 2.74083 18.1438 6.58674 19.5708V0.62793C2.74083 2.05494 0 5.75689 0 10.0994Z" fill="#A2001D"/>
  </g>
  <defs>
    <clipPath id="clip0_298_31796">
      <rect width="20.1993" height="20.1993" fill="white"/>
    </clipPath>
  </defs>
</svg>
