<svg xmlns="http://www.w3.org/2000/svg" width="21" height="21" viewBox="0 0 21 21" fill="none">
  <g clip-path="url(#clip0_298_31857)">
    <path d="M20.1993 10.0996C20.1993 15.6775 15.6775 20.1993 10.0996 20.1993C4.52179 20.1993 0 15.6775 0 10.0996C0 10.102 10.0996 0.0011441 10.0996 0C15.6775 0 20.1993 4.52179 20.1993 10.0996Z" fill="#0052B4"/>
    <path d="M10.0723 10.0993H10.0993C10.0993 10.0901 10.0993 10.0814 10.0993 10.0723C10.0903 10.0813 10.0813 10.0903 10.0723 10.0993Z" fill="#F0F0F0"/>
    <path d="M10.0996 5.26936C10.0996 3.49226 10.0996 2.32777 10.0996 0H10.0979C4.52085 0.000907389 0 4.52227 0 10.0996H5.26936V7.13235L8.2366 10.0996H10.0726C10.0817 10.0906 10.0907 10.0816 10.0997 10.0726C10.0997 9.39215 10.0997 8.78502 10.0997 8.23664L7.13239 5.26936H10.0996Z" fill="#F0F0F0"/>
    <path d="M5.10964 1.31738C3.53003 2.21684 2.21684 3.53003 1.31738 5.10964V10.0997H3.95209V3.95212V3.95209H10.0997C10.0997 3.12111 10.0997 2.32948 10.0997 1.31738H5.10964Z" fill="#D80027"/>
    <path d="M10.0998 8.85776L6.51151 5.26955H5.26953C5.26953 5.26951 5.26953 5.26955 5.26953 5.26955L10.0997 10.0997H10.0998C10.0998 10.0997 10.0998 9.24344 10.0998 8.85776Z" fill="#D80027"/>
    <path d="M6.09089 11.8564L6.64518 13.0155L7.89687 12.7262L7.33634 13.8822L8.34291 14.6804L7.08965 14.9629L7.09316 16.2476L6.09089 15.4438L5.08866 16.2476L5.09217 14.9629L3.83887 14.6804L4.84548 13.8822L4.28487 12.7262L5.53663 13.0155L6.09089 11.8564Z" fill="#F0F0F0"/>
    <path d="M15.1211 14.0518L15.3983 14.6313L16.0241 14.4866L15.7438 15.0646L16.2471 15.4637L15.6205 15.605L15.6222 16.2473L15.1211 15.8454L14.62 16.2473L14.6217 15.605L13.9951 15.4637L14.4984 15.0646L14.2181 14.4866L14.844 14.6313L15.1211 14.0518Z" fill="#F0F0F0"/>
    <path d="M12.543 7.9043L12.8201 8.48384L13.446 8.33913L13.1657 8.91714L13.669 9.31627L13.0424 9.45751L13.0441 10.0999L12.543 9.69797L12.0419 10.0999L12.0436 9.45751L11.417 9.31627L11.9203 8.91714L11.64 8.33913L12.2659 8.48384L12.543 7.9043Z" fill="#F0F0F0"/>
    <path d="M15.1211 4.3916L15.3983 4.97115L16.0241 4.82648L15.7439 5.40448L16.2471 5.80358L15.6205 5.94485L15.6222 6.58721L15.1211 6.18531L14.62 6.58721L14.6217 5.94485L13.9951 5.80358L14.4984 5.40448L14.2181 4.82648L14.844 4.97115L15.1211 4.3916Z" fill="#F0F0F0"/>
    <path d="M17.3731 7.02637L17.6502 7.60591L18.2761 7.4612L17.9958 8.03921L18.4991 8.43834L17.8724 8.57962L17.8742 9.22193L17.3731 8.82008L16.872 9.22193L16.8737 8.57962L16.2471 8.43834L16.7504 8.03921L16.4701 7.4612L17.0959 7.60591L17.3731 7.02637Z" fill="#F0F0F0"/>
    <path d="M15.7623 10.0996L15.9803 10.7705H16.6858L16.115 11.1852L16.3331 11.8561L15.7623 11.4414L15.1916 11.8561L15.4096 11.1852L14.8389 10.7705H15.5443L15.7623 10.0996Z" fill="#F0F0F0"/>
  </g>
  <defs>
    <clipPath id="clip0_298_31857">
      <rect width="20.1993" height="20.1993" fill="white"/>
    </clipPath>
  </defs>
</svg>
