<svg xmlns="http://www.w3.org/2000/svg" width="22" height="22" viewBox="0 0 22 22" fill="none">
  <g clip-path="url(#clip0_298_23538)">
    <path d="M10.9055 21.8109C16.9284 21.8109 21.8109 16.9284 21.8109 10.9055C21.8109 4.88254 16.9284 0 10.9055 0C4.88254 0 0 4.88254 0 10.9055C0 16.9284 4.88254 21.8109 10.9055 21.8109Z" fill="#FFDA44"/>
    <path d="M8.53502 1.89648H4.7592C4.59187 2.01086 4.42812 2.12993 4.26765 2.25317L3.31934 10.9053L4.26765 19.5575C4.42812 19.6807 4.59187 19.7998 4.7592 19.9142H8.53502V1.89648Z" fill="#FF9811"/>
    <path d="M0 10.9056C0 14.4305 1.6728 17.5642 4.26737 19.5578V2.25342C1.6728 4.24699 0 7.3807 0 10.9056Z" fill="#6DA544"/>
    <path d="M17.5439 6.64844V6.92129L17.5541 6.92282L17.5439 6.64844Z" fill="#FFDA44"/>
    <path d="M20.9415 13.7502H18.8868L18.0176 14.6986V16.5952H16.121V15.6469H17.0693V13.7502H12.8019V14.9356H11.8536V12.6765C11.5627 12.4161 11.3795 12.0377 11.3795 11.6166V5.45261C11.3795 4.66703 12.0163 4.03017 12.8019 4.03017V12.802H14.6985L15.3493 12.2596C15.2356 11.9889 15.1727 11.6916 15.1727 11.3795V9.95709H13.7502V7.11221H16.5951C16.5951 6.63807 17.3064 6.1639 17.3064 6.1639C17.3064 6.1639 18.0176 6.63803 18.0176 7.11221V7.82345V9.95714C18.5451 9.9634 19.3832 9.94972 20.2887 9.95714C20.0508 9.54136 19.9142 9.04802 19.9142 8.53469C19.9142 7.69799 20.2754 6.94577 20.8504 6.4252C20.0216 4.58852 18.6991 3.02248 17.0519 1.89648H9.95703V19.9142H17.0519C19.0549 18.545 20.5778 16.5254 21.3166 14.1595L20.9415 13.7502Z" fill="#A2001D"/>
  </g>
  <defs>
    <clipPath id="clip0_298_23538">
      <rect width="21.8109" height="21.8109" fill="white"/>
    </clipPath>
  </defs>
</svg>
