<svg xmlns="http://www.w3.org/2000/svg" width="21" height="21" viewBox="0 0 21 21" fill="none">
  <g clip-path="url(#clip0_298_31826)">
    <path d="M10.0996 20.1993C15.6775 20.1993 20.1993 15.6775 20.1993 10.0996C20.1993 4.52176 15.6775 0 10.0996 0C4.52176 0 0 4.52176 0 10.0996C0 15.6775 4.52176 20.1993 10.0996 20.1993Z" fill="#D80027"/>
    <path d="M5.52764 6.14648L6.39952 8.8292H9.22032L6.94001 10.4901L7.81189 13.1728L5.52764 11.5159L3.24339 13.1728L4.11921 10.4901L1.83496 8.8292H4.65576L5.52764 6.14648Z" fill="#FFDA44"/>
    <path d="M11.9743 15.6425L11.3075 14.8219L10.3212 15.2046L10.8933 14.3169L10.2266 13.4924L11.2484 13.7646L11.8244 12.877L11.8796 13.9343L12.9053 14.2065L11.9151 14.5852L11.9743 15.6425Z" fill="#FFDA44"/>
    <path d="M13.2994 13.2361L13.615 12.2261L12.751 11.6146L13.8083 11.5988L14.1199 10.5889L14.4632 11.5909L15.5205 11.5791L14.6723 12.2103L15.0116 13.2124L14.1476 12.6009L13.2994 13.2361Z" fill="#FFDA44"/>
    <path d="M15.0867 7.41355L14.6211 8.36433L15.3786 9.10208L14.3331 8.95216L13.8676 9.899L13.6861 8.85748L12.6367 8.70756L13.5757 8.21442L13.3942 7.16895L14.1517 7.90669L15.0867 7.41355Z" fill="#FFDA44"/>
    <path d="M12.002 4.5332L11.9231 5.58656L12.9054 5.98503L11.8758 6.23752L11.8008 7.29482L11.2445 6.39532L10.2148 6.64781L10.8974 5.83905L10.3371 4.9435L11.3195 5.34196L12.002 4.5332Z" fill="#FFDA44"/>
  </g>
  <defs>
    <clipPath id="clip0_298_31826">
      <rect width="20.1993" height="20.1993" fill="white"/>
    </clipPath>
  </defs>
</svg>
