<svg xmlns="http://www.w3.org/2000/svg" width="21" height="21" viewBox="0 0 21 21" fill="none">
  <g clip-path="url(#clip0_298_31851)">
    <path d="M10.0996 20.1993C15.6775 20.1993 20.1993 15.6775 20.1993 10.0996C20.1993 4.52176 15.6775 0 10.0996 0C4.52176 0 0 4.52176 0 10.0996C0 15.6775 4.52176 20.1993 10.0996 20.1993Z" fill="#F0F0F0"/>
    <path d="M20.1997 10.0994C20.1997 6.09532 17.8695 2.63557 14.4912 1.00195V19.1969C17.8695 17.5633 20.1997 14.1035 20.1997 10.0994Z" fill="#D80027"/>
    <path d="M0 10.0994C0 14.1035 2.33021 17.5633 5.7085 19.1969V1.00195C2.33021 2.63557 0 6.09532 0 10.0994Z" fill="#D80027"/>
    <path d="M11.8563 11.4165L13.6127 10.5383L12.7345 10.0992V9.22096L10.978 10.0992L11.8563 8.34272H10.978L10.0998 7.02539L9.22158 8.34272H8.34334L9.22158 10.0992L7.46511 9.22096V10.0992L6.58691 10.5383L8.34334 11.4165L7.90425 12.2948H9.66071V13.6121H10.5389V12.2948H12.2954L11.8563 11.4165Z" fill="#D80027"/>
  </g>
  <defs>
    <clipPath id="clip0_298_31851">
      <rect width="20.1993" height="20.1993" fill="white"/>
    </clipPath>
  </defs>
</svg>
