<svg xmlns="http://www.w3.org/2000/svg" width="21" height="21" viewBox="0 0 21 21" fill="none">
  <g clip-path="url(#clip0_298_31783)">
    <path d="M10.0996 20.1993C15.6775 20.1993 20.1993 15.6775 20.1993 10.0996C20.1993 4.52176 15.6775 0 10.0996 0C4.52176 0 0 4.52176 0 10.0996C0 15.6775 4.52176 20.1993 10.0996 20.1993Z" fill="#F0F0F0"/>
    <path d="M10.0996 0V10.0996L2.95801 17.2412C4.78569 19.0688 7.31059 20.1993 10.0996 20.1993C15.6774 20.1993 20.1992 15.6775 20.1992 10.0996C20.1992 4.52179 10.0996 0 10.0996 0Z" fill="#D80027"/>
    <path d="M10.0996 0C7.31059 0 4.78569 1.13045 2.95801 2.95809C5.43597 5.43605 6.31562 6.31574 10.0996 10.0996H20.1992C20.1992 4.52179 15.6774 0 10.0996 0Z" fill="#0052B4"/>
    <path d="M6.91522 10.1001L5.6818 9.51991L6.33863 8.32535L4.99925 8.58159L4.82953 7.22852L3.89658 8.22364L2.96366 7.22852L2.7939 8.58159L1.45456 8.32531L2.11139 9.51991L0.87793 10.1001L2.11139 10.6803L1.45456 11.8748L2.79402 11.6186L2.96362 12.9717L3.89658 11.9765L4.82953 12.9717L4.99925 11.6186L6.33856 11.8749L5.68176 10.6803L6.91522 10.1001Z" fill="#FFDA44"/>
    <path d="M2.69341 3.95215L3.10386 4.52589L3.77631 4.31289L3.35742 4.88053L3.76787 5.45427L3.09853 5.23133L2.67968 5.79892L2.68492 5.09352L2.01562 4.87054L2.6882 4.65754L2.69341 3.95215Z" fill="#FFDA44"/>
    <path d="M2.69341 14.4004L3.10386 14.9741L3.77631 14.7611L3.35742 15.3288L3.76787 15.9025L3.09853 15.6796L2.67968 16.2472L2.68492 15.5418L2.01562 15.3188L2.6882 15.1058L2.69341 14.4004Z" fill="#FFDA44"/>
    <path d="M8.54775 9.17676L8.13734 9.7505L7.46484 9.53743L7.88374 10.1051L7.47329 10.6789L8.14262 10.4559L8.56152 11.0235L8.55624 10.3181L9.22553 10.0952L8.553 9.88215L8.54775 9.17676Z" fill="#FFDA44"/>
  </g>
  <defs>
    <clipPath id="clip0_298_31783">
      <rect width="20.1993" height="20.1993" fill="white"/>
    </clipPath>
  </defs>
</svg>
