<svg xmlns="http://www.w3.org/2000/svg" width="22" height="22" viewBox="0 0 22 22" fill="none">
  <g clip-path="url(#clip0_298_23476)">
    <path d="M10.9055 21.811C16.9284 21.811 21.811 16.9284 21.811 10.9055C21.811 4.88256 16.9284 0 10.9055 0C4.88256 0 0 4.88256 0 10.9055C0 16.9284 4.88256 21.811 10.9055 21.811Z" fill="#F0F0F0"/>
    <path d="M10.4316 10.9055H21.8113C21.8113 9.92113 21.6801 8.96766 21.4356 8.06055H10.4316V10.9055Z" fill="#D80027"/>
    <path d="M10.4316 5.21553H20.2106C19.5431 4.12618 18.6896 3.1633 17.6943 2.37061H10.4316V5.21553Z" fill="#D80027"/>
    <path d="M10.9057 21.8107C13.4723 21.8107 15.8313 20.9236 17.6943 19.4399H4.11719C5.98011 20.9236 8.33915 21.8107 10.9057 21.8107Z" fill="#D80027"/>
    <path d="M1.60093 16.5949H20.2106C20.7466 15.7204 21.1622 14.7645 21.4356 13.75H0.375977C0.649338 14.7645 1.06498 15.7204 1.60093 16.5949Z" fill="#D80027"/>
    <path d="M10.9055 10.9055C10.9055 4.88259 10.9055 4.17254 10.9055 0C4.88259 0 0 4.88259 0 10.9055H10.9055Z" fill="#0052B4"/>
    <path d="M7.25178 9.33508C5.76242 9.33508 4.55506 8.12768 4.55506 6.63836C4.55506 5.14903 5.76246 3.94163 7.25178 3.94163C7.71616 3.94163 8.15311 4.05908 8.53459 4.26577C7.93615 3.68058 7.11772 3.31934 6.21457 3.31934C4.38155 3.31934 2.89551 4.80534 2.89551 6.6384C2.89551 8.47146 4.38155 9.95746 6.21457 9.95746C7.11772 9.95746 7.93615 9.59621 8.53459 9.01102C8.15311 9.21763 7.7162 9.33508 7.25178 9.33508Z" fill="#FFDA44"/>
    <path d="M8.01184 4.7417L8.49062 5.74287L9.57184 5.49307L9.08765 6.49156L9.9572 7.18112L8.87457 7.42517L8.8776 8.53494L8.01184 7.84065L7.14605 8.53494L7.14903 7.42517L6.06641 7.18112L6.93595 6.49156L6.45172 5.49307L7.53302 5.74287L8.01184 4.7417Z" fill="#FFDA44"/>
  </g>
  <defs>
    <clipPath id="clip0_298_23476">
      <rect width="21.811" height="21.811" fill="white"/>
    </clipPath>
  </defs>
</svg>
