<svg xmlns="http://www.w3.org/2000/svg" width="22" height="22" viewBox="0 0 22 22" fill="none">
  <g clip-path="url(#clip0_298_23495)">
    <path d="M10.9055 21.811C16.9284 21.811 21.811 16.9284 21.811 10.9055C21.811 4.88256 16.9284 0 10.9055 0C4.88256 0 0 4.88256 0 10.9055C0 16.9284 4.88256 21.811 10.9055 21.811Z" fill="#F0F0F0"/>
    <path d="M6.16406 14.6987L7.11237 21.1328C8.29374 21.5712 9.5716 21.811 10.9056 21.811C15.5945 21.811 19.5919 18.8516 21.1327 14.6987H6.16406Z" fill="black"/>
    <path d="M6.16406 7.1123L7.11237 0.678228C8.29374 0.239836 9.5716 0 10.9056 0C15.5945 0 19.5919 2.95948 21.1327 7.1123H6.16406Z" fill="#6DA544"/>
    <path d="M0 10.9054C0 15.5944 2.95952 19.5917 7.1123 21.1326V0.678223C2.95952 2.21909 0 6.21642 0 10.9054Z" fill="#A2001D"/>
  </g>
  <defs>
    <clipPath id="clip0_298_23495">
      <rect width="21.811" height="21.811" fill="white"/>
    </clipPath>
  </defs>
</svg>
