<svg xmlns="http://www.w3.org/2000/svg" width="21" height="21" viewBox="0 0 21 21" fill="none">
  <g clip-path="url(#clip0_298_31839)">
    <path d="M10.0996 20.1992C15.6774 20.1992 20.1992 15.6774 20.1992 10.0996C20.1992 4.52174 15.6774 0 10.0996 0C4.52174 0 0 4.52174 0 10.0996C0 15.6774 4.52174 20.1992 10.0996 20.1992Z" fill="#FFDA44"/>
    <path d="M7.90449 1.75684H4.40769C4.25272 1.86276 4.10107 1.97303 3.95245 2.08716L3.07422 10.1L3.95245 18.1128C4.10107 18.2269 4.25272 18.3372 4.40769 18.4431H7.90449V1.75684Z" fill="#FF9811"/>
    <path d="M0 10.0997C0 13.3642 1.54919 16.2663 3.95203 18.1125V2.08691C1.54919 3.93317 0 6.83532 0 10.0997Z" fill="#6DA544"/>
    <path d="M16.2471 6.15723V6.40991L16.2565 6.41134L16.2471 6.15723Z" fill="#FFDA44"/>
    <path d="M19.3945 12.7347H17.4916L16.6866 13.6129V15.3694H14.9301V14.4911H15.8084V12.7347H11.8563V13.8324H10.9781V11.7403C10.7087 11.4991 10.539 11.1487 10.539 10.7586V5.05018C10.539 4.32266 11.1288 3.73285 11.8563 3.73285V11.8565H13.6128L14.2155 11.3542C14.1102 11.1035 14.0519 10.8282 14.0519 10.5391V9.22181H12.7346V6.58714H15.3692C15.3692 6.14805 16.0279 5.70891 16.0279 5.70891C16.0279 5.70891 16.6866 6.14801 16.6866 6.58714V7.24583V9.22184C17.1751 9.22764 17.9513 9.21498 18.7899 9.22184C18.5696 8.8368 18.443 8.37991 18.443 7.90451C18.443 7.12964 18.7776 6.433 19.3101 5.95091C18.5425 4.24995 17.3177 2.79962 15.7922 1.75684H9.22168V18.4432H15.7923C17.6473 17.1751 19.0576 15.3047 19.7419 13.1136L19.3945 12.7347Z" fill="#A2001D"/>
  </g>
  <defs>
    <clipPath id="clip0_298_31839">
      <rect width="20.1992" height="20.1992" fill="white"/>
    </clipPath>
  </defs>
</svg>
