<svg xmlns="http://www.w3.org/2000/svg" width="22" height="22" viewBox="0 0 22 22" fill="none">
  <g clip-path="url(#clip0_298_23507)">
    <path d="M10.9055 21.811C16.9284 21.811 21.811 16.9284 21.811 10.9055C21.811 4.88256 16.9284 0 10.9055 0C4.88256 0 0 4.88256 0 10.9055C0 16.9284 4.88256 21.811 10.9055 21.811Z" fill="#0052B4"/>
    <path d="M10.9058 4.26758L11.2589 5.35425H12.4015L11.4771 6.02583L11.8302 7.11251L10.9058 6.44088L9.98142 7.11251L10.3345 6.02583L9.41016 5.35425H10.5527L10.9058 4.26758Z" fill="#FFDA44"/>
    <path d="M6.21198 6.21202L7.23011 6.73071L8.03801 5.92285L7.85922 7.05131L8.8773 7.57005L7.7488 7.7488L7.57005 8.87735L7.05131 7.85926L5.92285 8.03805L6.73075 7.23015L6.21198 6.21202Z" fill="#FFDA44"/>
    <path d="M4.26758 10.9058L5.35425 10.5527V9.41016L6.02579 10.3346L7.11251 9.98146L6.44084 10.9058L7.11251 11.8302L6.02579 11.4771L5.35425 12.4015V11.2589L4.26758 10.9058Z" fill="#FFDA44"/>
    <path d="M6.21198 15.5994L6.73071 14.5812L5.92285 13.7733L7.05136 13.9522L7.57001 12.9341L7.7488 14.0626L8.87726 14.2413L7.8593 14.7601L8.03801 15.8885L7.23011 15.0806L6.21198 15.5994Z" fill="#FFDA44"/>
    <path d="M10.9058 17.5441L10.5527 16.4574H9.41016L10.3346 15.7858L9.98142 14.6992L10.9058 15.3708L11.8302 14.6992L11.4771 15.7858L12.4015 16.4574H11.2589L10.9058 17.5441Z" fill="#FFDA44"/>
    <path d="M15.5998 15.5994L14.5817 15.0807L13.7738 15.8886L13.9526 14.76L12.9346 14.2413L14.063 14.0626L14.2418 12.9341L14.7605 13.9522L15.8889 13.7733L15.081 14.5813L15.5998 15.5994Z" fill="#FFDA44"/>
    <path d="M17.5441 10.9058L16.4574 11.2589V12.4015L15.7858 11.4771L14.6992 11.8302L15.3708 10.9058L14.6992 9.98146L15.7858 10.3346L16.4574 9.41016V10.5528L17.5441 10.9058Z" fill="#FFDA44"/>
    <path d="M15.5998 6.21198L15.0811 7.23011L15.889 8.03801L14.7604 7.85917L14.2418 8.87726L14.063 7.74876L12.9346 7.56997L13.9526 7.05127L13.7738 5.92285L14.5818 6.73071L15.5998 6.21198Z" fill="#FFDA44"/>
  </g>
  <defs>
    <clipPath id="clip0_298_23507">
      <rect width="21.811" height="21.811" fill="white"/>
    </clipPath>
  </defs>
</svg>
