<svg xmlns="http://www.w3.org/2000/svg" width="22" height="22" viewBox="0 0 22 22" fill="none">
  <g clip-path="url(#clip0_298_23544)">
    <path d="M10.9055 21.811C16.9284 21.811 21.811 16.9284 21.811 10.9055C21.811 4.88256 16.9284 0 10.9055 0C4.88256 0 0 4.88256 0 10.9055C0 16.9284 4.88256 21.811 10.9055 21.811Z" fill="#F0F0F0"/>
    <path d="M21.7467 12.0908C21.7467 12.0907 21.7467 12.0906 21.7467 12.0905L9.78709 0.0566406C9.24756 0.111637 8.71962 0.205952 8.20626 0.33669C3.48882 1.53779 0 10.9054 0 10.9054C0 10.9054 15.2676 21.1223 17.0094 19.9435C17.3579 19.7077 17.692 19.4522 18.0102 19.1787L10.9223 12.0908H21.7467Z" fill="#0052B4"/>
    <path d="M18.9661 10.9054L8.35996 0.299316C3.56507 1.44597 0 5.75901 0 10.9054C0 16.9283 4.88259 21.8109 10.9055 21.8109C13.1901 21.8109 15.3102 21.1079 17.0624 19.9071L8.06056 10.9054H18.9661Z" fill="#D80027"/>
    <path d="M10.3716 16.1022L9.03972 15.4757L9.74896 14.1859L8.30271 14.4625L8.11944 13.0015L7.11209 14.076L6.10474 13.0015L5.92143 14.4625L4.47522 14.1858L5.18446 15.4757L3.85254 16.1022L5.18446 16.7286L4.47522 18.0185L5.92152 17.7419L6.10469 19.2029L7.11209 18.1283L8.11944 19.2029L8.30271 17.7419L9.74892 18.0186L9.03968 16.7287L10.3716 16.1022Z" fill="#F0F0F0"/>
    <path d="M9.48276 6.04819L8.51404 5.59259L9.02988 4.65442L7.97797 4.85566L7.84468 3.79297L7.11201 4.57454L6.37934 3.79297L6.246 4.85566L5.19409 4.65442L5.70997 5.59259L4.74121 6.04819L7.11201 6.52241L9.48276 6.04819Z" fill="#F0F0F0"/>
    <path d="M9.95744 6.04834C9.95744 7.61954 8.68371 8.89327 7.11251 8.89327C5.54131 8.89327 4.26758 7.61954 4.26758 6.04834" fill="#F0F0F0"/>
  </g>
  <defs>
    <clipPath id="clip0_298_23544">
      <rect width="21.811" height="21.811" fill="white"/>
    </clipPath>
  </defs>
</svg>
