<svg width="1913" height="1913" viewBox="0 0 1913 1913" fill="none" xmlns="http://www.w3.org/2000/svg">
<line x1="0.537259" y1="1721.7" x2="1913" y2="1721.7" stroke="white" stroke-width="1.2607"/>
<line y1="1076.67" x2="1913" y2="1076.67" stroke="white" stroke-width="1.2607"/>
<line x1="0.537259" y1="1398.87" x2="1913" y2="1398.87" stroke="white" stroke-width="1.2607"/>
<line y1="753.579" x2="1913" y2="753.579" stroke="white" stroke-width="1.2607"/>
<line y1="430.489" x2="1913" y2="430.489" stroke="white" stroke-width="1.2607"/>
<line x1="0.537259" y1="1560.28" x2="1913" y2="1560.28" stroke="white" stroke-width="1.2607"/>
<line y1="914.623" x2="1913" y2="914.623" stroke="white" stroke-width="1.2607"/>
<line x1="0.537259" y1="1237.45" x2="1913" y2="1237.45" stroke="white" stroke-width="1.2607"/>
<line y1="591.534" x2="1913" y2="591.534" stroke="white" stroke-width="1.2607"/>
<line y1="268.444" x2="1912.53" y2="268.444" stroke="white" stroke-width="1.2607"/>
<line x1="0.537259" y1="1640.99" x2="1913" y2="1640.99" stroke="white" stroke-width="1.2607"/>
<line y1="995.646" x2="1913" y2="995.646" stroke="white" stroke-width="1.2607"/>
<line x1="0.537259" y1="1318.16" x2="1913" y2="1318.16" stroke="white" stroke-width="1.2607"/>
<line y1="672.556" x2="1913" y2="672.556" stroke="white" stroke-width="1.2607"/>
<line y1="349.466" x2="1912.53" y2="349.466" stroke="white" stroke-width="1.2607"/>
<line x1="0.537259" y1="1479.58" x2="1913" y2="1479.58" stroke="white" stroke-width="1.2607"/>
<line y1="834.601" x2="1913" y2="834.601" stroke="white" stroke-width="1.2607"/>
<line y1="1156.69" x2="1913" y2="1156.69" stroke="white" stroke-width="1.2607"/>
<line y1="511.511" x2="1913" y2="511.511" stroke="white" stroke-width="1.2607"/>
<line y1="188.422" x2="1912.53" y2="188.422" stroke="white" stroke-width="1.2607"/>
<line x1="190.834" y1="0.536526" x2="190.834" y2="1913" stroke="white" stroke-width="1.2607"/>
<line x1="835.862" y1="2.75611e-08" x2="835.862" y2="1913" stroke="white" stroke-width="1.2607"/>
<line x1="513.662" y1="0.536526" x2="513.662" y2="1913" stroke="white" stroke-width="1.2607"/>
<line x1="1158.95" y1="2.75611e-08" x2="1158.95" y2="1913" stroke="white" stroke-width="1.2607"/>
<line x1="1482.04" y1="2.75611e-08" x2="1482.04" y2="1913" stroke="white" stroke-width="1.2607"/>
<line x1="352.248" y1="0.536526" x2="352.248" y2="1913" stroke="white" stroke-width="1.2607"/>
<line x1="997.907" y1="2.75611e-08" x2="997.907" y2="1913" stroke="white" stroke-width="1.2607"/>
<line x1="675.078" y1="0.536526" x2="675.078" y2="1913" stroke="white" stroke-width="1.2607"/>
<line x1="1321" y1="2.75611e-08" x2="1321" y2="1913" stroke="white" stroke-width="1.2607"/>
<line x1="1644.09" y1="2.75611e-08" x2="1644.09" y2="1912.53" stroke="white" stroke-width="1.2607"/>
<line x1="271.542" y1="0.536526" x2="271.542" y2="1913" stroke="white" stroke-width="1.2607"/>
<line x1="916.885" y1="2.75611e-08" x2="916.885" y2="1913" stroke="white" stroke-width="1.2607"/>
<line x1="594.37" y1="0.536526" x2="594.37" y2="1913" stroke="white" stroke-width="1.2607"/>
<line x1="1239.97" y1="2.75611e-08" x2="1239.97" y2="1913" stroke="white" stroke-width="1.2607"/>
<line x1="1563.06" y1="2.75611e-08" x2="1563.06" y2="1912.53" stroke="white" stroke-width="1.2607"/>
<line x1="432.954" y1="0.536526" x2="432.954" y2="1913" stroke="white" stroke-width="1.2607"/>
<line x1="1077.93" y1="2.75611e-08" x2="1077.93" y2="1913" stroke="white" stroke-width="1.2607"/>
<line x1="755.84" y1="2.75611e-08" x2="755.84" y2="1913" stroke="white" stroke-width="1.2607"/>
<line x1="1401.02" y1="2.75611e-08" x2="1401.02" y2="1913" stroke="white" stroke-width="1.2607"/>
<line x1="1724.11" y1="2.75611e-08" x2="1724.11" y2="1912.53" stroke="white" stroke-width="1.2607"/>
</svg>
