<svg xmlns="http://www.w3.org/2000/svg" width="98" height="28" viewBox="0 0 98 28" fill="none">
  <rect x="0.5" y="0.5" width="97" height="27" rx="13.5" fill="#222C2F"/>
  <rect x="0.5" y="0.5" width="97" height="27" rx="13.5" stroke="#2F4650"/>
  <path d="M21.1806 9.25037L22.1081 11.1206C22.2346 11.3809 22.5718 11.6307 22.8564 11.6785L24.5374 11.9601C25.6124 12.1407 25.8653 12.9271 25.0907 13.7028L23.7838 15.0204C23.5625 15.2436 23.4413 15.6739 23.5098 15.9821L23.884 17.6133C24.179 18.9044 23.4992 19.4038 22.3663 18.729L20.7907 17.7886C20.5062 17.6186 20.0372 17.6186 19.7473 17.7886L18.1717 18.729C17.044 19.4038 16.359 18.899 16.6541 17.6133L17.0282 15.9821C17.0967 15.6739 16.9755 15.2436 16.7542 15.0204L15.4474 13.7028C14.678 12.9271 14.9257 12.1407 16.0007 11.9601L17.6817 11.6785C17.9609 11.6307 18.2982 11.3809 18.4247 11.1206L19.3521 9.25037C19.858 8.23556 20.68 8.23556 21.1806 9.25037Z" fill="#00BA85"/>
  <path d="M35.4844 9.25037L36.4118 11.1206C36.5383 11.3809 36.8755 11.6307 37.1601 11.6785L38.8411 11.9601C39.9161 12.1407 40.1691 12.9271 39.3944 13.7028L38.0876 15.0204C37.8662 15.2436 37.745 15.6739 37.8135 15.9821L38.1877 17.6133C38.4828 18.9044 37.803 19.4038 36.67 18.729L35.0944 17.7886C34.8099 17.6186 34.3409 17.6186 34.051 17.7886L32.4754 18.729C31.3477 19.4038 30.6627 18.899 30.9578 17.6133L31.3319 15.9821C31.4004 15.6739 31.2792 15.2436 31.0579 15.0204L29.7511 13.7028C28.9817 12.9271 29.2294 12.1407 30.3044 11.9601L31.9854 11.6785C32.2647 11.6307 32.6019 11.3809 32.7284 11.1206L33.6558 9.25037C34.1617 8.23556 34.9837 8.23556 35.4844 9.25037Z" fill="#00BA85"/>
  <path d="M49.79 9.25037L50.7175 11.1206C50.8439 11.3809 51.1812 11.6307 51.4658 11.6785L53.1467 11.9601C54.2218 12.1407 54.4747 12.9271 53.7001 13.7028L52.3932 15.0204C52.1719 15.2436 52.0507 15.6739 52.1192 15.9821L52.4933 17.6133C52.7884 18.9044 52.1086 19.4038 50.9757 18.729L49.4001 17.7886C49.1155 17.6186 48.6465 17.6186 48.3567 17.7886L46.7811 18.729C45.6534 19.4038 44.9684 18.899 45.2635 17.6133L45.6376 15.9821C45.7061 15.6739 45.5849 15.2436 45.3636 15.0204L44.0567 13.7028C43.2874 12.9271 43.535 12.1407 44.61 11.9601L46.291 11.6785C46.5703 11.6307 46.9076 11.3809 47.034 11.1206L47.9615 9.25037C48.4674 8.23556 49.2894 8.23556 49.79 9.25037Z" fill="#00BA85"/>
  <path d="M64.0947 9.25037L65.0221 11.1206C65.1486 11.3809 65.4859 11.6307 65.7705 11.6785L67.4514 11.9601C68.5264 12.1407 68.7794 12.9271 68.0047 13.7028L66.6979 15.0204C66.4766 15.2436 66.3554 15.6739 66.4239 15.9821L66.798 17.6133C67.0931 18.9044 66.4133 19.4038 65.2804 18.729L63.7048 17.7886C63.4202 17.6186 62.9512 17.6186 62.6614 17.7886L61.0858 18.729C59.9581 19.4038 59.2731 18.899 59.5682 17.6133L59.9423 15.9821C60.0108 15.6739 59.8896 15.2436 59.6683 15.0204L58.3614 13.7028C57.5921 12.9271 57.8397 12.1407 58.9147 11.9601L60.5957 11.6785C60.875 11.6307 61.2123 11.3809 61.3387 11.1206L62.2662 9.25037C62.772 8.23556 63.5941 8.23556 64.0947 9.25037Z" fill="#00BA85"/>
  <path d="M78.3994 9.25037L79.3268 11.1206C79.4533 11.3809 79.7906 11.6307 80.0751 11.6785L81.7561 11.9601C82.8311 12.1407 83.0841 12.9271 82.3094 13.7028L81.0026 15.0204C80.7812 15.2436 80.6601 15.6739 80.7285 15.9821L81.1027 17.6133C81.3978 18.9044 80.718 19.4038 79.5851 18.729L78.0094 17.7886C77.7249 17.6186 77.2559 17.6186 76.9661 17.7886L75.3905 18.729C74.2628 19.4038 73.5777 18.899 73.8728 17.6133L74.247 15.9821C74.3155 15.6739 74.1943 15.2436 73.973 15.0204L72.6661 13.7028C71.8967 12.9271 72.1444 12.1407 73.2194 11.9601L74.9004 11.6785C75.1797 11.6307 75.5169 11.3809 75.6434 11.1206L76.5709 9.25037C77.0767 8.23556 77.8988 8.23556 78.3994 9.25037Z" fill="#00BA85"/>
</svg>
