<svg xmlns="http://www.w3.org/2000/svg" width="85" height="23" viewBox="0 0 85 23" fill="none">
  <path d="M0 11.4401C0 5.1219 4.47541 0 9.9961 0H74.5863C80.107 0 84.5824 5.1219 84.5824 11.4401C84.5824 17.7583 80.107 22.8802 74.5863 22.8802H9.9961C4.47541 22.8802 0 17.7583 0 11.4401Z" fill="#2F3E42"/>
  <path fill-rule="evenodd" clip-rule="evenodd" d="M74.5863 0.880006H9.9961C4.90008 0.880006 0.768931 5.60791 0.768931 11.4401C0.768931 17.2722 4.90008 22.0001 9.9961 22.0001H74.5863C79.6823 22.0001 83.8135 17.2722 83.8135 11.4401C83.8135 5.60791 79.6823 0.880006 74.5863 0.880006ZM9.9961 0C4.47541 0 0 5.1219 0 11.4401C0 17.7583 4.47541 22.8802 9.9961 22.8802H74.5863C80.107 22.8802 84.5824 17.7583 84.5824 11.4401C84.5824 5.1219 80.107 0 74.5863 0H9.9961Z" fill="#2F4650"/>
  <path d="M16.5394 7.17053L17.4016 8.90938C17.5192 9.15143 17.8328 9.3836 18.0974 9.42806L19.6603 9.68988C20.6597 9.85784 20.8949 10.5889 20.1747 11.3102L18.9597 12.5353C18.7539 12.7427 18.6412 13.1428 18.7049 13.4294L19.0528 14.9459C19.3271 16.1463 18.6951 16.6107 17.6417 15.9833L16.1768 15.109C15.9123 14.9509 15.4762 14.9509 15.2067 15.109L13.7419 15.9833C12.6934 16.6107 12.0565 16.1414 12.3308 14.9459L12.6787 13.4294C12.7424 13.1428 12.6297 12.7427 12.4239 12.5353L11.2089 11.3102C10.4936 10.5889 10.7239 9.85784 11.7233 9.68988L13.2862 9.42806C13.5459 9.3836 13.8594 9.15143 13.977 8.90938L14.8393 7.17053C15.3096 6.22701 16.0739 6.22701 16.5394 7.17053Z" fill="#00BA85"/>
  <path d="M29.8382 7.17053L30.7005 8.90938C30.8181 9.15143 31.1316 9.3836 31.3962 9.42806L32.9591 9.68988C33.9586 9.85784 34.1938 10.5889 33.4735 11.3102L32.2585 12.5353C32.0527 12.7427 31.9401 13.1428 32.0037 13.4294L32.3516 14.9459C32.6259 16.1463 31.9939 16.6107 30.9406 15.9833L29.4757 15.109C29.2111 14.9509 28.7751 14.9509 28.5056 15.109L27.0407 15.9833C25.9922 16.6107 25.3553 16.1414 25.6297 14.9459L25.9775 13.4294C26.0412 13.1428 25.9285 12.7427 25.7228 12.5353L24.5077 11.3102C23.7924 10.5889 24.0227 9.85784 25.0221 9.68988L26.585 9.42806C26.8447 9.3836 27.1583 9.15143 27.2758 8.90938L28.1381 7.17053C28.6085 6.22701 29.3728 6.22701 29.8382 7.17053Z" fill="#00BA85"/>
  <path d="M43.139 7.17053L44.0013 8.90938C44.1189 9.15143 44.4324 9.3836 44.697 9.42806L46.2599 9.68988C47.2593 9.85784 47.4945 10.5889 46.7743 11.3102L45.5593 12.5353C45.3535 12.7427 45.2408 13.1428 45.3045 13.4294L45.6524 14.9459C45.9267 16.1463 45.2947 16.6107 44.2414 15.9833L42.7764 15.109C42.5119 14.9509 42.0758 14.9509 41.8064 15.109L40.3415 15.9833C39.293 16.6107 38.6561 16.1414 38.9305 14.9459L39.2783 13.4294C39.342 13.1428 39.2293 12.7427 39.0235 12.5353L37.8085 11.3102C37.0932 10.5889 37.3235 9.85784 38.3229 9.68988L39.8858 9.42806C40.1455 9.3836 40.459 9.15143 40.5766 8.90938L41.4389 7.17053C41.9092 6.22701 42.6735 6.22701 43.139 7.17053Z" fill="#00BA85"/>
  <path d="M56.4388 7.17053L57.3011 8.90938C57.4187 9.15143 57.7322 9.3836 57.9968 9.42806L59.5597 9.68988C60.5591 9.85784 60.7943 10.5889 60.0741 11.3102L58.8591 12.5353C58.6533 12.7427 58.5406 13.1428 58.6043 13.4294L58.9522 14.9459C59.2265 16.1463 58.5945 16.6107 57.5412 15.9833L56.0762 15.109C55.8117 14.9509 55.3757 14.9509 55.1062 15.109L53.6413 15.9833C52.5928 16.6107 51.9559 16.1414 52.2303 14.9459L52.5781 13.4294C52.6418 13.1428 52.5291 12.7427 52.3233 12.5353L51.1083 11.3102C50.393 10.5889 50.6233 9.85784 51.6227 9.68988L53.1856 9.42806C53.4453 9.3836 53.7589 9.15143 53.8764 8.90938L54.7387 7.17053C55.2091 6.22701 55.9733 6.22701 56.4388 7.17053Z" fill="#00BA85"/>
  <path d="M69.7386 7.17053L70.6009 8.90938C70.7185 9.15143 71.032 9.3836 71.2966 9.42806L72.8595 9.68988C73.859 9.85784 74.0941 10.5889 73.3739 11.3102L72.1589 12.5353C71.9531 12.7427 71.8404 13.1428 71.9041 13.4294L72.252 14.9459C72.5263 16.1463 71.8943 16.6107 70.841 15.9833L69.376 15.109C69.1115 14.9509 68.6755 14.9509 68.406 15.109L66.9411 15.9833C65.8926 16.6107 65.2557 16.1414 65.5301 14.9459L65.8779 13.4294C65.9416 13.1428 65.8289 12.7427 65.6231 12.5353L64.4081 11.3102C63.6928 10.5889 63.9231 9.85784 64.9225 9.68988L66.4854 9.42806C66.7451 9.3836 67.0587 9.15143 67.1762 8.90938L68.0385 7.17053C68.5089 6.22701 69.2731 6.22701 69.7386 7.17053Z" fill="#00BA85"/>
</svg>
