<svg width="107" height="23" viewBox="0 0 107 23" fill="none" xmlns="http://www.w3.org/2000/svg">
<path d="M0 11.5C0 5.14873 5.66156 0 12.6455 0H94.3545C101.338 0 107 5.14873 107 11.5C107 17.8513 101.338 23 94.3545 23H12.6455C5.66156 23 0 17.8513 0 11.5Z" fill="#2F3E42"/>
<path fill-rule="evenodd" clip-rule="evenodd" d="M94.3545 0.884615H12.6455C6.19879 0.884615 0.972727 5.63729 0.972727 11.5C0.972727 17.3627 6.19879 22.1154 12.6455 22.1154H94.3545C100.801 22.1154 106.027 17.3627 106.027 11.5C106.027 5.63729 100.801 0.884615 94.3545 0.884615ZM12.6455 0C5.66156 0 0 5.14873 0 11.5C0 17.8513 5.66156 23 12.6455 23H94.3545C101.338 23 107 17.8513 107 11.5C107 5.14873 101.338 0 94.3545 0H12.6455Z" fill="#2F4650"/>
<path d="M17.2313 5.29732L18.4664 7.78806C18.6349 8.13478 19.084 8.46735 19.463 8.53103L21.7017 8.90605C23.1334 9.14664 23.4703 10.1939 22.4386 11.227L20.6982 12.9818C20.4034 13.279 20.242 13.8521 20.3332 14.2626L20.8315 16.4349C21.2245 18.1543 20.3192 18.8195 18.8104 17.9208L16.712 16.6684C16.333 16.442 15.7084 16.442 15.3224 16.6684L13.2241 17.9208C11.7222 18.8195 10.8099 18.1472 11.2029 16.4349L11.7012 14.2626C11.7924 13.8521 11.631 13.279 11.3362 12.9818L9.59578 11.227C8.57115 10.1939 8.901 9.14664 10.3327 8.90605L12.5714 8.53103C12.9433 8.46735 13.3925 8.13478 13.5609 7.78806L14.7961 5.29732C15.4698 3.94581 16.5646 3.94581 17.2313 5.29732Z" fill="#00BA85"/>
<path d="M36.2811 5.29732L37.5162 7.78806C37.6847 8.13478 38.1338 8.46735 38.5128 8.53103L40.7515 8.90605C42.1832 9.14664 42.5201 10.1939 41.4884 11.227L39.748 12.9818C39.4532 13.279 39.2918 13.8521 39.383 14.2626L39.8814 16.4349C40.2743 18.1543 39.369 18.8195 37.8602 17.9208L35.7618 16.6684C35.3828 16.442 34.7582 16.442 34.3722 16.6684L32.2739 17.9208C30.772 18.8195 29.8597 18.1472 30.2527 16.4349L30.751 14.2626C30.8422 13.8521 30.6808 13.279 30.386 12.9818L28.6456 11.227C27.621 10.1939 27.9508 9.14664 29.3825 8.90605L31.6212 8.53103C31.9931 8.46735 32.4423 8.13478 32.6107 7.78806L33.8459 5.29732C34.5196 3.94581 35.6144 3.94581 36.2811 5.29732Z" fill="#00BA85"/>
<path d="M55.3329 5.29732L56.568 7.78806C56.7365 8.13478 57.1856 8.46735 57.5646 8.53103L59.8033 8.90605C61.235 9.14664 61.5719 10.1939 60.5402 11.227L58.7998 12.9818C58.505 13.279 58.3436 13.8521 58.4348 14.2626L58.9331 16.4349C59.3261 18.1543 58.4207 18.8195 56.9119 17.9208L54.8135 16.6684C54.4346 16.442 53.81 16.442 53.424 16.6684L51.3256 17.9208C49.8238 18.8195 48.9114 18.1472 49.3045 16.4349L49.8027 14.2626C49.894 13.8521 49.7325 13.279 49.4378 12.9818L47.6973 11.227C46.6727 10.1939 47.0026 9.14664 48.4342 8.90605L50.673 8.53103C51.0449 8.46735 51.4941 8.13478 51.6625 7.78806L52.8976 5.29732C53.5714 3.94581 54.6661 3.94581 55.3329 5.29732Z" fill="#00BA85"/>
<path d="M74.3836 5.29732L75.6188 7.78806C75.7872 8.13478 76.2364 8.46735 76.6154 8.53103L78.8541 8.90605C80.2858 9.14664 80.6227 10.1939 79.591 11.227L77.8505 12.9818C77.5557 13.279 77.3944 13.8521 77.4856 14.2626L77.9839 16.4349C78.3769 18.1543 77.4715 18.8195 75.9627 17.9208L73.8643 16.6684C73.4854 16.442 72.8608 16.442 72.4747 16.6684L70.3764 17.9208C68.8746 18.8195 67.9622 18.1472 68.3552 16.4349L68.8535 14.2626C68.9447 13.8521 68.7833 13.279 68.4886 12.9818L66.7481 11.227C65.7235 10.1939 66.0533 9.14664 67.485 8.90605L69.7237 8.53103C70.0957 8.46735 70.5448 8.13478 70.7133 7.78806L71.9484 5.29732C72.6221 3.94581 73.7169 3.94581 74.3836 5.29732Z" fill="#00BA85"/>
<path d="M93.4344 5.29732L94.6696 7.78806C94.838 8.13478 95.2871 8.46735 95.6662 8.53103L97.9049 8.90605C99.3365 9.14664 99.6734 10.1939 98.6418 11.227L96.9013 12.9818C96.6065 13.279 96.4452 13.8521 96.5363 14.2626L97.0347 16.4349C97.4277 18.1543 96.5223 18.8195 95.0135 17.9208L92.9151 16.6684C92.5362 16.442 91.9116 16.442 91.5255 16.6684L89.4272 17.9208C87.9253 18.8195 87.013 18.1472 87.406 16.4349L87.9043 14.2626C87.9955 13.8521 87.8341 13.279 87.5394 12.9818L85.7989 11.227C84.7743 10.1939 85.1041 9.14664 86.5358 8.90605L88.7745 8.53103C89.1465 8.46735 89.5956 8.13478 89.764 7.78806L90.9992 5.29732C91.6729 3.94581 92.7677 3.94581 93.4344 5.29732Z" fill="#00BA85"/>
</svg>
