<svg xmlns="http://www.w3.org/2000/svg" width="35" height="35" viewBox="0 0 35 35" fill="none">
  <path d="M17.5 35C27.198 35 35 27.198 35 17.5C35 7.80203 27.198 0 17.5 0C7.80203 0 0 7.80203 0 17.5C0 27.198 7.80203 35 17.5 35Z" fill="#2775CA"/>
  <path d="M22.3128 20.2708C22.3128 17.7187 20.7815 16.8437 17.719 16.4792C15.5315 16.1875 15.094 15.6042 15.094 14.5833C15.094 13.5623 15.8232 12.9062 17.2815 12.9062C18.594 12.9062 19.3232 13.3437 19.6878 14.4375C19.7607 14.6562 19.9795 14.802 20.1982 14.802H21.3648C21.6565 14.802 21.8753 14.5833 21.8753 14.2917V14.2187C21.5835 12.6145 20.271 11.375 18.594 11.2292V9.4792C18.594 9.18748 18.3753 8.96873 18.0107 8.89575H16.917C16.6253 8.89575 16.4065 9.1145 16.3335 9.4792V11.1562C14.146 11.448 12.7607 12.9062 12.7607 14.7292C12.7607 17.1355 14.219 18.0833 17.2815 18.448C19.3232 18.8125 19.9795 19.25 19.9795 20.4167C19.9795 21.5834 18.9585 22.3855 17.5732 22.3855C15.6773 22.3855 15.021 21.5833 14.8023 20.4895C14.7295 20.198 14.5107 20.052 14.292 20.052H13.0523C12.7607 20.052 12.542 20.2708 12.542 20.5625V20.6355C12.8335 22.4583 14.0003 23.7708 16.4065 24.1355V25.8855C16.4065 26.177 16.6253 26.3958 16.9898 26.4687H18.0835C18.3753 26.4687 18.594 26.25 18.667 25.8855V24.1355C20.8545 23.7708 22.3128 22.2395 22.3128 20.2708Z" fill="white"/>
  <path fill-rule="evenodd" clip-rule="evenodd" d="M7.29217 13.927C5.17747 19.5417 8.09419 25.8855 13.7817 27.927C14.0004 28.073 14.2192 28.3645 14.2192 28.5833V29.6042C14.2192 29.75 14.2192 29.823 14.1462 29.8958C14.0734 30.1875 13.7817 30.3333 13.49 30.1875C9.40669 28.875 6.27122 25.7395 4.95872 21.6563C2.77122 14.7292 6.56294 7.36455 13.49 5.17705C13.5629 5.10425 13.7087 5.10425 13.7817 5.10425C14.0734 5.17705 14.2192 5.3958 14.2192 5.68752V6.7083C14.2192 7.073 14.0734 7.29175 13.7817 7.43752C10.7922 8.53127 8.38592 10.8645 7.29217 13.927ZM20.8547 5.46877C20.9275 5.17705 21.2192 5.03127 21.5109 5.17705C25.5212 6.48955 28.7297 9.62502 30.0422 13.7813C32.2297 20.7083 28.4379 28.073 21.5109 30.2605C21.4379 30.3333 21.2922 30.3333 21.2192 30.3333C20.9275 30.2605 20.7817 30.0417 20.7817 29.75V28.7292C20.7817 28.3645 20.9275 28.1458 21.2192 28C24.2087 26.9063 26.615 24.573 27.7087 21.5105C29.8234 15.8958 26.9067 9.55205 21.2192 7.5105C21.0004 7.36455 20.7817 7.073 20.7817 6.78127V5.7605C20.7817 5.61455 20.7817 5.54175 20.8547 5.46877Z" fill="white"/>
</svg>
