<svg xmlns="http://www.w3.org/2000/svg" width="35" height="35" viewBox="0 0 35 35" fill="none">
  <path d="M34.4725 21.7333C32.1352 31.1084 22.6398 36.8139 13.2636 34.4761C3.89132 32.1388 -1.81418 22.6428 0.524099 13.2685C2.86032 3.89233 12.3558 -1.81359 21.7291 0.52366C31.1046 2.86091 36.8097 12.358 34.4722 21.7335L34.4724 21.7333H34.4725Z" fill="#50AF95"/>
  <path fill-rule="evenodd" clip-rule="evenodd" d="M19.7145 19.484C19.5908 19.4933 18.9514 19.5315 17.5253 19.5315C16.391 19.5315 15.5857 19.4974 15.3031 19.484C10.9196 19.2912 7.64771 18.5281 7.64771 17.6145C7.64771 16.7009 10.9196 15.9389 15.3031 15.7429V18.7241C15.5898 18.7447 16.4106 18.7931 17.5449 18.7931C18.9061 18.7931 19.5877 18.7364 19.7104 18.7251V15.745C24.0846 15.9399 27.3493 16.703 27.3493 17.6145C27.3493 18.5261 24.0857 19.2891 19.7104 19.483L19.7145 19.484ZM19.7145 15.4367V12.769H25.8191V8.70105H9.1986V12.769H15.3021V15.4356C10.3411 15.6635 6.61035 16.6462 6.61035 17.8238C6.61035 19.0014 10.3411 19.9831 15.3021 20.212V28.7605H19.7135V20.2089C24.6631 19.9811 28.3877 18.9994 28.3877 17.8228C28.3877 16.6462 24.6662 15.6646 19.7135 15.4356L19.7145 15.4367Z" fill="white"/>
</svg>
