<svg xmlns="http://www.w3.org/2000/svg" width="38" height="16" viewBox="0 0 38 16" fill="none">
  <defs>
    
<linearGradient id="paint0_linear_298_22583" x1="29" y1="0.115922" x2="0.408844" y2="0.11592" gradientUnits="userSpaceOnUse">
<stop stop-color="#00BA85"/>
<stop offset="1" stop-color="#0052B4"/>
</linearGradient>

    
<linearGradient id="paint0_linear_298_22585" x1="0" y1="1.16129" x2="38.5934" y2="1.16129" gradientUnits="userSpaceOnUse">
<stop stop-color="#00BA85"/>
<stop offset="1" stop-color="#0052B4"/>
</linearGradient>

    
<linearGradient id="paint0_linear_298_22584" x1="29" y1="0.113928" x2="0.408844" y2="0.113925" gradientUnits="userSpaceOnUse">
<stop stop-color="#00BA85"/>
<stop offset="1" stop-color="#0052B4"/>
</linearGradient>

    <style>
      .animated-dash {
        animation: pulse-dash 1.8s ease-in-out infinite;
      }
      @keyframes pulse-dash {
        0% { opacity: 0.3; }
        50% { opacity: 1; }
        100% { opacity: 0.3; }
      }
    </style>
  </defs>

  <!-- Top Line -->
  <g transform="translate(5, 0)">
    <path class="animated-dash" d="M28.8979 0.626479L28.8628 1.03342L28.8803 1.03492L28.8979 1.03492L28.8979 0.626479ZM28.6959 0.609086L28.6609 1.01602L28.6959 0.609086ZM28.2652 0.593262L28.2833 1.00131L28.2652 0.593262ZM28.0193 0.604175L28.0374 1.01222L28.0193 0.604175ZM27.6934 0.557305L27.8221 0.169663L27.6934 0.557305ZM27.4475 0.475676L27.5762 0.0880343L27.4475 0.475676ZM27.1216 0.41651L27.1342 0.00826217L27.1216 0.41651ZM24.0166 0.733608L24.2625 1.05973L24.0166 0.733608ZM19.6879 0.815351L19.84 0.436295L19.6879 0.815351ZM18.4213 0.80252L18.4927 0.400375L18.4213 0.80252ZM16.8287 0.75187L16.8 1.1593L16.8287 0.75187ZM16.5829 0.734495L16.6117 0.327066L16.5829 0.734495ZM16.2569 0.705411L16.3007 0.299319L16.2569 0.705411ZM16.011 0.678907L15.9673 1.085L16.011 0.678907ZM15.6851 0.594839L15.5308 0.973012V0.973012L15.6851 0.594839ZM15.5622 0.544673L15.7165 0.1665V0.1665L15.5622 0.544673ZM14.5415 0.484491L14.5157 0.0768568L14.5415 0.484491ZM12.2542 0.464728L12.4234 0.836471L12.2542 0.464728ZM11.4365 0.515548L11.5648 0.12778L11.4365 0.515548ZM10.4157 0.563957L10.2996 0.172378L10.4157 0.563957ZM10.2928 0.600427L10.409 0.992006L10.2928 0.600427ZM3.55387 0.788463L3.67011 0.396908V0.396908L3.55387 0.788463ZM3.43093 0.751965L3.31469 1.14352V1.14352L3.43093 0.751965ZM2.41022 0.809751L2.45008 1.21625L2.41022 0.809751ZM1.14364 0.726821L1.16025 0.318714L1.14364 0.726821ZM0.408844 0.527393L0.00039927 0.527393L0.000399256 0.700189L0.12441 0.820522L0.408844 0.527393ZM0.510956 0.626476L0.510956 1.03492L1.51841 1.03492L0.79539 0.333348L0.510956 0.626476ZM29 0.626479L29 0.218033L28.8979 0.218033L28.8979 0.626479L28.8979 1.03492L29 1.03492L29 0.626479ZM28.8979 0.626479L28.9329 0.21954L28.731 0.202146L28.6959 0.609086L28.6609 1.01602L28.8628 1.03342L28.8979 0.626479ZM28.6959 0.609086L28.731 0.202146C28.5445 0.186092 28.3811 0.179272 28.2471 0.185219L28.2652 0.593262L28.2833 1.00131C28.3666 0.997609 28.4903 1.00134 28.6609 1.01602L28.6959 0.609086ZM28.2652 0.593262L28.2471 0.185219L28.1242 0.190675L28.1423 0.598719L28.1604 1.00676L28.2833 1.00131L28.2652 0.593262ZM28.1423 0.598719L28.1242 0.190675L28.0012 0.196131L28.0193 0.604175L28.0374 1.01222L28.1604 1.00676L28.1423 0.598719ZM28.0193 0.604175L28.0012 0.196131C27.9449 0.19863 27.886 0.190871 27.8221 0.169663L27.6934 0.557305L27.5647 0.944947C27.7181 0.995875 27.8764 1.01936 28.0374 1.01222L28.0193 0.604175ZM27.6934 0.557305L27.8221 0.169663L27.6991 0.128849L27.5704 0.516491L27.4418 0.904133L27.5647 0.944947L27.6934 0.557305ZM27.5704 0.516491L27.6991 0.128849L27.5762 0.0880343L27.4475 0.475676L27.3188 0.863319L27.4418 0.904133L27.5704 0.516491ZM27.4475 0.475676L27.5762 0.0880343C27.4321 0.0401898 27.2844 0.0129277 27.1342 0.00826217L27.1216 0.41651L27.1089 0.824758C27.176 0.826844 27.2456 0.839026 27.3188 0.863319L27.4475 0.475676ZM27.1216 0.41651L27.1342 0.00826217L27.0113 0.00444215L26.9986 0.41269L26.9859 0.820938L27.1089 0.824758L27.1216 0.41651ZM26.9986 0.41269L27.0113 0.00444215L26.8884 0.000622191L26.8757 0.40887L26.863 0.817118L26.9859 0.820938L26.9986 0.41269ZM26.8757 0.40887L26.8884 0.000622191C26.7315 -0.00425143 26.577 0.0183434 26.4266 0.0659033L26.5497 0.455341L26.6729 0.844779C26.7398 0.823626 26.8026 0.81524 26.863 0.817118L26.8757 0.40887ZM26.5497 0.455341L26.4266 0.0659033L26.3036 0.10478L26.4268 0.494218L26.5499 0.883656L26.6729 0.844779L26.5497 0.455341ZM26.4268 0.494218L26.3036 0.10478L26.1807 0.143657L26.3039 0.533095L26.427 0.922533L26.5499 0.883656L26.4268 0.494218ZM26.3039 0.533095L26.1807 0.143657C26.0647 0.180332 25.949 0.220544 25.8334 0.264266L25.9779 0.646286L26.1224 1.0283C26.2242 0.989819 26.3257 0.954571 26.427 0.922533L26.3039 0.533095ZM25.9779 0.646286L25.8334 0.264266L25.7104 0.310779L25.855 0.692798L25.9995 1.07482L26.1224 1.0283L25.9779 0.646286ZM25.855 0.692798L25.7104 0.310779L25.5875 0.357291L25.732 0.73931L25.8766 1.12133L25.9995 1.07482L25.855 0.692798ZM25.732 0.73931L25.5875 0.357291C25.5466 0.372761 25.5154 0.373974 25.4854 0.368033L25.4061 0.7687L25.3268 1.16937C25.514 1.20645 25.7002 1.18807 25.8766 1.12133L25.732 0.73931ZM25.4061 0.7687L25.4854 0.368033L25.3625 0.343691L25.2831 0.744359L25.2038 1.14503L25.3268 1.16937L25.4061 0.7687ZM25.2831 0.744359L25.3625 0.343691L25.2395 0.31935L25.1602 0.720017L25.0809 1.12068L25.2038 1.14503L25.2831 0.744359ZM25.1602 0.720017L25.2395 0.31935C25.1647 0.304525 25.0865 0.279302 25.0046 0.24174L24.8343 0.612957L24.6639 0.984174C24.7993 1.04634 24.9385 1.09249 25.0809 1.12068L25.1602 0.720017ZM24.8343 0.612957L25.0046 0.24174L24.8817 0.185316L24.7113 0.556533L24.541 0.927751L24.6639 0.984174L24.8343 0.612957ZM24.7113 0.556533L24.8817 0.185316L24.7588 0.128893L24.5884 0.50011L24.418 0.871327L24.541 0.927751L24.7113 0.556533ZM24.5884 0.50011L24.7588 0.128893C24.4921 0.00651059 24.2249 0.0649402 24.0165 0.222079L24.2624 0.548202L24.5084 0.874324C24.521 0.864824 24.5127 0.874727 24.485 0.878806C24.4715 0.880798 24.4574 0.880729 24.4441 0.878651C24.431 0.876613 24.4221 0.873192 24.418 0.871327L24.5884 0.50011ZM24.2624 0.548202L24.0165 0.222079L23.8936 0.314783L24.1395 0.640905L24.3854 0.967027L24.5084 0.874324L24.2624 0.548202ZM24.1395 0.640905L23.8936 0.314783L23.7707 0.407486L24.0166 0.733608L24.2625 1.05973L24.3854 0.967027L24.1395 0.640905ZM24.0166 0.733608L23.7707 0.407486C23.7672 0.410069 23.7935 0.389775 23.8441 0.388603C23.8678 0.388055 23.8886 0.392089 23.9044 0.397501C23.9195 0.402662 23.9268 0.407939 23.9266 0.40776L23.6906 0.741158L23.4547 1.07456C23.5642 1.15207 23.7028 1.20899 23.8631 1.20527C24.0223 1.20159 24.1573 1.13907 24.2625 1.05973L24.0166 0.733608ZM23.6906 0.741158L23.9266 0.40776L23.8036 0.320752L23.5677 0.65415L23.3317 0.987549L23.4547 1.07456L23.6906 0.741158ZM23.5677 0.65415L23.8036 0.320752L23.6807 0.233744L23.4447 0.567143L23.2088 0.900541L23.3317 0.987549L23.5677 0.65415ZM23.4447 0.567143L23.6807 0.233744C23.5722 0.15699 23.4355 0.100237 23.2774 0.10192C23.1197 0.1036 22.9847 0.162927 22.8782 0.240563L23.1188 0.570614L23.3594 0.900664C23.3616 0.899096 23.3352 0.918242 23.2861 0.918764C23.2366 0.919291 23.2086 0.900404 23.2088 0.900541L23.4447 0.567143ZM23.1188 0.570614L22.8782 0.240563L22.7552 0.330189L22.9959 0.66024L23.2365 0.990291L23.3594 0.900664L23.1188 0.570614ZM22.9959 0.66024L22.7552 0.330189L22.6323 0.419815L22.8729 0.749866L23.1135 1.07992L23.2365 0.990291L22.9959 0.66024ZM22.8729 0.749866L22.6323 0.419815C22.6107 0.435593 22.601 0.437664 22.6032 0.437059C22.6044 0.436753 22.6073 0.436116 22.6116 0.43594C22.6158 0.435764 22.6196 0.436129 22.6223 0.436643L22.547 0.838074L22.4716 1.2395C22.7143 1.28507 22.9351 1.21002 23.1135 1.07992L22.8729 0.749866ZM22.547 0.838074L22.6223 0.436643L22.4994 0.41356L22.424 0.81499L22.3487 1.21642L22.4716 1.2395L22.547 0.838074ZM22.424 0.81499L22.4994 0.41356L22.3765 0.390476L22.3011 0.791907L22.2257 1.19334L22.3487 1.21642L22.424 0.81499ZM22.3011 0.791907L22.3765 0.390476C22.3089 0.377796 22.2365 0.353609 22.1586 0.314452L21.9752 0.679366L21.7917 1.04428C21.9311 1.11438 22.076 1.16522 22.2257 1.19334L22.3011 0.791907ZM21.9752 0.679366L22.1586 0.314452L22.0357 0.252636L21.8522 0.617551L21.6687 0.982465L21.7917 1.04428L21.9752 0.679366ZM21.8522 0.617551L22.0357 0.252636L21.9127 0.190821L21.7293 0.555735L21.5458 0.92065L21.6687 0.982465L21.8522 0.617551ZM21.7293 0.555735L21.9127 0.190821C21.7221 0.0949814 21.5105 0.0657625 21.2967 0.123618L21.4033 0.517887L21.51 0.912156C21.5157 0.910604 21.5179 0.910871 21.5192 0.911022C21.521 0.911233 21.5294 0.912425 21.5458 0.92065L21.7293 0.555735ZM21.4033 0.517887L21.2967 0.123618L21.1737 0.156881L21.2804 0.55115L21.3871 0.945419L21.51 0.912156L21.4033 0.517887ZM21.2804 0.55115L21.1737 0.156881L21.0508 0.190145L21.1574 0.584414L21.2641 0.978683L21.3871 0.945419L21.2804 0.55115ZM21.1574 0.584414L21.0508 0.190145C21.0388 0.193393 21.0268 0.19528 20.9988 0.182724L20.8315 0.555331L20.6642 0.927938C20.8535 1.01295 21.0588 1.03423 21.2641 0.978683L21.1574 0.584414ZM20.8315 0.555331L20.9988 0.182724L20.8759 0.127521L20.7086 0.500128L20.5413 0.872735L20.6642 0.927938L20.8315 0.555331ZM20.7086 0.500128L20.8759 0.127521L20.7529 0.0723185L20.5856 0.444926L20.4183 0.817533L20.5413 0.872735L20.7086 0.500128ZM20.5856 0.444926L20.7529 0.0723185C20.6245 0.0146674 20.4809 -0.00480032 20.3347 0.0274526C20.1943 0.0584084 20.079 0.130793 19.9881 0.211733L20.2597 0.516817L20.5313 0.821902C20.549 0.80613 20.5423 0.818177 20.5106 0.825169C20.4945 0.828729 20.4763 0.829895 20.4578 0.827784C20.4396 0.825708 20.4261 0.821037 20.4183 0.817533L20.5856 0.444926ZM20.2597 0.516817L19.9881 0.211733L19.8652 0.321169L20.1367 0.626254L20.4083 0.931339L20.5313 0.821902L20.2597 0.516817ZM20.1367 0.626254L19.8652 0.321169L19.7422 0.430606L20.0138 0.735691L20.2854 1.04078L20.4083 0.931339L20.1367 0.626254ZM20.0138 0.735691L19.7422 0.430606C19.7232 0.447509 19.7268 0.437982 19.7539 0.431373C19.7677 0.427984 19.7841 0.426355 19.8013 0.427707C19.8183 0.429044 19.8316 0.432926 19.84 0.436295L19.6879 0.815351L19.5357 1.19441C19.8258 1.31082 20.0947 1.21054 20.2854 1.04078L20.0138 0.735691ZM19.6879 0.815351L19.84 0.436295L19.7171 0.386953L19.5649 0.766009L19.4128 1.14507L19.5357 1.19441L19.6879 0.815351ZM19.5649 0.766009L19.7171 0.386953L19.5941 0.337611L19.442 0.716667L19.2898 1.09572L19.4128 1.14507L19.5649 0.766009ZM19.442 0.716667L19.5941 0.337611C19.3949 0.257676 19.1838 0.251691 18.98 0.323742L19.116 0.70885L19.2521 1.09396C19.2625 1.0903 19.2675 1.09029 19.2692 1.09034C19.2711 1.09038 19.2773 1.0907 19.2898 1.09572L19.442 0.716667ZM19.116 0.70885L18.98 0.323742L18.857 0.367187L18.9931 0.752294L19.1292 1.1374L19.2521 1.09396L19.116 0.70885ZM18.9931 0.752294L18.857 0.367187L18.7341 0.410631L18.8702 0.795739L19.0062 1.18085L19.1292 1.1374L18.9931 0.752294ZM18.8702 0.795739L18.7341 0.410631C18.6889 0.426589 18.6517 0.428624 18.6157 0.422223L18.5442 0.824367L18.4728 1.22651C18.654 1.25872 18.8341 1.24167 19.0062 1.18085L18.8702 0.795739ZM18.5442 0.824367L18.6157 0.422223L18.4927 0.400375L18.4213 0.80252L18.3498 1.20467L18.4728 1.22651L18.5442 0.824367ZM18.4213 0.80252L18.4927 0.400375L18.3698 0.378528L18.2983 0.780673L18.2269 1.18282L18.3498 1.20467L18.4213 0.80252ZM18.2983 0.780673L18.3698 0.378528C18.2346 0.354499 18.0985 0.344069 17.9621 0.347526L17.9724 0.75584L17.9827 1.16415C18.0636 1.16211 18.1448 1.16823 18.2269 1.18282L18.2983 0.780673ZM17.9724 0.75584L17.9621 0.347526L17.8391 0.350639L17.8494 0.758953L17.8598 1.16727L17.9827 1.16415L17.9724 0.75584ZM17.8494 0.758953L17.8391 0.350639L17.7162 0.353752L17.7265 0.762067L17.7368 1.17038L17.8598 1.16727L17.8494 0.758953ZM17.7265 0.762067L17.7162 0.353752C17.6116 0.3564 17.5071 0.357467 17.4026 0.356954L17.4006 0.765394L17.3986 1.17383C17.5113 1.17439 17.6241 1.17324 17.7368 1.17038L17.7265 0.762067ZM17.4006 0.765394L17.4026 0.356954L17.2796 0.35635L17.2776 0.76479L17.2756 1.17323L17.3986 1.17383L17.4006 0.765394ZM17.2776 0.76479L17.2796 0.35635L17.1567 0.355747L17.1547 0.764187L17.1527 1.17263L17.2756 1.17323L17.2776 0.76479ZM17.1547 0.764187L17.1567 0.355747C17.057 0.355257 16.9573 0.351491 16.8575 0.344441L16.8287 0.75187L16.8 1.1593C16.9175 1.16761 17.0351 1.17205 17.1527 1.17263L17.1547 0.764187ZM16.8287 0.75187L16.8575 0.344441L16.7346 0.335754L16.7058 0.743183L16.677 1.15061L16.8 1.1593L16.8287 0.75187ZM16.7058 0.743183L16.7346 0.335754L16.6117 0.327066L16.5829 0.734495L16.5541 1.14192L16.677 1.15061L16.7058 0.743183ZM16.5829 0.734495L16.6117 0.327066C16.508 0.319743 16.4044 0.310494 16.3007 0.299319L16.2569 0.705411L16.2131 1.1115C16.3268 1.12375 16.4404 1.13389 16.5541 1.14192L16.5829 0.734495ZM16.2569 0.705411L16.3007 0.299319L16.1778 0.286066L16.134 0.692159L16.0902 1.09825L16.2131 1.1115L16.2569 0.705411ZM16.134 0.692159L16.1778 0.286066L16.0548 0.272814L16.011 0.678907L15.9673 1.085L16.0902 1.09825L16.134 0.692159ZM16.011 0.678907L16.0548 0.272814C15.9868 0.265486 15.9153 0.247632 15.8394 0.216667L15.6851 0.594839L15.5308 0.973012C15.6722 1.03071 15.818 1.0689 15.9673 1.085L16.011 0.678907ZM15.6851 0.594839L15.8394 0.216667L15.7165 0.1665L15.5622 0.544673L15.4078 0.922845L15.5308 0.973012L15.6851 0.594839ZM15.5622 0.544673L15.7165 0.1665L15.5935 0.116333L15.4392 0.494506L15.2849 0.872678L15.4078 0.922845L15.5622 0.544673ZM15.4392 0.494506L15.5935 0.116333C15.4302 0.0497066 15.2576 0.0197321 15.0804 0.0340548L15.1133 0.441173L15.1462 0.848292C15.1862 0.845058 15.2309 0.850638 15.2849 0.872678L15.4392 0.494506ZM15.1133 0.441173L15.0804 0.0340548L14.9574 0.0439882L14.9903 0.451107L15.0232 0.858225L15.1462 0.848292L15.1133 0.441173ZM14.9903 0.451107L14.9574 0.0439882L14.8345 0.0539215L14.8674 0.46104L14.9003 0.868158L15.0232 0.858225L14.9903 0.451107ZM14.8674 0.46104L14.8345 0.0539215C14.7282 0.0625071 14.622 0.0701521 14.5157 0.0768568L14.5415 0.484491L14.5672 0.892125C14.6782 0.885118 14.7893 0.877129 14.9003 0.868158L14.8674 0.46104ZM14.5415 0.484491L14.5157 0.0768568L14.3928 0.0846147L14.4185 0.492249L14.4442 0.899883L14.5672 0.892125L14.5415 0.484491ZM14.4185 0.492249L14.3928 0.0846147L14.2698 0.0923726L14.2956 0.500007L14.3213 0.907641L14.4442 0.899883L14.4185 0.492249ZM14.2956 0.500007L14.2698 0.0923726C14.0837 0.104118 13.9111 0.167005 13.7553 0.263042L13.9696 0.610743L14.1839 0.958443C14.2454 0.920545 14.2901 0.909608 14.3213 0.907641L14.2956 0.500007ZM13.9696 0.610743L13.7553 0.263042L13.6324 0.338822L13.8467 0.686522L14.061 1.03422L14.1839 0.958443L13.9696 0.610743ZM13.8467 0.686522L13.6324 0.338822L13.5094 0.414601L13.7237 0.762302L13.9381 1.11L14.061 1.03422L13.8467 0.686522ZM13.7237 0.762302L13.5094 0.414601C13.4979 0.421711 13.5006 0.41737 13.5154 0.415712C13.5224 0.414934 13.5296 0.415061 13.5362 0.415988C13.5426 0.416898 13.5465 0.418283 13.5472 0.418566L13.3978 0.798716L13.2484 1.17887C13.489 1.2734 13.7318 1.23712 13.9381 1.11L13.7237 0.762302ZM13.3978 0.798716L13.5472 0.418566L13.4242 0.370258L13.2749 0.750408L13.1255 1.13056L13.2484 1.17887L13.3978 0.798716ZM13.2749 0.750408L13.4242 0.370258L13.3013 0.321949L13.1519 0.702099L13.0025 1.08225L13.1255 1.13056L13.2749 0.750408ZM13.1519 0.702099L13.3013 0.321949C13.197 0.28098 13.0927 0.237894 12.9882 0.192684L12.826 0.56752L12.6637 0.942356C12.7766 0.991203 12.8895 1.03784 13.0025 1.08225L13.1519 0.702099ZM12.826 0.56752L12.9882 0.192684L12.8653 0.139467L12.703 0.514303L12.5408 0.889139L12.6637 0.942356L12.826 0.56752ZM12.703 0.514303L12.8653 0.139467L12.7423 0.0862509L12.5801 0.461087L12.4178 0.835923L12.5408 0.889139L12.703 0.514303ZM12.5801 0.461087L12.7423 0.0862509C12.5267 -0.00707764 12.2977 -0.00385076 12.0849 0.092985L12.2542 0.464728L12.4234 0.836471C12.4277 0.834514 12.4293 0.834249 12.4284 0.834455C12.4274 0.834685 12.425 0.835108 12.4217 0.835146C12.4184 0.835183 12.4157 0.834814 12.4143 0.834519C12.413 0.834245 12.4141 0.834317 12.4178 0.835923L12.5801 0.461087ZM12.2542 0.464728L12.0849 0.092985L11.962 0.148948L12.1312 0.520691L12.3004 0.892434L12.4234 0.836471L12.2542 0.464728ZM12.1312 0.520691L11.962 0.148948L11.8391 0.204911L12.0083 0.576654L12.1775 0.948397L12.3004 0.892434L12.1312 0.520691ZM12.0083 0.576654L11.8391 0.204911C11.8321 0.208071 11.8273 0.209584 11.8245 0.210309C11.8218 0.211018 11.8204 0.211127 11.82 0.211152C11.8196 0.211174 11.8191 0.211186 11.8182 0.211061C11.8172 0.21093 11.8148 0.21052 11.8106 0.209144L11.6823 0.596911L11.554 0.984678C11.7649 1.05445 11.9797 1.03845 12.1775 0.948397L12.0083 0.576654ZM11.6823 0.596911L11.8106 0.209144L11.6877 0.168462L11.5594 0.556229L11.4311 0.943996L11.554 0.984678L11.6823 0.596911ZM11.5594 0.556229L11.6877 0.168462L11.5648 0.12778L11.4365 0.515548L11.3081 0.903315L11.4311 0.943996L11.5594 0.556229ZM11.4365 0.515548L11.5648 0.12778C11.4132 0.0776139 11.2569 0.0534916 11.098 0.0583613L11.1105 0.466615L11.123 0.874868C11.1814 0.873079 11.2425 0.881579 11.3081 0.903315L11.4365 0.515548ZM11.1105 0.466615L11.098 0.0583613L10.9751 0.0621288L10.9876 0.470382L11.0001 0.878636L11.123 0.874868L11.1105 0.466615ZM10.9876 0.470382L10.9751 0.0621288L10.8521 0.0658963L10.8646 0.47415L10.8771 0.882403L11.0001 0.878636L10.9876 0.470382ZM10.8646 0.47415L10.8521 0.0658963C10.7069 0.070347 10.5634 0.0941118 10.4225 0.135908L10.5387 0.527487L10.6549 0.919067C10.7312 0.896405 10.8051 0.884611 10.8771 0.882403L10.8646 0.47415ZM10.5387 0.527487L10.4225 0.135908L10.2996 0.172378L10.4157 0.563957L10.5319 0.955537L10.6549 0.919067L10.5387 0.527487ZM10.4157 0.563957L10.2996 0.172378L10.1766 0.208847L10.2928 0.600427L10.409 0.992006L10.5319 0.955537L10.4157 0.563957ZM10.2928 0.600427L10.1766 0.208847C10.0735 0.239436 9.97051 0.267619 9.8676 0.293407L9.96687 0.689605L10.0661 1.0858C10.1805 1.05714 10.2948 1.02588 10.409 0.992006L10.2928 0.600427ZM9.96687 0.689605L9.8676 0.293407L9.74465 0.324212L9.84393 0.720409L9.9432 1.11661L10.0661 1.0858L9.96687 0.689605ZM9.84393 0.720409L9.74465 0.324212L9.62171 0.355016L9.72098 0.751214L9.82026 1.14741L9.9432 1.11661L9.84393 0.720409ZM9.72098 0.751214L9.62171 0.355016C9.60369 0.359532 9.58549 0.360326 9.55383 0.346967L9.39504 0.723284L9.23626 1.0996C9.42189 1.17793 9.62098 1.19734 9.82026 1.14741L9.72098 0.751214ZM9.39504 0.723284L9.55383 0.346967L9.43089 0.295092L9.2721 0.671409L9.11332 1.04773L9.23626 1.0996L9.39504 0.723284ZM9.2721 0.671409L9.43089 0.295092L9.30794 0.243217L9.14916 0.619535L8.99038 0.995852L9.11332 1.04773L9.2721 0.671409ZM9.14916 0.619535L9.30794 0.243217C9.13959 0.17218 8.96022 0.142598 8.77612 0.163971L8.82322 0.569691L8.87032 0.975411C8.90352 0.971557 8.94144 0.975204 8.99038 0.995852L9.14916 0.619535ZM8.82322 0.569691L8.77612 0.163971L8.65318 0.178245L8.70028 0.583965L8.74738 0.989684L8.87032 0.975411L8.82322 0.569691ZM8.70028 0.583965L8.65318 0.178245L8.53024 0.192518L8.57734 0.598238L8.62444 1.00396L8.74738 0.989684L8.70028 0.583965ZM8.57734 0.598238L8.53024 0.192518C8.42739 0.204458 8.32457 0.214162 8.2218 0.221631L8.2514 0.629002L8.281 1.03637C8.39552 1.02805 8.51 1.01724 8.62444 1.00396L8.57734 0.598238ZM8.2514 0.629002L8.2218 0.221631L8.09885 0.230565L8.12846 0.637936L8.15806 1.04531L8.281 1.03637L8.2514 0.629002ZM8.12846 0.637936L8.09885 0.230565L7.97591 0.2395L8.00552 0.646871L8.03512 1.05424L8.15806 1.04531L8.12846 0.637936ZM8.00552 0.646871L7.97591 0.2395C7.94317 0.241879 7.90354 0.236769 7.85142 0.212597L7.67958 0.583131L7.50773 0.953665C7.6729 1.03027 7.85057 1.06765 8.03512 1.05424L8.00552 0.646871ZM7.67958 0.583131L7.85142 0.212597L7.72848 0.155578L7.55663 0.526112L7.38478 0.896646L7.50773 0.953665L7.67958 0.583131ZM7.55663 0.526112L7.72848 0.155578L7.60554 0.098559L7.43369 0.469093L7.26184 0.839627L7.38478 0.896646L7.55663 0.526112ZM7.43369 0.469093L7.60554 0.098559C7.40697 0.00646587 7.19056 -0.0103747 6.97811 0.060729L7.10775 0.448055L7.23739 0.835382C7.24126 0.834086 7.24335 0.833761 7.24391 0.833685C7.24409 0.833661 7.2442 0.83365 7.24427 0.833644C7.24433 0.833638 7.24437 0.833637 7.24437 0.833637C7.24438 0.833637 7.24438 0.833637 7.24437 0.833637C7.24437 0.833637 7.24438 0.833637 7.24441 0.833639C7.24446 0.833642 7.24472 0.83366 7.24522 0.833743C7.24573 0.833826 7.2466 0.833994 7.24789 0.834333C7.25041 0.834999 7.25502 0.836462 7.26184 0.839627L7.43369 0.469093ZM7.10775 0.448055L6.97811 0.060729L6.85517 0.101877L6.98481 0.489204L7.11445 0.87653L7.23739 0.835382L7.10775 0.448055ZM6.98481 0.489204L6.85517 0.101877L6.73223 0.143025L6.86187 0.530352L6.9915 0.917678L7.11445 0.87653L6.98481 0.489204ZM6.86187 0.530352L6.73223 0.143025C6.68716 0.15811 6.64911 0.159908 6.61148 0.152826L6.53593 0.554222L6.46038 0.955619C6.64004 0.989436 6.81928 0.975321 6.9915 0.917678L6.86187 0.530352ZM6.53593 0.554222L6.61148 0.152826L6.48854 0.129685L6.41299 0.531082L6.33743 0.932478L6.46038 0.955619L6.53593 0.554222ZM6.41299 0.531082L6.48854 0.129685L6.3656 0.106544L6.29004 0.507941L6.21449 0.909338L6.33743 0.932478L6.41299 0.531082ZM6.29004 0.507941L6.3656 0.106544C6.17844 0.0713166 5.99297 0.0912324 5.81749 0.158722L5.9641 0.539944L6.11072 0.921167C6.15254 0.905086 6.18436 0.903666 6.21449 0.909338L6.29004 0.507941ZM5.9641 0.539944L5.81749 0.158722L5.69454 0.206005L5.84116 0.587228L5.98778 0.96845L6.11072 0.921167L5.9641 0.539944ZM5.84116 0.587228L5.69454 0.206005L5.5716 0.253289L5.71822 0.634511L5.86484 1.01573L5.98778 0.96845L5.84116 0.587228ZM5.71822 0.634511L5.5716 0.253289C5.55284 0.260505 5.54456 0.260081 5.52868 0.254455L5.39228 0.639453L5.25588 1.02445C5.4573 1.09581 5.66631 1.09209 5.86484 1.01573L5.71822 0.634511ZM5.39228 0.639453L5.52868 0.254455L5.40574 0.210899L5.26934 0.595897L5.13294 0.980894L5.25588 1.02445L5.39228 0.639453ZM5.26934 0.595897L5.40574 0.210899L5.28279 0.167343L5.1464 0.552341L5.01 0.937338L5.13294 0.980894L5.26934 0.595897ZM5.1464 0.552341L5.28279 0.167343C5.0913 0.0995004 4.89139 0.0952939 4.69692 0.157006L4.82046 0.546319L4.944 0.935633C4.96682 0.928391 4.9842 0.928198 5.01 0.937338L5.1464 0.552341ZM4.82046 0.546319L4.69692 0.157006L4.57397 0.19602L4.69752 0.585333L4.82106 0.974646L4.944 0.935633L4.82046 0.546319ZM4.69752 0.585333L4.57397 0.19602L4.45103 0.235033L4.57457 0.624346L4.69812 1.01366L4.82106 0.974646L4.69752 0.585333ZM4.57457 0.624346L4.45103 0.235033C4.33912 0.270546 4.22725 0.307594 4.11543 0.346175L4.24864 0.732287L4.38185 1.1184C4.48731 1.08201 4.59273 1.0471 4.69812 1.01366L4.57457 0.624346ZM4.24864 0.732287L4.11543 0.346175L3.99248 0.38859L4.12569 0.774702L4.2589 1.16081L4.38185 1.1184L4.24864 0.732287ZM4.12569 0.774702L3.99248 0.38859L3.86954 0.431005L4.00275 0.817118L4.13596 1.20323L4.2589 1.16081L4.12569 0.774702ZM4.00275 0.817118L3.86954 0.431005C3.84023 0.44112 3.81879 0.441047 3.79305 0.433406L3.67681 0.824961L3.56057 1.21652C3.75213 1.27338 3.94799 1.26808 4.13596 1.20323L4.00275 0.817118ZM3.67681 0.824961L3.79305 0.433406L3.67011 0.396908L3.55387 0.788463L3.43763 1.18002L3.56057 1.21652L3.67681 0.824961ZM3.55387 0.788463L3.67011 0.396908L3.54717 0.36041L3.43093 0.751965L3.31469 1.14352L3.43763 1.18002L3.55387 0.788463ZM3.43093 0.751965L3.54717 0.36041C3.38484 0.312219 3.21775 0.298205 3.04969 0.321168L3.10499 0.725852L3.16028 1.13054C3.20952 1.12381 3.25973 1.1272 3.31469 1.14352L3.43093 0.751965ZM3.10499 0.725852L3.04969 0.321168L2.92675 0.337967L2.98205 0.742651L3.03734 1.14734L3.16028 1.13054L3.10499 0.725852ZM2.98205 0.742651L2.92675 0.337967L2.80381 0.354765L2.85911 0.75945L2.9144 1.16413L3.03734 1.14734L2.98205 0.742651ZM2.85911 0.75945L2.80381 0.354765C2.70027 0.368912 2.59678 0.381057 2.49331 0.391201L2.53317 0.797697L2.57302 1.20419C2.68685 1.19303 2.80064 1.17968 2.9144 1.16413L2.85911 0.75945ZM2.53317 0.797697L2.49331 0.391201L2.37037 0.403256L2.41022 0.809751L2.45008 1.21625L2.57302 1.20419L2.53317 0.797697ZM2.41022 0.809751L2.37037 0.403256L2.24743 0.41531L2.28728 0.821806L2.32714 1.2283L2.45008 1.21625L2.41022 0.809751ZM2.28728 0.821806L2.24743 0.41531C2.17453 0.422457 2.10163 0.42008 2.02781 0.407905L1.96134 0.810905L1.89487 1.21391C2.03835 1.23757 2.18274 1.24246 2.32714 1.2283L2.28728 0.821806ZM1.96134 0.810905L2.02781 0.407905L1.90487 0.387627L1.8384 0.790627L1.77193 1.19363L1.89487 1.21391L1.96134 0.810905ZM1.8384 0.790627L1.90487 0.387627L1.78193 0.367349L1.71546 0.77035L1.64899 1.17335L1.77193 1.19363L1.8384 0.790627ZM1.71546 0.77035L1.78193 0.367349C1.65699 0.346743 1.5317 0.33384 1.40614 0.328727L1.38952 0.736834L1.3729 1.14494C1.46463 1.14868 1.55663 1.15812 1.64899 1.17335L1.71546 0.77035ZM1.38952 0.736834L1.40614 0.328727L1.2832 0.323721L1.26658 0.731827L1.24996 1.13993L1.3729 1.14494L1.38952 0.736834ZM1.26658 0.731827L1.2832 0.323721L1.16025 0.318714L1.14364 0.726821L1.12702 1.13493L1.24996 1.13993L1.26658 0.731827ZM1.14364 0.726821L1.16025 0.318714C1.11731 0.316966 1.06596 0.305144 1.00339 0.273207L0.817698 0.637001L0.632006 1.00079C0.78673 1.07977 0.952673 1.12783 1.12702 1.13493L1.14364 0.726821ZM0.817698 0.637001L1.00339 0.273207L0.880446 0.210454L0.694754 0.574248L0.509064 0.938042L0.632006 1.00079L0.817698 0.637001ZM0.694754 0.574248L0.880446 0.210454L0.757505 0.1477L0.571813 0.511495L0.386123 0.875289L0.509064 0.938042L0.694754 0.574248ZM0.571813 0.511495L0.757505 0.1477C0.699939 0.118318 0.61045 0.0756944 0.51564 0.0601572C0.475525 0.053583 0.354987 0.0370539 0.227977 0.104271C0.0549949 0.195817 0.000399283 0.364688 0.000399273 0.484787L0.408844 0.484788L0.817289 0.484788C0.817289 0.527802 0.809629 0.592603 0.773461 0.661879C0.73501 0.735531 0.676135 0.791329 0.610084 0.826285C0.496654 0.886314 0.396486 0.868417 0.383533 0.866294C0.343046 0.859659 0.335041 0.849215 0.386123 0.875289L0.571813 0.511495ZM0.408844 0.484788L0.000399273 0.484787L0.00039927 0.527393L0.408844 0.527393L0.817289 0.527393L0.817289 0.484788L0.408844 0.484788ZM0.408844 0.527393L0.12441 0.820522L0.22652 0.919604L0.510956 0.626476L0.79539 0.333348L0.693278 0.234265L0.408844 0.527393ZM0.510956 0.626476L0.510956 0.218031L0.408844 0.218031L0.408844 0.626476L0.408844 1.03492L0.510956 1.03492L0.510956 0.626476Z" fill="url(#paint0_linear_298_22583)"/>
  </g>

  <!-- Middle Line -->
  <g transform="translate(0, 7.5)">
    <path d="M0.101561 0.65348L0.134017 0.248532L0.117815 0.247234H0.101561V0.65348ZM0.975396 0.84444L0.831917 1.22451L0.975396 0.84444ZM1.54414 0.807654L1.44898 0.41271L1.54414 0.807654ZM1.86832 0.662859L2.09029 1.00311L1.86832 0.662859ZM2.55935 0.487753L2.43655 0.874996L2.55935 0.487753ZM2.68163 0.526528L2.55883 0.913771L2.68163 0.526528ZM3.57456 0.660993L3.7451 0.292275L3.57456 0.660993ZM3.81912 0.774106L3.64858 1.14282L3.81912 0.774106ZM4.38786 0.543111L4.63211 0.867733L4.38786 0.543111ZM4.71205 0.535281L4.94592 0.203111L4.71205 0.535281ZM4.95661 0.707474L4.72273 1.03964L4.95661 0.707474ZM5.28079 0.753075L5.1226 0.378894L5.28079 0.753075ZM6.09409 0.678544L5.99948 1.07362L6.09409 0.678544ZM6.66284 0.802929L6.57919 1.20047L6.66284 0.802929ZM7.1093 0.85931L7.07758 1.26432L7.1093 0.85931ZM7.23158 0.868888L7.19986 1.27389L7.23158 0.868888ZM7.80033 0.774395L7.69678 0.381567L7.80033 0.774395ZM8.12451 0.735345L8.1153 1.14149L8.12451 0.735345ZM8.69326 0.768338L8.7522 0.366391L8.69326 0.768338ZM8.93782 0.804203L8.87887 1.20615L8.93782 0.804203ZM9.262 0.767472L9.40406 1.14807L9.262 0.767472ZM9.50656 0.676187L9.3645 0.29559L9.50656 0.676187ZM9.83074 0.621793L9.81544 1.02775L9.83074 0.621793ZM10.3995 0.694115L10.2647 1.07736L10.3995 0.694115ZM10.5218 0.737111L10.387 1.12036L10.5218 0.737111ZM10.644 0.780107L10.7788 0.396862L10.644 0.780107ZM10.9682 0.772879L10.8186 0.395198L10.9682 0.772879ZM11.2128 0.675981L11.3624 1.05366L11.2128 0.675981ZM11.537 0.652677L11.6364 0.258789L11.537 0.652677ZM11.6593 0.683547L11.5598 1.07744L11.6593 0.683547ZM11.7815 0.714416L11.6821 1.1083L11.7815 0.714416ZM12.1057 0.76357L12.0851 1.16929L12.1057 0.76357ZM12.228 0.769782L12.2074 1.1755L12.228 0.769782ZM12.6745 0.751856L12.754 1.15023L12.6745 0.751856ZM12.919 0.703013L12.8395 0.304635L12.919 0.703013ZM13.2432 0.637869L13.1627 0.23968L13.2432 0.637869ZM13.4878 0.588424L13.5683 0.986613L13.4878 0.588424ZM13.812 0.566526L13.7848 0.971861L13.812 0.566526ZM14.0565 0.582933L14.0837 0.177598L14.0565 0.582933ZM14.6253 0.575601L14.6071 0.169762L14.6253 0.575601ZM14.9494 0.572733L14.9384 0.97883L14.9494 0.572733ZM15.5182 0.553371L15.593 0.952668L15.5182 0.553371ZM15.7627 0.507548L15.6879 0.108251L15.7627 0.507548ZM16.0869 0.466777L16.0609 0.0613646L16.0869 0.466777ZM16.2092 0.458931L16.2352 0.864343L16.2092 0.458931ZM16.3315 0.451085L16.3055 0.0456726L16.3315 0.451085ZM16.6557 0.557131L16.8927 0.227198L16.6557 0.557131ZM16.9002 0.732823L16.6632 1.06276L16.9002 0.732823ZM17.2244 0.803655L17.1144 0.412598L17.2244 0.803655ZM17.3467 0.769244L17.4567 1.1603L17.3467 0.769244ZM17.469 0.734834L17.3589 0.343777L17.469 0.734834ZM17.7932 0.727012L17.8854 0.331377L17.7932 0.727012ZM18.0377 0.784032L17.9455 1.17967L18.0377 0.784032ZM18.3619 0.706835L18.597 1.03817L18.3619 0.706835ZM18.6065 0.533343L18.3714 0.202004L18.6065 0.533343ZM18.9307 0.4854L18.7754 0.8608L18.9307 0.4854ZM19.0529 0.535979L19.2082 0.160579L19.0529 0.535979ZM19.1752 0.586558L19.0199 0.961957L19.1752 0.586558ZM19.4994 0.612815L19.5985 1.00678L19.4994 0.612815ZM19.744 0.551275L19.6448 0.157311L19.744 0.551275ZM20.0681 0.577204L20.2228 0.201536L20.0681 0.577204ZM20.3127 0.677865L20.1581 1.05353L20.3127 0.677865ZM20.6369 0.755586L20.6644 0.350273L20.6369 0.755586ZM20.8814 0.772188L20.8539 1.1775L20.8814 0.772188ZM21.2056 0.703501L21.0264 0.338932L21.2056 0.703501ZM21.3279 0.643384L21.5071 1.00795L21.3279 0.643384ZM21.4502 0.583266L21.271 0.218698L21.4502 0.583266ZM21.8967 0.512186L21.8844 0.918245L21.8967 0.512186ZM22.0189 0.515888L22.0066 0.921948L22.0189 0.515888ZM22.3431 0.580471L22.4835 0.199241L22.3431 0.580471ZM22.5877 0.670509L22.4473 1.05174L22.5877 0.670509ZM22.9119 0.674477L22.7798 0.290288L22.9119 0.674477ZM23.0341 0.632452L23.1662 1.01664L23.0341 0.632452ZM23.1564 0.590426L23.0244 0.206237L23.1564 0.590426ZM23.4806 0.499879L23.566 0.897053L23.4806 0.499879ZM23.7252 0.447313L23.6398 0.0501379L23.7252 0.447313ZM24.0494 0.460332L24.1644 0.0707142L24.0494 0.460332ZM24.2939 0.53254L24.1789 0.922158L24.2939 0.53254ZM24.6181 0.547937L24.6979 0.946273L24.6181 0.547937ZM24.7404 0.523447L24.8202 0.921783L24.7404 0.523447ZM24.8627 0.498958L24.7829 0.100622L24.8627 0.498958ZM25.1868 0.551769L24.9977 0.911298L25.1868 0.551769ZM25.4314 0.680428L25.6205 0.3209L25.4314 0.680428ZM25.7556 0.668267L25.9649 1.01645L25.7556 0.668267ZM26.0001 0.521259L25.7908 0.173077L26.0001 0.521259ZM26.3243 0.417041L26.3413 0.822932L26.3243 0.417041ZM26.4466 0.411925L26.4296 0.00603447L26.4466 0.411925ZM26.5689 0.406809L26.5519 0.000918503L26.5689 0.406809ZM26.8931 0.47564L27.0648 0.10748L26.8931 0.47564ZM27.0154 0.532681L26.8436 0.900841L27.0154 0.532681ZM27.1376 0.589721L27.3094 0.221561L27.1376 0.589721ZM27.4618 0.595252L27.623 0.968138L27.4618 0.595252ZM27.7064 0.489515L27.5452 0.116629L27.7064 0.489515ZM28.0306 0.503341L28.2173 0.142567L28.0306 0.503341ZM28.2751 0.629938L28.0884 0.990712L28.2751 0.629938ZM28.5993 0.728789L28.6366 0.324259L28.5993 0.728789ZM28.7216 0.740063L28.6843 1.14459L28.7216 0.740063ZM28.8439 0.751336L28.8066 1.15587L28.8439 0.751336ZM29.168 0.729229L29.0775 0.333197L29.168 0.729229ZM29.2903 0.701278L29.3809 1.09731L29.2903 0.701278ZM29.4126 0.673327L29.3221 0.277296L29.4126 0.673327ZM29.7368 0.656138L29.7862 0.252908L29.7368 0.656138ZM29.9814 0.686104L29.9319 1.08933L29.9814 0.686104ZM30.3055 0.633719L30.4709 1.00478V1.00478L30.3055 0.633719ZM30.4278 0.579217L30.5932 0.950274L30.4278 0.579217ZM30.5501 0.524715L30.3847 0.153658L30.5501 0.524715ZM30.8743 0.473515L30.822 0.876379L30.8743 0.473515ZM30.9966 0.489393L31.0489 0.086529L30.9966 0.489393ZM31.1188 0.505271L31.0665 0.908134L31.1188 0.505271ZM31.443 0.620101L31.2396 0.971733L31.443 0.620101ZM31.6876 0.761599L31.891 0.409967L31.6876 0.761599ZM32.2563 0.868166L32.2436 1.27421L32.2563 0.868166ZM32.5805 0.853731L32.6291 1.25706L32.5805 0.853731ZM32.7028 0.838998L32.6542 0.435669L32.7028 0.838998ZM32.8251 0.824264L32.8737 1.22759L32.8251 0.824264ZM33.1493 0.724004L32.9681 0.360363L33.1493 0.724004ZM33.3938 0.602202L33.5749 0.965844L33.3938 0.602202ZM33.718 0.578299L33.8524 0.194929L33.718 0.578299ZM33.8403 0.621167L33.7059 1.00454L33.8403 0.621167ZM33.9626 0.664036L34.097 0.280666L33.9626 0.664036ZM34.2867 0.657843L34.1395 0.279206L34.2867 0.657843ZM34.5313 0.562763L34.6785 0.9414L34.5313 0.562763ZM34.8555 0.568215L34.6974 0.942443L34.8555 0.568215ZM34.9778 0.619867L34.8197 0.994096L34.9778 0.619867ZM35.1001 0.671519L35.2581 0.297291L35.1001 0.671519ZM35.4242 0.723445L35.4655 1.12759L35.4242 0.723445ZM35.6688 0.698484L35.6275 0.294337L35.6688 0.698484ZM35.993 0.622688L35.8535 0.241135L35.993 0.622688ZM36.2375 0.533291L36.377 0.914844L36.2375 0.533291ZM36.5617 0.553825L36.3823 0.918309L36.5617 0.553825ZM36.8063 0.674204L36.9857 0.30972L36.8063 0.674204ZM37.1305 0.692553L37.2744 1.07243L37.1305 0.692553ZM37.2527 0.646206L37.1088 0.266331L37.2527 0.646206ZM37.375 0.599858L37.519 0.979733L37.375 0.599858ZM37.6992 0.600067L37.5548 0.979779L37.6992 0.600067ZM37.9438 0.693075L38.0882 0.313362L37.9438 0.693075ZM38.2448 0.72729L38.3235 1.12584L38.2448 0.72729ZM38.4544 0.685903L38.3757 0.287351L38.4544 0.685903ZM38.5934 0.655976H38.9996V0.259593L38.6033 0.249853L38.5934 0.655976ZM38.4918 0.65348V0.247234L38.4818 1.0596L38.4918 0.65348ZM0 0.65348V1.05973H0.101561V0.65348V0.247234H0V0.65348ZM0.101561 0.65348L0.0691055 1.05843L0.269994 1.07453L0.30245 0.669581L0.334906 0.264633L0.134017 0.248532L0.101561 0.65348ZM0.30245 0.669581L0.269994 1.07453C0.427717 1.08717 0.528733 1.11005 0.587357 1.13218L0.730836 0.752116L0.874316 0.372051C0.716816 0.312593 0.532242 0.280449 0.334906 0.264633L0.30245 0.669581ZM0.730836 0.752116L0.587357 1.13218L0.709637 1.17834L0.853116 0.798278L0.996596 0.418213L0.874316 0.372051L0.730836 0.752116ZM0.853116 0.798278L0.709637 1.17834L0.831917 1.22451L0.975396 0.84444L1.11888 0.464375L0.996596 0.418213L0.853116 0.798278ZM0.975396 0.84444L0.831917 1.22451C1.01307 1.29289 1.20421 1.30743 1.39474 1.26152L1.29958 0.866578L1.20442 0.471634C1.17883 0.477801 1.15385 0.477578 1.11888 0.464375L0.975396 0.84444ZM1.29958 0.866578L1.39474 1.26152L1.51702 1.23206L1.42186 0.837116L1.3267 0.442172L1.20442 0.471634L1.29958 0.866578ZM1.42186 0.837116L1.51702 1.23206L1.6393 1.2026L1.54414 0.807654L1.44898 0.41271L1.3267 0.442172L1.42186 0.837116ZM1.54414 0.807654L1.6393 1.2026C1.79904 1.16411 1.94951 1.09494 2.09029 1.00311L1.86832 0.662859L1.64636 0.322611C1.57101 0.371766 1.50536 0.399126 1.44898 0.41271L1.54414 0.807654ZM1.86832 0.662859L2.09029 1.00311L2.21257 0.923337L1.9906 0.583089L1.76864 0.242841L1.64636 0.322611L1.86832 0.662859ZM1.9906 0.583089L2.21257 0.923337L2.33485 0.843568L2.11288 0.50332L1.89092 0.163072L1.76864 0.242841L1.9906 0.583089ZM2.11288 0.50332L2.33485 0.843568C2.35021 0.833548 2.35223 0.835827 2.34214 0.83752C2.33733 0.838325 2.33163 0.838656 2.32575 0.838215C2.31992 0.83778 2.31592 0.836741 2.31427 0.836221L2.43707 0.448978L2.55986 0.0617352C2.31873 -0.014728 2.08518 0.036346 1.89092 0.163072L2.11288 0.50332ZM2.43707 0.448978L2.31427 0.836221L2.43655 0.874996L2.55935 0.487753L2.68214 0.10051L2.55986 0.0617352L2.43707 0.448978ZM2.55935 0.487753L2.43655 0.874996L2.55883 0.913771L2.68163 0.526528L2.80442 0.139286L2.68214 0.10051L2.55935 0.487753ZM2.68163 0.526528L2.55883 0.913771C2.7029 0.959455 2.85034 0.984309 3.00003 0.98644L3.00581 0.580235L3.01159 0.17403C2.94516 0.173085 2.87648 0.162134 2.80442 0.139286L2.68163 0.526528ZM3.00581 0.580235L3.00003 0.98644L3.12231 0.98818L3.12809 0.581975L3.13387 0.175771L3.01159 0.17403L3.00581 0.580235ZM3.12809 0.581975L3.12231 0.98818L3.24459 0.98992L3.25037 0.583716L3.25615 0.177511L3.13387 0.175771L3.12809 0.581975ZM3.25037 0.583716L3.24459 0.98992C3.29016 0.990569 3.34235 1.00119 3.40402 1.02971L3.57456 0.660993L3.7451 0.292275C3.59064 0.220839 3.42671 0.179938 3.25615 0.177511L3.25037 0.583716ZM3.57456 0.660993L3.40402 1.02971L3.5263 1.08627L3.69684 0.717549L3.86738 0.348832L3.7451 0.292275L3.57456 0.660993ZM3.69684 0.717549L3.5263 1.08627L3.64858 1.14282L3.81912 0.774106L3.98966 0.405388L3.86738 0.348832L3.69684 0.717549ZM3.81912 0.774106L3.64858 1.14282C3.76732 1.19774 3.90054 1.22203 4.03948 1.20189C4.1753 1.1822 4.29184 1.12375 4.38755 1.05174L4.1433 0.727118L3.89906 0.402496C3.88671 0.411788 3.89518 0.401822 3.92294 0.397799C3.93648 0.395837 3.95058 0.395954 3.96387 0.398064C3.97689 0.400131 3.9857 0.403557 3.98966 0.405388L3.81912 0.774106ZM4.1433 0.727118L4.38755 1.05174L4.50983 0.959737L4.26558 0.635115L4.02134 0.310492L3.89906 0.402496L4.1433 0.727118ZM4.26558 0.635115L4.50983 0.959737L4.63211 0.867733L4.38786 0.543111L4.14362 0.218489L4.02134 0.310492L4.26558 0.635115ZM4.38786 0.543111L4.63211 0.867733C4.63557 0.865128 4.60967 0.885097 4.55976 0.886302C4.5364 0.886866 4.5159 0.882923 4.50024 0.877598C4.4853 0.87252 4.47796 0.867307 4.47817 0.867451L4.71205 0.535281L4.94592 0.203111C4.83687 0.12633 4.69913 0.070207 4.54014 0.0740471C4.38218 0.0778626 4.24822 0.139789 4.14362 0.218489L4.38786 0.543111ZM4.71205 0.535281L4.47817 0.867451L4.60045 0.953547L4.83433 0.621377L5.0682 0.289208L4.94592 0.203111L4.71205 0.535281ZM4.83433 0.621377L4.60045 0.953547L4.72273 1.03964L4.95661 0.707474L5.19048 0.375304L5.0682 0.289208L4.83433 0.621377ZM4.95661 0.707474L4.72273 1.03964C4.92825 1.18435 5.18347 1.23528 5.43898 1.12726L5.28079 0.753075L5.1226 0.378894C5.12562 0.377617 5.13262 0.375124 5.14301 0.373659C5.15358 0.372167 5.16471 0.372165 5.17529 0.373653C5.19718 0.376733 5.20281 0.383986 5.19048 0.375304L4.95661 0.707474ZM5.28079 0.753075L5.43898 1.12726L5.56126 1.07556L5.40307 0.70138L5.24488 0.327199L5.1226 0.378894L5.28079 0.753075ZM5.40307 0.70138L5.56126 1.07556L5.68354 1.02387L5.52535 0.649685L5.36716 0.275503L5.24488 0.327199L5.40307 0.70138ZM5.52535 0.649685L5.68354 1.02387C5.71647 1.00994 5.73608 1.01054 5.75492 1.01505L5.84953 0.619977L5.94415 0.224902C5.74687 0.177657 5.55035 0.198059 5.36716 0.275503L5.52535 0.649685ZM5.84953 0.619977L5.75492 1.01505L5.8772 1.04434L5.97181 0.64926L6.06643 0.254186L5.94415 0.224902L5.84953 0.619977ZM5.97181 0.64926L5.8772 1.04434L5.99948 1.07362L6.09409 0.678544L6.18871 0.283469L6.06643 0.254186L5.97181 0.64926ZM6.09409 0.678544L5.99948 1.07362C6.11116 1.10036 6.22288 1.1255 6.33463 1.14901L6.41828 0.751469L6.50193 0.353929C6.39756 0.331967 6.29315 0.308481 6.18871 0.283469L6.09409 0.678544ZM6.41828 0.751469L6.33463 1.14901L6.45691 1.17474L6.54056 0.777199L6.62421 0.379659L6.50193 0.353929L6.41828 0.751469ZM6.54056 0.777199L6.45691 1.17474L6.57919 1.20047L6.66284 0.802929L6.74649 0.405388L6.62421 0.379659L6.54056 0.777199ZM6.66284 0.802929L6.57919 1.20047C6.70406 1.22674 6.82946 1.24488 6.9553 1.25474L6.98702 0.849732L7.01875 0.444727C6.92846 0.437655 6.83774 0.42459 6.74649 0.405388L6.66284 0.802929ZM6.98702 0.849732L6.9553 1.25474L7.07758 1.26432L7.1093 0.85931L7.14103 0.454305L7.01875 0.444727L6.98702 0.849732ZM7.1093 0.85931L7.07758 1.26432L7.19986 1.27389L7.23158 0.868888L7.26331 0.463883L7.14103 0.454305L7.1093 0.85931ZM7.23158 0.868888L7.19986 1.27389C7.35478 1.28603 7.50855 1.27143 7.65931 1.23169L7.55577 0.838859L7.45222 0.44603C7.38686 0.463259 7.32451 0.468677 7.26331 0.463883L7.23158 0.868888ZM7.55577 0.838859L7.65931 1.23169L7.78159 1.19946L7.67805 0.806627L7.5745 0.413799L7.45222 0.44603L7.55577 0.838859ZM7.67805 0.806627L7.78159 1.19946L7.90387 1.16722L7.80033 0.774395L7.69678 0.381567L7.5745 0.413799L7.67805 0.806627ZM7.80033 0.774395L7.90387 1.16722C7.97641 1.1481 8.04654 1.13993 8.1153 1.14149L8.12451 0.735345L8.13372 0.329203C7.98636 0.325862 7.84037 0.34372 7.69678 0.381567L7.80033 0.774395ZM8.12451 0.735345L8.1153 1.14149L8.23758 1.14426L8.24679 0.738118L8.256 0.331976L8.13372 0.329203L8.12451 0.735345ZM8.24679 0.738118L8.23758 1.14426L8.35986 1.14703L8.36907 0.740891L8.37828 0.334749L8.256 0.331976L8.24679 0.738118ZM8.36907 0.740891L8.35986 1.14703C8.4511 1.1491 8.54255 1.15683 8.63431 1.17028L8.69326 0.768338L8.7522 0.366391C8.62784 0.348152 8.50316 0.337581 8.37828 0.334749L8.36907 0.740891ZM8.69326 0.768338L8.63431 1.17028L8.75659 1.18822L8.81554 0.78627L8.87448 0.384324L8.7522 0.366391L8.69326 0.768338ZM8.81554 0.78627L8.75659 1.18822L8.87887 1.20615L8.93782 0.804203L8.99676 0.402257L8.87448 0.384324L8.81554 0.78627ZM8.93782 0.804203L8.87887 1.20615C9.05849 1.23249 9.23559 1.21095 9.40406 1.14807L9.262 0.767472L9.11994 0.386875C9.07229 0.404661 9.03327 0.40761 8.99676 0.402257L8.93782 0.804203ZM9.262 0.767472L9.40406 1.14807L9.52634 1.10243L9.38428 0.721829L9.24222 0.341232L9.11994 0.386875L9.262 0.767472ZM9.38428 0.721829L9.52634 1.10243L9.64862 1.05678L9.50656 0.676187L9.3645 0.29559L9.24222 0.341232L9.38428 0.721829ZM9.50656 0.676187L9.64862 1.05678C9.70981 1.03394 9.7645 1.02583 9.81544 1.02775L9.83074 0.621793L9.84605 0.215836C9.68087 0.20961 9.51943 0.237759 9.3645 0.29559L9.50656 0.676187ZM9.83074 0.621793L9.81544 1.02775L9.93772 1.03236L9.95302 0.626402L9.96833 0.220444L9.84605 0.215836L9.83074 0.621793ZM9.95302 0.626402L9.93772 1.03236L10.06 1.03697L10.0753 0.631011L10.0906 0.225053L9.96833 0.220444L9.95302 0.626402ZM10.0753 0.631011L10.06 1.03697C10.125 1.03942 10.1928 1.05208 10.2647 1.07736L10.3995 0.694115L10.5342 0.31087C10.39 0.260156 10.2417 0.23075 10.0906 0.225053L10.0753 0.631011ZM10.3995 0.694115L10.2647 1.07736L10.387 1.12036L10.5218 0.737111L10.6565 0.353866L10.5342 0.31087L10.3995 0.694115ZM10.5218 0.737111L10.387 1.12036L10.5093 1.16335L10.644 0.780107L10.7788 0.396862L10.6565 0.353866L10.5218 0.737111ZM10.644 0.780107L10.5093 1.16335C10.7112 1.23435 10.9203 1.22886 11.1179 1.15056L10.9682 0.772879L10.8186 0.395198C10.806 0.400198 10.7994 0.4006 10.7971 0.400652C10.7948 0.400702 10.7895 0.400607 10.7788 0.396862L10.644 0.780107ZM10.9682 0.772879L11.1179 1.15056L11.2402 1.10211L11.0905 0.72443L10.9409 0.346749L10.8186 0.395198L10.9682 0.772879ZM11.0905 0.72443L11.2402 1.10211L11.3624 1.05366L11.2128 0.675981L11.0632 0.2983L10.9409 0.346749L11.0905 0.72443ZM11.2128 0.675981L11.3624 1.05366C11.3949 1.04082 11.4159 1.04109 11.4375 1.04657L11.537 0.652677L11.6364 0.258789C11.442 0.209705 11.2469 0.225514 11.0632 0.2983L11.2128 0.675981ZM11.537 0.652677L11.4375 1.04657L11.5598 1.07744L11.6593 0.683547L11.7587 0.289658L11.6364 0.258789L11.537 0.652677ZM11.6593 0.683547L11.5598 1.07744L11.6821 1.1083L11.7815 0.714416L11.881 0.320527L11.7587 0.289658L11.6593 0.683547ZM11.7815 0.714416L11.6821 1.1083C11.8152 1.14191 11.9497 1.16241 12.0851 1.16929L12.1057 0.76357L12.1263 0.357847C12.0457 0.353749 11.964 0.341484 11.881 0.320527L11.7815 0.714416ZM12.1057 0.76357L12.0851 1.16929L12.2074 1.1755L12.228 0.769782L12.2486 0.364059L12.1263 0.357847L12.1057 0.76357ZM12.228 0.769782L12.2074 1.1755L12.3297 1.18172L12.3503 0.775994L12.3709 0.370271L12.2486 0.364059L12.228 0.769782ZM12.3503 0.775994L12.3297 1.18172C12.4719 1.18894 12.6136 1.17828 12.754 1.15023L12.6745 0.751856L12.5949 0.353478C12.5192 0.368599 12.4448 0.374025 12.3709 0.370271L12.3503 0.775994ZM12.6745 0.751856L12.754 1.15023L12.8763 1.12581L12.7967 0.727435L12.7172 0.329056L12.5949 0.353478L12.6745 0.751856ZM12.7967 0.727435L12.8763 1.12581L12.9986 1.10139L12.919 0.703013L12.8395 0.304635L12.7172 0.329056L12.7967 0.727435ZM12.919 0.703013L12.9986 1.10139C13.107 1.07975 13.2153 1.05797 13.3237 1.03606L13.2432 0.637869L13.1627 0.23968C13.055 0.261464 12.9472 0.283116 12.8395 0.304635L12.919 0.703013ZM13.2432 0.637869L13.3237 1.03606L13.446 1.01134L13.3655 0.613146L13.285 0.214957L13.1627 0.23968L13.2432 0.637869ZM13.3655 0.613146L13.446 1.01134L13.5683 0.986613L13.4878 0.588424L13.4073 0.190235L13.285 0.214957L13.3655 0.613146ZM13.4878 0.588424L13.5683 0.986613C13.6416 0.971797 13.7134 0.967074 13.7848 0.971861L13.812 0.566526L13.8391 0.161192C13.6944 0.15148 13.5501 0.161355 13.4073 0.190235L13.4878 0.588424ZM13.812 0.566526L13.7848 0.971861L13.907 0.980064L13.9342 0.574729L13.9614 0.169395L13.8391 0.161192L13.812 0.566526ZM13.9342 0.574729L13.907 0.980064L14.0293 0.988267L14.0565 0.582933L14.0837 0.177598L13.9614 0.169395L13.9342 0.574729ZM14.0565 0.582933L14.0293 0.988267C14.1525 0.996528 14.2757 0.997905 14.3989 0.992389L14.3807 0.58655L14.3625 0.180711C14.2696 0.184871 14.1767 0.183835 14.0837 0.177598L14.0565 0.582933ZM14.3807 0.58655L14.3989 0.992389L14.5211 0.986915L14.503 0.581076L14.4848 0.175236L14.3625 0.180711L14.3807 0.58655ZM14.503 0.581076L14.5211 0.986915L14.6434 0.981441L14.6253 0.575601L14.6071 0.169762L14.4848 0.175236L14.503 0.581076ZM14.6253 0.575601L14.6434 0.981441C14.7418 0.977037 14.8401 0.976168 14.9384 0.97883L14.9494 0.572733L14.9604 0.166636C14.8426 0.163447 14.7249 0.164489 14.6071 0.169762L14.6253 0.575601ZM14.9494 0.572733L14.9384 0.97883L15.0607 0.98214L15.0717 0.576043L15.0827 0.169946L14.9604 0.166636L14.9494 0.572733ZM15.0717 0.576043L15.0607 0.98214L15.183 0.98545L15.194 0.579353L15.205 0.173256L15.0827 0.169946L15.0717 0.576043ZM15.194 0.579353L15.183 0.98545C15.3203 0.989168 15.4571 0.978124 15.593 0.952668L15.5182 0.553371L15.4434 0.154073C15.3631 0.169112 15.2838 0.17539 15.205 0.173256L15.194 0.579353ZM15.5182 0.553371L15.593 0.952668L15.7153 0.929757L15.6405 0.530459L15.5657 0.131162L15.4434 0.154073L15.5182 0.553371ZM15.6405 0.530459L15.7153 0.929757L15.8376 0.906845L15.7627 0.507548L15.6879 0.108251L15.5657 0.131162L15.6405 0.530459ZM15.7627 0.507548L15.8376 0.906845C15.9297 0.889574 16.0215 0.878056 16.1129 0.872189L16.0869 0.466777L16.0609 0.0613646C15.9362 0.0693649 15.8119 0.0850277 15.6879 0.108251L15.7627 0.507548ZM16.0869 0.466777L16.1129 0.872189L16.2352 0.864343L16.2092 0.458931L16.1832 0.0535186L16.0609 0.0613646L16.0869 0.466777ZM16.2092 0.458931L16.2352 0.864343L16.3575 0.856497L16.3315 0.451085L16.3055 0.0456726L16.1832 0.0535186L16.2092 0.458931ZM16.3315 0.451085L16.3575 0.856497C16.358 0.856465 16.3586 0.856459 16.3596 0.856592C16.3606 0.856731 16.3631 0.857148 16.3673 0.858509C16.3757 0.861254 16.3928 0.868506 16.4186 0.887064L16.6557 0.557131L16.8927 0.227198C16.7263 0.107692 16.5273 0.0314401 16.3055 0.0456726L16.3315 0.451085ZM16.6557 0.557131L16.4186 0.887064L16.5409 0.97491L16.778 0.644977L17.015 0.315044L16.8927 0.227198L16.6557 0.557131ZM16.778 0.644977L16.5409 0.97491L16.6632 1.06276L16.9002 0.732823L17.1373 0.40289L17.015 0.315044L16.778 0.644977ZM16.9002 0.732823L16.6632 1.06276C16.8509 1.19758 17.0848 1.26496 17.3345 1.19471L17.2244 0.803655L17.1144 0.412598C17.1178 0.411623 17.1235 0.410513 17.1306 0.410288C17.1378 0.410063 17.1442 0.410804 17.149 0.411871C17.159 0.414041 17.1552 0.415799 17.1373 0.40289L16.9002 0.732823ZM17.2244 0.803655L17.3345 1.19471L17.4567 1.1603L17.3467 0.769244L17.2367 0.378188L17.1144 0.412598L17.2244 0.803655ZM17.3467 0.769244L17.4567 1.1603L17.579 1.12589L17.469 0.734834L17.3589 0.343777L17.2367 0.378188L17.3467 0.769244ZM17.469 0.734834L17.579 1.12589C17.6219 1.11382 17.6604 1.1132 17.7009 1.12265L17.7932 0.727012L17.8854 0.331377C17.7098 0.290433 17.5322 0.295032 17.3589 0.343777L17.469 0.734834ZM17.7932 0.727012L17.7009 1.12265L17.8232 1.15116L17.9154 0.755522L18.0077 0.359887L17.8854 0.331377L17.7932 0.727012ZM17.9154 0.755522L17.8232 1.15116L17.9455 1.17967L18.0377 0.784032L18.13 0.388397L18.0077 0.359887L17.9154 0.755522ZM18.0377 0.784032L17.9455 1.17967C18.1888 1.2364 18.4142 1.16785 18.597 1.03817L18.3619 0.706835L18.1269 0.375496C18.1073 0.389388 18.1004 0.389709 18.1057 0.388433C18.1083 0.387806 18.1126 0.387147 18.1178 0.387134C18.123 0.387121 18.1272 0.38776 18.13 0.388397L18.0377 0.784032ZM18.3619 0.706835L18.597 1.03817L18.7192 0.951428L18.4842 0.620089L18.2491 0.28875L18.1269 0.375496L18.3619 0.706835ZM18.4842 0.620089L18.7192 0.951428L18.8415 0.864682L18.6065 0.533343L18.3714 0.202004L18.2491 0.28875L18.4842 0.620089ZM18.6065 0.533343L18.8415 0.864682C18.8543 0.855582 18.8493 0.862584 18.828 0.865738C18.8177 0.867266 18.8067 0.867365 18.7961 0.865961C18.7857 0.86458 18.7786 0.862132 18.7754 0.8608L18.9307 0.4854L19.0859 0.11C18.8298 0.0040454 18.5755 0.0572543 18.3714 0.202004L18.6065 0.533343ZM18.9307 0.4854L18.7754 0.8608L18.8977 0.911379L19.0529 0.535979L19.2082 0.160579L19.0859 0.11L18.9307 0.4854ZM19.0529 0.535979L18.8977 0.911379L19.0199 0.961957L19.1752 0.586558L19.3305 0.211158L19.2082 0.160579L19.0529 0.535979ZM19.1752 0.586558L19.0199 0.961957C19.2044 1.03824 19.4015 1.05636 19.5985 1.00678L19.4994 0.612815L19.4003 0.218851C19.3812 0.223658 19.3622 0.224273 19.3305 0.211158L19.1752 0.586558ZM19.4994 0.612815L19.5985 1.00678L19.7208 0.976009L19.6217 0.582045L19.5225 0.188081L19.4003 0.218851L19.4994 0.612815ZM19.6217 0.582045L19.7208 0.976009L19.8431 0.945239L19.744 0.551275L19.6448 0.157311L19.5225 0.188081L19.6217 0.582045ZM19.744 0.551275L19.8431 0.945239C19.8625 0.940354 19.8817 0.939784 19.9135 0.952872L20.0681 0.577204L20.2228 0.201536C20.0384 0.125667 19.8415 0.107811 19.6448 0.157311L19.744 0.551275ZM20.0681 0.577204L19.9135 0.952872L20.0358 1.0032L20.1904 0.627535L20.345 0.251867L20.2228 0.201536L20.0681 0.577204ZM20.1904 0.627535L20.0358 1.0032L20.1581 1.05353L20.3127 0.677865L20.4673 0.302197L20.345 0.251867L20.1904 0.627535ZM20.3127 0.677865L20.1581 1.05353C20.3034 1.11336 20.4543 1.15037 20.6094 1.1609L20.6369 0.755586L20.6644 0.350273C20.6033 0.346129 20.5381 0.331323 20.4673 0.302197L20.3127 0.677865ZM20.6369 0.755586L20.6094 1.1609L20.7316 1.1692L20.7592 0.763887L20.7867 0.358574L20.6644 0.350273L20.6369 0.755586ZM20.7592 0.763887L20.7316 1.1692L20.8539 1.1775L20.8814 0.772188L20.909 0.366875L20.7867 0.358574L20.7592 0.763887ZM20.8814 0.772188L20.8539 1.1775C21.041 1.1902 21.22 1.14912 21.3849 1.06807L21.2056 0.703501L21.0264 0.338932C20.9751 0.364139 20.938 0.368845 20.909 0.366875L20.8814 0.772188ZM21.2056 0.703501L21.3849 1.06807L21.5071 1.00795L21.3279 0.643384L21.1487 0.278815L21.0264 0.338932L21.2056 0.703501ZM21.3279 0.643384L21.5071 1.00795L21.6294 0.947835L21.4502 0.583266L21.271 0.218698L21.1487 0.278815L21.3279 0.643384ZM21.4502 0.583266L21.6294 0.947835C21.6849 0.920577 21.7276 0.913498 21.7621 0.914543L21.7744 0.508483L21.7867 0.102424C21.6051 0.0969255 21.4316 0.139702 21.271 0.218698L21.4502 0.583266ZM21.7744 0.508483L21.7621 0.914543L21.8844 0.918245L21.8967 0.512186L21.9089 0.106126L21.7867 0.102424L21.7744 0.508483ZM21.8967 0.512186L21.8844 0.918245L22.0066 0.921948L22.0189 0.515888L22.0312 0.109828L21.9089 0.106126L21.8967 0.512186ZM22.0189 0.515888L22.0066 0.921948C22.0682 0.923811 22.1331 0.93605 22.2028 0.961701L22.3431 0.580471L22.4835 0.199241C22.337 0.145324 22.1858 0.114508 22.0312 0.109828L22.0189 0.515888ZM22.3431 0.580471L22.2028 0.961701L22.325 1.00672L22.4654 0.62549L22.6058 0.24426L22.4835 0.199241L22.3431 0.580471ZM22.4654 0.62549L22.325 1.00672L22.4473 1.05174L22.5877 0.670509L22.728 0.289279L22.6058 0.24426L22.4654 0.62549ZM22.5877 0.670509L22.4473 1.05174C22.6424 1.12356 22.8467 1.12645 23.0439 1.05867L22.9119 0.674477L22.7798 0.290288C22.7609 0.296777 22.7491 0.29703 22.728 0.289279L22.5877 0.670509ZM22.9119 0.674477L23.0439 1.05867L23.1662 1.01664L23.0341 0.632452L22.9021 0.248262L22.7798 0.290288L22.9119 0.674477ZM23.0341 0.632452L23.1662 1.01664L23.2885 0.974616L23.1564 0.590426L23.0244 0.206237L22.9021 0.248262L23.0341 0.632452ZM23.1564 0.590426L23.2885 0.974616C23.3818 0.942554 23.4742 0.916772 23.566 0.897053L23.4806 0.499879L23.3952 0.102704C23.2709 0.129439 23.1472 0.164022 23.0244 0.206237L23.1564 0.590426ZM23.4806 0.499879L23.566 0.897053L23.6883 0.870771L23.6029 0.473596L23.5175 0.0764208L23.3952 0.102704L23.4806 0.499879ZM23.6029 0.473596L23.6883 0.870771L23.8105 0.844488L23.7252 0.447313L23.6398 0.0501379L23.5175 0.0764208L23.6029 0.473596ZM23.7252 0.447313L23.8105 0.844488C23.8509 0.835816 23.8901 0.836882 23.9343 0.84995L24.0494 0.460332L24.1644 0.0707142C23.9925 0.0199697 23.8156 0.0123567 23.6398 0.0501379L23.7252 0.447313ZM24.0494 0.460332L23.9343 0.84995L24.0566 0.886054L24.1716 0.496436L24.2867 0.106819L24.1644 0.0707142L24.0494 0.460332ZM24.1716 0.496436L24.0566 0.886054L24.1789 0.922158L24.2939 0.53254L24.4089 0.142923L24.2867 0.106819L24.1716 0.496436ZM24.2939 0.53254L24.1789 0.922158C24.3487 0.97231 24.5236 0.981167 24.6979 0.946273L24.6181 0.547937L24.5383 0.149601C24.4964 0.15799 24.4552 0.156583 24.4089 0.142923L24.2939 0.53254ZM24.6181 0.547937L24.6979 0.946273L24.8202 0.921783L24.7404 0.523447L24.6606 0.125111L24.5383 0.149601L24.6181 0.547937ZM24.7404 0.523447L24.8202 0.921783L24.9424 0.897294L24.8627 0.498958L24.7829 0.100622L24.6606 0.125111L24.7404 0.523447ZM24.8627 0.498958L24.9424 0.897294C24.9491 0.895962 24.9627 0.89288 24.9977 0.911298L25.1868 0.551769L25.376 0.19224C25.1949 0.0969601 24.9924 0.05867 24.7829 0.100622L24.8627 0.498958ZM25.1868 0.551769L24.9977 0.911298L25.12 0.975628L25.3091 0.616099L25.4983 0.25657L25.376 0.19224L25.1868 0.551769ZM25.3091 0.616099L25.12 0.975628L25.2423 1.03996L25.4314 0.680428L25.6205 0.3209L25.4983 0.25657L25.3091 0.616099ZM25.4314 0.680428L25.2423 1.03996C25.4809 1.16551 25.74 1.15165 25.9649 1.01645L25.7556 0.668267L25.5463 0.320085C25.5412 0.32313 25.5532 0.315006 25.5783 0.314065C25.5899 0.313629 25.6004 0.314943 25.6088 0.317005C25.617 0.319003 25.621 0.321153 25.6205 0.3209L25.4314 0.680428ZM25.7556 0.668267L25.9649 1.01645L26.0872 0.942944L25.8779 0.594763L25.6686 0.246581L25.5463 0.320085L25.7556 0.668267ZM25.8779 0.594763L26.0872 0.942944L26.2094 0.86944L26.0001 0.521259L25.7908 0.173077L25.6686 0.246581L25.8779 0.594763ZM26.0001 0.521259L26.2094 0.86944C26.2689 0.833673 26.3117 0.824173 26.3413 0.822932L26.3243 0.417041L26.3073 0.0111504C26.1209 0.0189519 25.9475 0.0789299 25.7908 0.173077L26.0001 0.521259ZM26.3243 0.417041L26.3413 0.822932L26.4636 0.817816L26.4466 0.411925L26.4296 0.00603447L26.3073 0.0111504L26.3243 0.417041ZM26.4466 0.411925L26.4636 0.817816L26.5859 0.8127L26.5689 0.406809L26.5519 0.000918503L26.4296 0.00603447L26.4466 0.411925ZM26.5689 0.406809L26.5859 0.8127C26.6224 0.81117 26.6661 0.818034 26.7213 0.8438L26.8931 0.47564L27.0648 0.10748C26.9039 0.0324298 26.7314 -0.00659315 26.5519 0.000918503L26.5689 0.406809ZM26.8931 0.47564L26.7213 0.8438L26.8436 0.900841L27.0154 0.532681L27.1871 0.16452L27.0648 0.10748L26.8931 0.47564ZM27.0154 0.532681L26.8436 0.900841L26.9659 0.957882L27.1376 0.589721L27.3094 0.221561L27.1871 0.16452L27.0154 0.532681ZM27.1376 0.589721L26.9659 0.957882C27.1776 1.05665 27.4069 1.06161 27.623 0.968138L27.4618 0.595252L27.3006 0.222366C27.2972 0.223832 27.2965 0.223778 27.2982 0.223426C27.3 0.223053 27.303 0.222661 27.3067 0.222723C27.3103 0.222786 27.313 0.223272 27.3141 0.223552C27.3152 0.223807 27.3137 0.223567 27.3094 0.221561L27.1376 0.589721ZM27.4618 0.595252L27.623 0.968138L27.7453 0.915269L27.5841 0.542384L27.4229 0.169498L27.3006 0.222366L27.4618 0.595252ZM27.5841 0.542384L27.7453 0.915269L27.8676 0.862401L27.7064 0.489515L27.5452 0.116629L27.4229 0.169498L27.5841 0.542384ZM27.7064 0.489515L27.8676 0.862401C27.8696 0.861523 27.8687 0.862147 27.8651 0.862845C27.8614 0.863566 27.8565 0.864038 27.8512 0.863808C27.8458 0.863579 27.8419 0.862742 27.8399 0.862196C27.8381 0.86169 27.8394 0.861814 27.8438 0.864115L28.0306 0.503341L28.2173 0.142567C28.0052 0.032745 27.7694 0.0196665 27.5452 0.116629L27.7064 0.489515ZM28.0306 0.503341L27.8438 0.864115L27.9661 0.927414L28.1528 0.56664L28.3396 0.205866L28.2173 0.142567L28.0306 0.503341ZM28.1528 0.56664L27.9661 0.927414L28.0884 0.990712L28.2751 0.629938L28.4619 0.269164L28.3396 0.205866L28.1528 0.56664ZM28.2751 0.629938L28.0884 0.990712C28.2373 1.06782 28.3958 1.118 28.562 1.13332L28.5993 0.728789L28.6366 0.324259C28.5867 0.319656 28.529 0.303929 28.4619 0.269164L28.2751 0.629938ZM28.5993 0.728789L28.562 1.13332L28.6843 1.14459L28.7216 0.740063L28.7589 0.335532L28.6366 0.324259L28.5993 0.728789ZM28.7216 0.740063L28.6843 1.14459L28.8066 1.15587L28.8439 0.751336L28.8812 0.346805L28.7589 0.335532L28.7216 0.740063ZM28.8439 0.751336L28.8066 1.15587C28.9583 1.16986 29.1095 1.15933 29.2586 1.12526L29.168 0.729229L29.0775 0.333197C29.0104 0.348531 28.9455 0.352738 28.8812 0.346805L28.8439 0.751336ZM29.168 0.729229L29.2586 1.12526L29.3809 1.09731L29.2903 0.701278L29.1998 0.305246L29.0775 0.333197L29.168 0.729229ZM29.2903 0.701278L29.3809 1.09731L29.5031 1.06936L29.4126 0.673327L29.3221 0.277296L29.1998 0.305246L29.2903 0.701278ZM29.4126 0.673327L29.5031 1.06936C29.5662 1.05495 29.6269 1.05196 29.6874 1.05937L29.7368 0.656138L29.7862 0.252908C29.6306 0.233839 29.4752 0.242303 29.3221 0.277296L29.4126 0.673327ZM29.7368 0.656138L29.6874 1.05937L29.8097 1.07435L29.8591 0.671121L29.9085 0.267891L29.7862 0.252908L29.7368 0.656138ZM29.8591 0.671121L29.8097 1.07435L29.9319 1.08933L29.9814 0.686104L30.0308 0.282874L29.9085 0.267891L29.8591 0.671121ZM29.9814 0.686104L29.9319 1.08933C30.1195 1.11232 30.3016 1.08027 30.4709 1.00478L30.3055 0.633719L30.1402 0.262662C30.0934 0.283499 30.0593 0.286375 30.0308 0.282874L29.9814 0.686104ZM30.3055 0.633719L30.4709 1.00478L30.5932 0.950274L30.4278 0.579217L30.2624 0.20816L30.1402 0.262662L30.3055 0.633719ZM30.4278 0.579217L30.5932 0.950274L30.7155 0.895772L30.5501 0.524715L30.3847 0.153658L30.2624 0.20816L30.4278 0.579217ZM30.5501 0.524715L30.7155 0.895772C30.7613 0.875328 30.7943 0.872791 30.822 0.876379L30.8743 0.473515L30.9266 0.0706512C30.7381 0.0461763 30.555 0.0777715 30.3847 0.153658L30.5501 0.524715ZM30.8743 0.473515L30.822 0.876379L30.9442 0.892257L30.9966 0.489393L31.0489 0.086529L30.9266 0.0706512L30.8743 0.473515ZM30.9966 0.489393L30.9442 0.892257L31.0665 0.908134L31.1188 0.505271L31.1712 0.102407L31.0489 0.086529L30.9966 0.489393ZM31.1188 0.505271L31.0665 0.908134C31.1141 0.914314 31.1713 0.932222 31.2396 0.971733L31.443 0.620101L31.6465 0.268469C31.4986 0.182936 31.3397 0.12429 31.1712 0.102407L31.1188 0.505271ZM31.443 0.620101L31.2396 0.971733L31.3619 1.04248L31.5653 0.69085L31.7688 0.339218L31.6465 0.268469L31.443 0.620101ZM31.5653 0.69085L31.3619 1.04248L31.4841 1.11323L31.6876 0.761599L31.891 0.409967L31.7688 0.339218L31.5653 0.69085ZM31.6876 0.761599L31.4841 1.11323C31.6412 1.20413 31.8141 1.26071 31.999 1.26652L32.0118 0.860478L32.0245 0.454432C31.9933 0.45345 31.9501 0.444116 31.891 0.409967L31.6876 0.761599ZM32.0118 0.860478L31.999 1.26652L32.1213 1.27037L32.134 0.864322L32.1468 0.458277L32.0245 0.454432L32.0118 0.860478ZM32.134 0.864322L32.1213 1.27037L32.2436 1.27421L32.2563 0.868166L32.2691 0.462121L32.1468 0.458277L32.134 0.864322ZM32.2563 0.868166L32.2436 1.27421C32.3723 1.27826 32.5008 1.27252 32.6291 1.25706L32.5805 0.853731L32.5319 0.450403C32.4441 0.460987 32.3565 0.464869 32.2691 0.462121L32.2563 0.868166ZM32.5805 0.853731L32.6291 1.25706L32.7514 1.24233L32.7028 0.838998L32.6542 0.435669L32.5319 0.450403L32.5805 0.853731ZM32.7028 0.838998L32.7514 1.24233L32.8737 1.22759L32.8251 0.824264L32.7765 0.420935L32.6542 0.435669L32.7028 0.838998ZM32.8251 0.824264L32.8737 1.22759C33.0326 1.20844 33.1852 1.15992 33.3304 1.08765L33.1493 0.724004L32.9681 0.360363C32.8971 0.395723 32.8337 0.414044 32.7765 0.420935L32.8251 0.824264ZM33.1493 0.724004L33.3304 1.08765L33.4526 1.02674L33.2715 0.663103L33.0904 0.299462L32.9681 0.360363L33.1493 0.724004ZM33.2715 0.663103L33.4526 1.02674L33.5749 0.965844L33.3938 0.602202L33.2127 0.238561L33.0904 0.299462L33.2715 0.663103ZM33.3938 0.602202L33.5749 0.965844C33.5813 0.96267 33.5851 0.961433 33.5865 0.961032C33.5878 0.960657 33.5875 0.960884 33.5858 0.961008C33.5841 0.961135 33.5824 0.96105 33.5813 0.960892C33.5802 0.960743 33.5809 0.960706 33.5836 0.961668L33.718 0.578299L33.8524 0.194929C33.6347 0.118612 33.413 0.1388 33.2127 0.238561L33.3938 0.602202ZM33.718 0.578299L33.5836 0.961668L33.7059 1.00454L33.8403 0.621167L33.9747 0.237798L33.8524 0.194929L33.718 0.578299ZM33.8403 0.621167L33.7059 1.00454L33.8282 1.04741L33.9626 0.664036L34.097 0.280666L33.9747 0.237798L33.8403 0.621167ZM33.9626 0.664036L33.8282 1.04741C34.0289 1.11778 34.2368 1.11312 34.4339 1.03648L34.2867 0.657843L34.1395 0.279206C34.1205 0.286593 34.1123 0.286059 34.097 0.280666L33.9626 0.664036ZM34.2867 0.657843L34.4339 1.03648L34.5562 0.98894L34.409 0.610303L34.2618 0.231666L34.1395 0.279206L34.2867 0.657843ZM34.409 0.610303L34.5562 0.98894L34.6785 0.9414L34.5313 0.562763L34.3841 0.184126L34.2618 0.231666L34.409 0.610303ZM34.5313 0.562763L34.6785 0.9414C34.6832 0.939576 34.6858 0.939017 34.6866 0.938869C34.6874 0.938734 34.6872 0.938816 34.6866 0.938806C34.6859 0.938795 34.6861 0.938713 34.6873 0.938988C34.6886 0.939278 34.6919 0.940129 34.6974 0.942443L34.8555 0.568215L35.0136 0.193986C34.8095 0.107774 34.5919 0.103332 34.3841 0.184126L34.5313 0.562763ZM34.8555 0.568215L34.6974 0.942443L34.8197 0.994096L34.9778 0.619867L35.1358 0.245638L35.0136 0.193986L34.8555 0.568215ZM34.9778 0.619867L34.8197 0.994096L34.942 1.04575L35.1001 0.671519L35.2581 0.297291L35.1358 0.245638L34.9778 0.619867ZM35.1001 0.671519L34.942 1.04575C35.1077 1.11577 35.2842 1.1461 35.4655 1.12759L35.4242 0.723445L35.383 0.319299C35.3482 0.32285 35.3085 0.318561 35.2581 0.297291L35.1001 0.671519ZM35.4242 0.723445L35.4655 1.12759L35.5878 1.11511L35.5465 0.710964L35.5053 0.306818L35.383 0.319299L35.4242 0.723445ZM35.5465 0.710964L35.5878 1.11511L35.71 1.10263L35.6688 0.698484L35.6275 0.294337L35.5053 0.306818L35.5465 0.710964ZM35.6688 0.698484L35.71 1.10263C35.8536 1.08798 35.9946 1.05464 36.1325 1.00424L35.993 0.622688L35.8535 0.241135C35.7752 0.26974 35.7001 0.286929 35.6275 0.294337L35.6688 0.698484ZM35.993 0.622688L36.1325 1.00424L36.2547 0.959543L36.1153 0.57799L35.9758 0.196436L35.8535 0.241135L35.993 0.622688ZM36.1153 0.57799L36.2547 0.959543L36.377 0.914844L36.2375 0.533291L36.0981 0.151738L35.9758 0.196436L36.1153 0.57799ZM36.2375 0.533291L36.377 0.914844C36.3798 0.913808 36.3805 0.913856 36.3793 0.914041C36.378 0.914237 36.376 0.914365 36.374 0.914232C36.3719 0.914101 36.3711 0.913808 36.3719 0.914047C36.3729 0.914312 36.3763 0.915356 36.3823 0.918309L36.5617 0.553825L36.7411 0.189341C36.5388 0.0897441 36.3156 0.0722042 36.0981 0.151738L36.2375 0.533291ZM36.5617 0.553825L36.3823 0.918309L36.5046 0.978499L36.684 0.614015L36.8634 0.249531L36.7411 0.189341L36.5617 0.553825ZM36.684 0.614015L36.5046 0.978499L36.6269 1.03869L36.8063 0.674204L36.9857 0.30972L36.8634 0.249531L36.684 0.614015ZM36.8063 0.674204L36.6269 1.03869C36.8311 1.13923 37.0562 1.15515 37.2744 1.07243L37.1305 0.692553L36.9865 0.312678C36.9837 0.313732 36.9832 0.313625 36.9848 0.313378C36.9864 0.313118 36.9887 0.31294 36.9913 0.313088C36.9939 0.313233 36.9952 0.31361 36.9948 0.313507C36.9944 0.313378 36.9914 0.31251 36.9857 0.30972L36.8063 0.674204ZM37.1305 0.692553L37.2744 1.07243L37.3967 1.02608L37.2527 0.646206L37.1088 0.266331L36.9865 0.312678L37.1305 0.692553ZM37.2527 0.646206L37.3967 1.02608L37.519 0.979733L37.375 0.599858L37.231 0.219984L37.1088 0.266331L37.2527 0.646206ZM37.375 0.599858L37.519 0.979733C37.5302 0.975499 37.5354 0.975437 37.5369 0.975438C37.5383 0.975439 37.5436 0.975509 37.5548 0.979779L37.6992 0.600067L37.8436 0.220354C37.6427 0.143952 37.4321 0.143792 37.231 0.219984L37.375 0.599858ZM37.6992 0.600067L37.5548 0.979779L37.6771 1.02628L37.8215 0.646571L37.9659 0.266858L37.8436 0.220354L37.6992 0.600067ZM37.8215 0.646571L37.6771 1.02628L37.7994 1.07279L37.9438 0.693075L38.0882 0.313362L37.9659 0.266858L37.8215 0.646571ZM37.9438 0.693075L37.7994 1.07279C37.9626 1.13485 38.141 1.16187 38.3235 1.12584L38.2448 0.72729L38.1661 0.328737C38.1633 0.329286 38.1411 0.333492 38.0882 0.313362L37.9438 0.693075ZM38.2448 0.72729L38.3235 1.12584L38.4283 1.10515L38.3496 0.706596L38.2709 0.308044L38.1661 0.328737L38.2448 0.72729ZM38.3496 0.706596L38.4283 1.10515L38.5331 1.08446L38.4544 0.685903L38.3757 0.287351L38.2709 0.308044L38.3496 0.706596ZM38.4544 0.685903L38.5331 1.08446C38.5797 1.07525 38.616 1.06796 38.6412 1.06273C38.6534 1.06021 38.6652 1.05769 38.675 1.05545C38.6791 1.05452 38.6875 1.05259 38.6968 1.0501C38.6999 1.04925 38.7123 1.04594 38.7274 1.04064C38.7327 1.03878 38.7538 1.03139 38.7792 1.01834C38.7899 1.01281 38.821 0.996503 38.8551 0.967756C38.8655 0.959028 38.9996 0.852998 38.9996 0.65705H38.5934H38.1871C38.1871 0.551907 38.2271 0.474082 38.2555 0.431536C38.2839 0.388925 38.3143 0.361012 38.3315 0.346445C38.3656 0.317735 38.3966 0.301473 38.4072 0.295989C38.4324 0.283028 38.4533 0.275751 38.4583 0.274017C38.4726 0.268975 38.4839 0.265984 38.4856 0.265524C38.492 0.263809 38.496 0.26293 38.4943 0.263319C38.4925 0.263725 38.487 0.264933 38.476 0.267215C38.4549 0.271603 38.4218 0.278265 38.3757 0.287351L38.4544 0.685903ZM38.5934 0.65705H38.9996V0.655976H38.5934H38.1871V0.65705H38.5934ZM38.5934 0.655976L38.6033 0.249853L38.5018 0.247356L38.4918 0.65348L38.4818 1.0596L38.5834 1.0621L38.5934 0.655976ZM38.4918 0.65348V1.05973H38.5934V0.65348V0.247234H38.4918V0.65348Z" fill="url(#paint0_linear_298_22585)"/>
  </g>

  <!-- Bottom Line -->
  <g transform="translate(5, 14.5)">
    <path d="M28.8979 0.624484L28.8634 1.03147L28.8806 1.03293L28.8979 1.03293L28.8979 0.624484ZM28.2652 0.577419L28.2469 0.985455L28.2652 0.577419ZM28.0193 0.566405L28.0376 0.158369L28.0193 0.566405ZM27.1216 0.501229L27.1244 0.909664L27.1216 0.501229ZM26.8757 0.502957L26.8785 0.911392L26.8757 0.502957ZM24.0166 0.490809L24.0727 0.895376L24.0166 0.490809ZM23.1188 0.80769L23.1688 1.21306L23.1188 0.80769ZM20.1367 0.486605L20.1821 0.0806829L20.1367 0.486605ZM17.7265 0.705993L17.7342 1.11436V1.11436L17.7265 0.705993ZM16.5829 0.793977L16.7169 1.17979L16.5829 0.793977ZM16.134 0.751276L16.268 0.365455L16.134 0.751276ZM16.011 0.708561L15.877 1.09438L16.011 0.708561ZM13.8467 0.552542L13.8917 0.958493L13.8467 0.552542ZM12.826 0.772581L12.8293 1.18101L12.826 0.772581ZM11.1105 0.531892L10.9583 0.910901L11.1105 0.531892ZM10.9876 0.482506L11.1398 0.103497L11.1398 0.103497L10.9876 0.482506ZM10.5387 0.499958L10.7961 0.817063L10.5387 0.499958ZM7.43369 0.432281L7.53817 0.0374257L7.43369 0.432281ZM6.53593 0.708263L6.72369 0.345531L6.53593 0.708263ZM5.9641 0.52255L6.02826 0.925925L5.9641 0.52255ZM5.1464 0.507046L5.22533 0.106301L5.1464 0.507046ZM4.57457 0.413428L4.63535 0.00952946L4.57457 0.413428ZM4.12569 0.556547L4.33229 0.908892L4.12569 0.556547ZM3.10499 0.660195L3.16562 0.256275L3.10499 0.660195ZM2.41022 0.609595L2.4256 1.01775L2.41022 0.609595ZM0.408844 0.541488L0.000399269 0.541488L0.000399252 0.735854L0.151229 0.858445L0.408844 0.541488ZM0.510956 0.624482L0.510956 1.03293L1.66107 1.03293L0.768571 0.307524L0.510956 0.624482ZM29 0.624484L29 0.216039L28.8979 0.216039L28.8979 0.624484L28.8979 1.03293L29 1.03293L29 0.624484ZM28.8979 0.624484L28.9323 0.217495L28.7304 0.200396L28.6959 0.607385L28.6615 1.01437L28.8634 1.03147L28.8979 0.624484ZM28.6959 0.607385L28.7304 0.200396C28.5494 0.185079 28.3998 0.174595 28.2835 0.169383L28.2652 0.577419L28.2469 0.985455C28.3479 0.989976 28.4854 0.999469 28.6615 1.01437L28.6959 0.607385ZM28.2652 0.577419L28.2835 0.169383L28.1605 0.163876L28.1423 0.571912L28.124 0.979948L28.2469 0.985455L28.2652 0.577419ZM28.1423 0.571912L28.1605 0.163876L28.0376 0.158369L28.0193 0.566405L28.001 0.974441L28.124 0.979948L28.1423 0.571912ZM28.0193 0.566405L28.0376 0.158369C27.9369 0.153858 27.8361 0.146403 27.7353 0.135997L27.6934 0.542284L27.6514 0.948571C27.7679 0.960593 27.8845 0.969219 28.001 0.974441L28.0193 0.566405ZM27.6934 0.542284L27.7353 0.135997L27.6124 0.123308L27.5704 0.529595L27.5285 0.935881L27.6514 0.948571L27.6934 0.542284ZM27.5704 0.529595L27.6124 0.123308L27.4894 0.110618L27.4475 0.516905L27.4056 0.923192L27.5285 0.935881L27.5704 0.529595ZM27.4475 0.516905L27.4894 0.110618C27.366 0.0978761 27.2424 0.091925 27.1187 0.0927943L27.1216 0.501229L27.1244 0.909664C27.218 0.909006 27.3117 0.913506 27.4056 0.923192L27.4475 0.516905ZM27.1216 0.501229L27.1187 0.0927943L26.9957 0.0936584L26.9986 0.502093L27.0015 0.910528L27.1244 0.909664L27.1216 0.501229ZM26.9986 0.502093L26.9957 0.0936584L26.8728 0.0945225L26.8757 0.502957L26.8785 0.911392L27.0015 0.910528L26.9986 0.502093ZM26.8757 0.502957L26.8728 0.0945225C26.7072 0.0956864 26.5465 0.130847 26.3932 0.19446L26.5497 0.571721L26.7063 0.948982C26.7702 0.922437 26.8269 0.911756 26.8785 0.911392L26.8757 0.502957ZM26.5497 0.571721L26.3932 0.19446L26.2703 0.245471L26.4268 0.622731L26.5833 0.999992L26.7063 0.948982L26.5497 0.571721ZM26.4268 0.622731L26.2703 0.245471L26.1473 0.296481L26.3039 0.673742L26.4604 1.051L26.5833 0.999992L26.4268 0.622731ZM26.3039 0.673742L26.1473 0.296481C26.124 0.306175 26.1138 0.304927 26.0999 0.300559L25.9779 0.69037L25.856 1.08018C26.0593 1.1438 26.2665 1.13147 26.4604 1.051L26.3039 0.673742ZM25.9779 0.69037L26.0999 0.300559L25.9769 0.262094L25.855 0.651904L25.733 1.04171L25.856 1.08018L25.9779 0.69037ZM25.855 0.651904L25.9769 0.262094L25.854 0.223628L25.732 0.613438L25.6101 1.00325L25.733 1.04171L25.855 0.651904ZM25.732 0.613438L25.854 0.223628C25.7371 0.187062 25.62 0.154482 25.5027 0.12592L25.4061 0.522773L25.3095 0.919627C25.4094 0.943966 25.5096 0.971828 25.6101 1.00325L25.732 0.613438ZM25.4061 0.522773L25.5027 0.12592L25.3798 0.0959892L25.2831 0.492843L25.1865 0.889697L25.3095 0.919627L25.4061 0.522773ZM25.2831 0.492843L25.3798 0.0959892L25.2568 0.0660587L25.1602 0.462912L25.0636 0.859766L25.1865 0.889697L25.2831 0.492843ZM25.1602 0.462912L25.2568 0.0660587C25.115 0.0315388 24.9713 0.0152097 24.8265 0.0179521L24.8343 0.426324L24.842 0.834696C24.9145 0.833323 24.9881 0.841386 25.0636 0.859766L25.1602 0.462912ZM24.8343 0.426324L24.8265 0.0179521L24.7036 0.0202806L24.7113 0.428652L24.7191 0.837024L24.842 0.834696L24.8343 0.426324ZM24.7113 0.428652L24.7036 0.0202806L24.5806 0.0226092L24.5884 0.430981L24.5961 0.839353L24.7191 0.837024L24.7113 0.428652ZM24.5884 0.430981L24.5806 0.0226092C24.4557 0.0249767 24.3308 0.034833 24.2063 0.052117L24.2624 0.456685L24.3186 0.861252C24.4113 0.848381 24.5038 0.841101 24.5961 0.839353L24.5884 0.430981ZM24.2624 0.456685L24.2063 0.052117L24.0834 0.0691789L24.1395 0.473747L24.1956 0.878314L24.3186 0.861252L24.2624 0.456685ZM24.1395 0.473747L24.0834 0.0691789L23.9604 0.0862408L24.0166 0.490809L24.0727 0.895376L24.1956 0.878314L24.1395 0.473747ZM24.0166 0.490809L23.9604 0.0862408C23.8061 0.107658 23.657 0.154718 23.514 0.22326L23.6906 0.591561L23.8672 0.959863C23.9415 0.924224 24.0097 0.904115 24.0727 0.895376L24.0166 0.490809ZM23.6906 0.591561L23.514 0.22326L23.3911 0.282204L23.5677 0.650506L23.7443 1.01881L23.8672 0.959863L23.6906 0.591561ZM23.5677 0.650506L23.3911 0.282204L23.2682 0.341149L23.4447 0.709451L23.6213 1.07775L23.7443 1.01881L23.5677 0.650506ZM23.4447 0.709451L23.2682 0.341149C23.1954 0.376022 23.1293 0.39485 23.0688 0.402318L23.1188 0.80769L23.1688 1.21306C23.3256 1.19372 23.4768 1.14706 23.6213 1.07775L23.4447 0.709451ZM23.1188 0.80769L23.0688 0.402318L22.9459 0.417484L22.9959 0.822856L23.0459 1.22823L23.1688 1.21306L23.1188 0.80769ZM22.9959 0.822856L22.9459 0.417484L22.8229 0.43265L22.8729 0.838022L22.9229 1.24339L23.0459 1.22823L22.9959 0.822856ZM22.8729 0.838022L22.8229 0.43265C22.7517 0.441428 22.6809 0.440366 22.6092 0.429315L22.547 0.832986L22.4847 1.23666C22.6304 1.25913 22.7768 1.26142 22.9229 1.24339L22.8729 0.838022ZM22.547 0.832986L22.6092 0.429315L22.4863 0.41035L22.424 0.81402L22.3618 1.21769L22.4847 1.23666L22.547 0.832986ZM22.424 0.81402L22.4863 0.41035L22.3634 0.391384L22.3011 0.795054L22.2388 1.19872L22.3618 1.21769L22.424 0.81402ZM22.3011 0.795054L22.3634 0.391384C22.3168 0.384193 22.2593 0.364713 22.1898 0.321752L21.9752 0.669278L21.7606 1.0168C21.9083 1.10802 22.0681 1.17239 22.2388 1.19872L22.3011 0.795054ZM21.9752 0.669278L22.1898 0.321752L22.0668 0.245835L21.8522 0.593361L21.6376 0.940887L21.7606 1.0168L21.9752 0.669278ZM21.8522 0.593361L22.0668 0.245835L21.9439 0.169917L21.7293 0.517443L21.5147 0.864969L21.6376 0.940887L21.8522 0.593361ZM21.7293 0.517443L21.9439 0.169917C21.7495 0.0499145 21.5206 0.00394324 21.2852 0.0750394L21.4033 0.466036L21.5214 0.857032C21.5209 0.857184 21.5184 0.857874 21.5142 0.858174C21.51 0.858477 21.506 0.858252 21.5027 0.857732C21.4955 0.856609 21.4991 0.855367 21.5147 0.864969L21.7293 0.517443ZM21.4033 0.466036L21.2852 0.0750394L21.1623 0.112176L21.2804 0.503172L21.3985 0.894169L21.5214 0.857032L21.4033 0.466036ZM21.2804 0.503172L21.1623 0.112176L21.0393 0.149312L21.1574 0.540309L21.2756 0.931305L21.3985 0.894169L21.2804 0.503172ZM21.1574 0.540309L21.0393 0.149312C20.9832 0.166277 20.9319 0.170181 20.8818 0.163968L20.8315 0.569301L20.7812 0.974633C20.9484 0.995402 21.1144 0.979977 21.2756 0.931305L21.1574 0.540309ZM20.8315 0.569301L20.8818 0.163968L20.7589 0.148703L20.7086 0.554035L20.6582 0.959368L20.7812 0.974633L20.8315 0.569301ZM20.7086 0.554035L20.7589 0.148703L20.636 0.133438L20.5856 0.53877L20.5353 0.944103L20.6582 0.959368L20.7086 0.554035ZM20.5856 0.53877L20.636 0.133438C20.5256 0.119741 20.4153 0.106733 20.305 0.0944129L20.2597 0.500334L20.2144 0.906256C20.3213 0.918203 20.4283 0.930819 20.5353 0.944103L20.5856 0.53877ZM20.2597 0.500334L20.305 0.0944129L20.1821 0.0806829L20.1367 0.486605L20.0914 0.892526L20.2144 0.906256L20.2597 0.500334ZM20.1367 0.486605L20.1821 0.0806829L20.0591 0.066953L20.0138 0.472875L19.9685 0.878796L20.0914 0.892526L20.1367 0.486605ZM20.0138 0.472875L20.0591 0.066953C19.8334 0.0417423 19.628 0.112165 19.456 0.230855L19.6879 0.56708L19.9198 0.903305C19.9438 0.886738 19.9586 0.881349 19.9642 0.87971C19.9671 0.87889 19.9684 0.878789 19.9684 0.878786C19.9685 0.878779 19.9684 0.878784 19.9684 0.878783C19.9683 0.878782 19.9683 0.878777 19.9685 0.878796L20.0138 0.472875ZM19.6879 0.56708L19.456 0.230855L19.333 0.315652L19.5649 0.651877L19.7968 0.988102L19.9198 0.903305L19.6879 0.56708ZM19.5649 0.651877L19.333 0.315652L19.2101 0.40045L19.442 0.736675L19.6739 1.0729L19.7968 0.988102L19.5649 0.651877ZM19.442 0.736675L19.2101 0.40045C19.2055 0.403617 19.2242 0.389845 19.2617 0.388253C19.3005 0.386609 19.3248 0.399398 19.3275 0.401019L19.116 0.750492L18.9046 1.09997C19.0159 1.16731 19.1489 1.21066 19.2963 1.20441C19.4425 1.19821 19.5698 1.14467 19.6739 1.0729L19.442 0.736675ZM19.116 0.750492L19.3275 0.401019L19.2045 0.326645L18.9931 0.676119L18.7817 1.02559L18.9046 1.09997L19.116 0.750492ZM18.9931 0.676119L19.2045 0.326645L19.0816 0.252272L18.8702 0.601745L18.6587 0.951219L18.7817 1.02559L18.9931 0.676119ZM18.8702 0.601745L19.0816 0.252272C18.882 0.131533 18.6483 0.0916875 18.4123 0.172195L18.5442 0.55876L18.6761 0.945325C18.6758 0.945438 18.673 0.946322 18.6682 0.946822C18.6634 0.94733 18.6583 0.947243 18.6538 0.946643C18.6493 0.946056 18.6471 0.945208 18.6475 0.94535C18.648 0.945541 18.6517 0.946982 18.6587 0.951219L18.8702 0.601745ZM18.5442 0.55876L18.4123 0.172195L18.2894 0.214141L18.4213 0.600706L18.5532 0.987271L18.6761 0.945325L18.5442 0.55876ZM18.4213 0.600706L18.2894 0.214141L18.1664 0.256086L18.2983 0.642651L18.4302 1.02922L18.5532 0.987271L18.4213 0.600706ZM18.2983 0.642651L18.1664 0.256086C18.0955 0.280278 18.0287 0.291754 17.9647 0.292967L17.9724 0.701339L17.9801 1.10971C18.1334 1.10681 18.2838 1.07916 18.4302 1.02922L18.2983 0.642651ZM17.9724 0.701339L17.9647 0.292967L17.8417 0.295294L17.8494 0.703666L17.8572 1.11204L17.9801 1.10971L17.9724 0.701339ZM17.8494 0.703666L17.8417 0.295294L17.7188 0.297621L17.7265 0.705993L17.7342 1.11436L17.8572 1.11204L17.8494 0.703666ZM17.7265 0.705993L17.7188 0.297621C17.6264 0.29937 17.5339 0.295627 17.4412 0.286361L17.4006 0.692779L17.3599 1.0992C17.4846 1.11166 17.6094 1.11673 17.7342 1.11436L17.7265 0.705993ZM17.4006 0.692779L17.4412 0.286361L17.3183 0.274066L17.2776 0.680484L17.237 1.0869L17.3599 1.0992L17.4006 0.692779ZM17.2776 0.680484L17.3183 0.274066L17.1953 0.261771L17.1547 0.668189L17.114 1.07461L17.237 1.0869L17.2776 0.680484ZM17.1547 0.668189L17.1953 0.261771C17.0245 0.244687 16.8563 0.266543 16.6947 0.322715L16.8287 0.708527L16.9628 1.09434C17.0185 1.075 17.0676 1.06996 17.114 1.07461L17.1547 0.668189ZM16.8287 0.708527L16.6947 0.322715L16.5717 0.365441L16.7058 0.751252L16.8399 1.13706L16.9628 1.09434L16.8287 0.708527ZM16.7058 0.751252L16.5717 0.365441L16.4488 0.408166L16.5829 0.793977L16.7169 1.17979L16.8399 1.13706L16.7058 0.751252ZM16.5829 0.793977L16.4488 0.408166C16.427 0.415749 16.4128 0.415748 16.391 0.408169L16.2569 0.793991L16.1229 1.17981C16.3184 1.24773 16.5215 1.24772 16.7169 1.17979L16.5829 0.793977ZM16.2569 0.793991L16.391 0.408169L16.268 0.365455L16.134 0.751276L15.9999 1.1371L16.1229 1.17981L16.2569 0.793991ZM16.134 0.751276L16.268 0.365455L16.1451 0.32274L16.011 0.708561L15.877 1.09438L15.9999 1.1371L16.134 0.751276ZM16.011 0.708561L16.1451 0.32274C16.0258 0.281291 15.9061 0.245224 15.7859 0.214625L15.6851 0.610435L15.5843 1.00625C15.6814 1.03099 15.779 1.06034 15.877 1.09438L16.011 0.708561ZM15.6851 0.610435L15.7859 0.214625L15.663 0.183315L15.5622 0.579125L15.4614 0.974936L15.5843 1.00625L15.6851 0.610435ZM15.5622 0.579125L15.663 0.183315L15.54 0.152004L15.4392 0.547815L15.3384 0.943626L15.4614 0.974936L15.5622 0.579125ZM15.4392 0.547815L15.54 0.152004C15.3208 0.0961648 15.1068 0.133497 14.9178 0.236507L15.1133 0.595139L15.3088 0.953771C15.3259 0.944423 15.3342 0.943202 15.3349 0.943101C15.3351 0.943073 15.3353 0.943059 15.3353 0.943052C15.3354 0.943045 15.3354 0.943043 15.3354 0.943043C15.3354 0.943043 15.3354 0.943043 15.3354 0.943043C15.3354 0.943043 15.3354 0.943043 15.3354 0.943043C15.3354 0.943044 15.3356 0.943053 15.336 0.943119C15.3365 0.943185 15.3372 0.943326 15.3384 0.943626L15.4392 0.547815ZM15.1133 0.595139L14.9178 0.236507L14.7949 0.303517L14.9903 0.662149L15.1858 1.02078L15.3088 0.953771L15.1133 0.595139ZM14.9903 0.662149L14.7949 0.303517L14.6719 0.370528L14.8674 0.72916L15.0629 1.08779L15.1858 1.02078L14.9903 0.662149ZM14.8674 0.72916L14.6719 0.370528C14.6678 0.372752 14.6783 0.36646 14.6992 0.366194C14.7088 0.366073 14.7171 0.367293 14.7233 0.368874C14.7293 0.3704 14.7316 0.371789 14.7298 0.370868L14.5415 0.73329L14.3531 1.09571C14.5839 1.21565 14.8364 1.21123 15.0629 1.08779L14.8674 0.72916ZM14.5415 0.73329L14.7298 0.370868L14.6069 0.306974L14.4185 0.669396L14.2302 1.03182L14.3531 1.09571L14.5415 0.73329ZM14.4185 0.669396L14.6069 0.306974L14.4839 0.243079L14.2956 0.605502L14.1072 0.967924L14.2302 1.03182L14.4185 0.669396ZM14.2956 0.605502L14.4839 0.243079C14.3124 0.153955 14.1231 0.110909 13.9246 0.132943L13.9696 0.538895L14.0147 0.944847C14.0335 0.942761 14.0614 0.944119 14.1072 0.967924L14.2956 0.605502ZM13.9696 0.538895L13.9246 0.132943L13.8016 0.14659L13.8467 0.552542L13.8917 0.958493L14.0147 0.944847L13.9696 0.538895ZM13.8467 0.552542L13.8016 0.14659L13.6787 0.160237L13.7237 0.566189L13.7688 0.97214L13.8917 0.958493L13.8467 0.552542ZM13.7237 0.566189L13.6787 0.160237C13.541 0.175523 13.4049 0.205514 13.2709 0.249341L13.3978 0.637562L13.5247 1.02578C13.608 0.998566 13.6892 0.980974 13.7688 0.97214L13.7237 0.566189ZM13.3978 0.637562L13.2709 0.249341L13.1479 0.289538L13.2749 0.677759L13.4018 1.06598L13.5247 1.02578L13.3978 0.637562ZM13.2749 0.677759L13.1479 0.289538L13.025 0.329734L13.1519 0.717956L13.2789 1.10618L13.4018 1.06598L13.2749 0.677759ZM13.1519 0.717956L13.025 0.329734C12.9542 0.352892 12.8871 0.363619 12.8226 0.36415L12.826 0.772581L12.8293 1.18101C12.9821 1.17975 13.1324 1.15406 13.2789 1.10618L13.1519 0.717956ZM12.826 0.772581L12.8226 0.36415L12.6997 0.365162L12.703 0.773593L12.7064 1.18202L12.8293 1.18101L12.826 0.772581ZM12.703 0.773593L12.6997 0.365162L12.5767 0.366174L12.5801 0.774605L12.5835 1.18304L12.7064 1.18202L12.703 0.773593ZM12.5801 0.774605L12.5767 0.366174C12.5289 0.366567 12.4757 0.356959 12.4141 0.330762L12.2542 0.70658L12.0942 1.0824C12.2499 1.14869 12.414 1.18443 12.5835 1.18304L12.5801 0.774605ZM12.2542 0.70658L12.4141 0.330762L12.2912 0.278433L12.1312 0.654251L11.9713 1.03007L12.0942 1.0824L12.2542 0.70658ZM12.1312 0.654251L12.2912 0.278433L12.1682 0.226104L12.0083 0.601922L11.8483 0.977739L11.9713 1.03007L12.1312 0.654251ZM12.0083 0.601922L12.1682 0.226104C12 0.154508 11.8206 0.124291 11.6363 0.145176L11.6823 0.551023L11.7283 0.956871C11.7613 0.953131 11.7992 0.956847 11.8483 0.977739L12.0083 0.601922ZM11.6823 0.551023L11.6363 0.145176L11.5134 0.159108L11.5594 0.564956L11.6054 0.970803L11.7283 0.956871L11.6823 0.551023ZM11.5594 0.564956L11.5134 0.159108L11.3905 0.17304L11.4365 0.578888L11.4824 0.984735L11.6054 0.970803L11.5594 0.564956ZM11.4365 0.578888L11.3905 0.17304C11.3538 0.177191 11.3132 0.173124 11.2628 0.152882L11.1105 0.531892L10.9583 0.910901C11.1252 0.977945 11.3018 1.00521 11.4824 0.984735L11.4365 0.578888ZM11.1105 0.531892L11.2628 0.152882L11.1398 0.103497L10.9876 0.482506L10.8353 0.861516L10.9583 0.910901L11.1105 0.531892ZM10.9876 0.482506L11.1398 0.103497L11.0169 0.0541112L10.8646 0.433121L10.7124 0.81213L10.8353 0.861516L10.9876 0.482506ZM10.8646 0.433121L11.0169 0.0541112C10.7413 -0.0565965 10.4783 0.0228848 10.2813 0.182853L10.5387 0.499958L10.7961 0.817063C10.8125 0.803745 10.8083 0.812173 10.7837 0.817217C10.7714 0.819742 10.7574 0.820635 10.7432 0.819234C10.7291 0.817851 10.7186 0.814611 10.7124 0.81213L10.8646 0.433121ZM10.5387 0.499958L10.2813 0.182853L10.1583 0.28266L10.4157 0.599765L10.6732 0.91687L10.7961 0.817063L10.5387 0.499958ZM10.4157 0.599765L10.1583 0.28266L10.0354 0.382467L10.2928 0.699572L10.5502 1.01668L10.6732 0.91687L10.4157 0.599765ZM10.2928 0.699572L10.0354 0.382467C10.0221 0.393251 10.033 0.380135 10.067 0.374839C10.0838 0.372224 10.1012 0.372397 10.1177 0.375228C10.1337 0.377993 10.1446 0.382558 10.1496 0.385061L9.96687 0.750345L9.78413 1.11563C9.90602 1.17661 10.0458 1.20488 10.1927 1.18199C10.3354 1.15977 10.4549 1.0941 10.5502 1.01668L10.2928 0.699572ZM9.96687 0.750345L10.1496 0.385061L10.0267 0.323556L9.84393 0.688841L9.66118 1.05413L9.78413 1.11563L9.96687 0.750345ZM9.84393 0.688841L10.0267 0.323556L9.90372 0.262052L9.72098 0.627336L9.53824 0.992621L9.66118 1.05413L9.84393 0.688841ZM9.72098 0.627336L9.90372 0.262052C9.71871 0.169497 9.51384 0.136981 9.30449 0.18458L9.39504 0.58286L9.4856 0.981141C9.49354 0.979335 9.50596 0.97647 9.53824 0.992621L9.72098 0.627336ZM9.39504 0.58286L9.30449 0.18458L9.18155 0.212532L9.2721 0.610812L9.36266 1.00909L9.4856 0.981141L9.39504 0.58286ZM9.2721 0.610812L9.18155 0.212532L9.05861 0.240484L9.14916 0.638765L9.23971 1.03705L9.36266 1.00909L9.2721 0.610812ZM9.14916 0.638765L9.05861 0.240484C8.97825 0.258754 8.89926 0.26781 8.82114 0.268207L8.82322 0.676647L8.8253 1.08509C8.96447 1.08438 9.10278 1.06818 9.23971 1.03705L9.14916 0.638765ZM8.82322 0.676647L8.82114 0.268207L8.6982 0.268833L8.70028 0.677273L8.70236 1.08571L8.8253 1.08509L8.82322 0.676647ZM8.70028 0.677273L8.6982 0.268833L8.57526 0.269458L8.57734 0.677898L8.57942 1.08634L8.70236 1.08571L8.70028 0.677273ZM8.57734 0.677898L8.57526 0.269458C8.50059 0.269838 8.42486 0.261049 8.34739 0.242319L8.2514 0.639324L8.15541 1.03633C8.29523 1.07014 8.4368 1.08706 8.57942 1.08634L8.57734 0.677898ZM8.2514 0.639324L8.34739 0.242319L8.22445 0.212593L8.12846 0.609598L8.03247 1.0066L8.15541 1.03633L8.2514 0.639324ZM8.12846 0.609598L8.22445 0.212593L8.10151 0.182867L8.00552 0.579873L7.90953 0.976878L8.03247 1.0066L8.12846 0.609598ZM8.00552 0.579873L8.10151 0.182867C7.99571 0.157288 7.8899 0.130496 7.78406 0.10249L7.67958 0.497345L7.57509 0.8922C7.68655 0.921692 7.79802 0.949919 7.90953 0.976878L8.00552 0.579873ZM7.67958 0.497345L7.78406 0.10249L7.66112 0.0699578L7.55663 0.464813L7.45215 0.859668L7.57509 0.8922L7.67958 0.497345ZM7.55663 0.464813L7.66112 0.0699578L7.53817 0.0374257L7.43369 0.432281L7.32921 0.827136L7.45215 0.859668L7.55663 0.464813ZM7.43369 0.432281L7.53817 0.0374257C7.29098 -0.0279859 7.05962 0.0382256 6.87228 0.170409L7.10775 0.504144L7.34322 0.837879C7.36167 0.824862 7.36664 0.825792 7.35866 0.82755C7.35476 0.82841 7.34938 0.829083 7.3432 0.828947C7.33703 0.82881 7.33216 0.827917 7.32921 0.827136L7.43369 0.432281ZM7.10775 0.504144L6.87228 0.170409L6.74933 0.257153L6.98481 0.590888L7.22028 0.924623L7.34322 0.837879L7.10775 0.504144ZM6.98481 0.590888L6.74933 0.257153L6.62639 0.343898L6.86187 0.677633L7.09734 1.01137L7.22028 0.924623L6.98481 0.590888ZM6.86187 0.677633L6.62639 0.343898C6.61766 0.350062 6.63002 0.339012 6.66068 0.33613C6.67533 0.334754 6.68958 0.335761 6.70205 0.338403C6.71419 0.340975 6.72155 0.344427 6.72369 0.345531L6.53593 0.708263L6.34817 1.07099C6.46336 1.13062 6.59561 1.16274 6.73711 1.14944C6.87642 1.13635 6.99743 1.08186 7.09734 1.01137L6.86187 0.677633ZM6.53593 0.708263L6.72369 0.345531L6.60074 0.281894L6.41299 0.644625L6.22523 1.00736L6.34817 1.07099L6.53593 0.708263ZM6.41299 0.644625L6.60074 0.281894L6.4778 0.218256L6.29004 0.580987L6.10229 0.943719L6.22523 1.00736L6.41299 0.644625ZM6.29004 0.580987L6.4778 0.218256C6.3008 0.126633 6.10437 0.0866632 5.89995 0.119175L5.9641 0.52255L6.02826 0.925925C6.04114 0.923877 6.062 0.922866 6.10229 0.943719L6.29004 0.580987ZM5.9641 0.52255L5.89995 0.119175L5.77701 0.138729L5.84116 0.542104L5.90532 0.945479L6.02826 0.925925L5.9641 0.52255ZM5.84116 0.542104L5.77701 0.138729L5.65407 0.158283L5.71822 0.561658L5.78238 0.965033L5.90532 0.945479L5.84116 0.542104ZM5.71822 0.561658L5.65407 0.158283C5.59322 0.167961 5.53301 0.166904 5.47122 0.154733L5.39228 0.555478L5.31335 0.956223C5.46885 0.986852 5.62593 0.989915 5.78238 0.965033L5.71822 0.561658ZM5.39228 0.555478L5.47122 0.154733L5.34827 0.130517L5.26934 0.531262L5.1904 0.932007L5.31335 0.956223L5.39228 0.555478ZM5.26934 0.531262L5.34827 0.130517L5.22533 0.106301L5.1464 0.507046L5.06746 0.907791L5.1904 0.932007L5.26934 0.531262ZM5.1464 0.507046L5.22533 0.106301C5.1107 0.0837221 4.996 0.0637948 4.88123 0.0465259L4.82046 0.450425L4.75969 0.854323C4.86221 0.869749 4.9648 0.887569 5.06746 0.907791L5.1464 0.507046ZM4.82046 0.450425L4.88123 0.0465259L4.75829 0.0280277L4.69752 0.431926L4.63674 0.835825L4.75969 0.854323L4.82046 0.450425ZM4.69752 0.431926L4.75829 0.0280277L4.63535 0.00952946L4.57457 0.413428L4.5138 0.817327L4.63674 0.835825L4.69752 0.431926ZM4.57457 0.413428L4.63535 0.00952946C4.42101 -0.02272 4.21888 0.0284337 4.04204 0.132117L4.24864 0.484462L4.45523 0.836807C4.49569 0.813084 4.51084 0.816882 4.5138 0.817327L4.57457 0.413428ZM4.24864 0.484462L4.04204 0.132117L3.9191 0.204202L4.12569 0.556547L4.33229 0.908892L4.45523 0.836807L4.24864 0.484462ZM4.12569 0.556547L3.9191 0.204202L3.79616 0.276287L4.00275 0.628632L4.20934 0.980977L4.33229 0.908892L4.12569 0.556547ZM4.00275 0.628632L3.79616 0.276287C3.74702 0.305102 3.71933 0.30644 3.70498 0.305448L3.67681 0.712921L3.64865 1.12039C3.85159 1.13442 4.0412 1.07957 4.20934 0.980977L4.00275 0.628632ZM3.67681 0.712921L3.70498 0.305448L3.58204 0.296949L3.55387 0.704422L3.5257 1.11189L3.64865 1.12039L3.67681 0.712921ZM3.55387 0.704422L3.58204 0.296949L3.4591 0.288451L3.43093 0.695923L3.40276 1.1034L3.5257 1.11189L3.55387 0.704422ZM3.43093 0.695923L3.4591 0.288451C3.36141 0.281698 3.26359 0.270981 3.16562 0.256275L3.10499 0.660195L3.04436 1.06411C3.16368 1.08203 3.28316 1.09513 3.40276 1.1034L3.43093 0.695923ZM3.10499 0.660195L3.16562 0.256275L3.04268 0.237821L2.98205 0.641741L2.92142 1.04566L3.04436 1.06411L3.10499 0.660195ZM2.98205 0.641741L3.04268 0.237821L2.91974 0.219367L2.85911 0.623286L2.79848 1.02721L2.92142 1.04566L2.98205 0.641741ZM2.85911 0.623286L2.91974 0.219367C2.78621 0.199323 2.65211 0.191748 2.51779 0.196808L2.53317 0.604964L2.54854 1.01312C2.63151 1.00999 2.71471 1.01463 2.79848 1.02721L2.85911 0.623286ZM2.53317 0.604964L2.51779 0.196808L2.39485 0.20144L2.41022 0.609595L2.4256 1.01775L2.54854 1.01312L2.53317 0.604964ZM2.41022 0.609595L2.39485 0.20144L2.27191 0.206072L2.28728 0.614227L2.30266 1.02238L2.4256 1.01775L2.41022 0.609595ZM2.28728 0.614227L2.27191 0.206072C2.19329 0.209033 2.11425 0.203426 2.03427 0.188913L1.96134 0.590796L1.88842 0.992679C2.02573 1.01759 2.16398 1.02761 2.30266 1.02238L2.28728 0.614227ZM1.96134 0.590796L2.03427 0.188913L1.91132 0.166606L1.8384 0.568488L1.76548 0.970371L1.88842 0.992679L1.96134 0.590796ZM1.8384 0.568488L1.91132 0.166606L1.78838 0.144298L1.71546 0.546181L1.64254 0.948064L1.76548 0.970371L1.8384 0.568488ZM1.71546 0.546181L1.78838 0.144298C1.60972 0.11188 1.43166 0.126351 1.26046 0.183363L1.38952 0.570884L1.51858 0.958404C1.56467 0.943052 1.60391 0.941054 1.64254 0.948064L1.71546 0.546181ZM1.38952 0.570884L1.26046 0.183363L1.13752 0.224307L1.26658 0.611827L1.39563 0.999347L1.51858 0.958404L1.38952 0.570884ZM1.26658 0.611827L1.13752 0.224307L1.01458 0.26525L1.14364 0.65277L1.27269 1.04029L1.39563 0.999347L1.26658 0.611827ZM1.14364 0.65277L1.01458 0.26525C1.00591 0.268137 1.00232 0.267894 1.0014 0.267848C1.00024 0.267789 0.993871 0.267423 0.980517 0.261618L0.817698 0.636207L0.654877 1.0108C0.852389 1.09665 1.06492 1.10948 1.27269 1.04029L1.14364 0.65277ZM0.817698 0.636207L0.980517 0.261618L0.857575 0.20818L0.694754 0.582769L0.531935 0.957359L0.654877 1.0108L0.817698 0.636207ZM0.694754 0.582769L0.857575 0.20818L0.734634 0.154742L0.571813 0.529331L0.408994 0.90392L0.531935 0.957359L0.694754 0.582769ZM0.571813 0.529331L0.734634 0.154742C0.676262 0.12937 0.592919 0.0960448 0.507954 0.0837772C0.473727 0.0788353 0.369623 0.0654748 0.255736 0.115149C0.189135 0.144198 0.117175 0.196055 0.0651946 0.27908C0.0143053 0.360365 0.000399277 0.443008 0.000399272 0.505801L0.408844 0.505801L0.817289 0.505801C0.817289 0.560709 0.805081 0.636699 0.757584 0.712561C0.709001 0.790163 0.642134 0.837827 0.582324 0.863914C0.482018 0.907665 0.398284 0.893304 0.391218 0.892283C0.360578 0.887859 0.358718 0.882068 0.408994 0.90392L0.571813 0.529331ZM0.408844 0.505801L0.000399272 0.505801L0.000399269 0.541488L0.408844 0.541488L0.817289 0.541488L0.817289 0.505801L0.408844 0.505801ZM0.408844 0.541488L0.151229 0.858445L0.25334 0.941439L0.510956 0.624482L0.768571 0.307524L0.666459 0.224531L0.408844 0.541488ZM0.510956 0.624482L0.510956 0.216037L0.408844 0.216036L0.408844 0.624482L0.408844 1.03293L0.510956 1.03293L0.510956 0.624482Z" fill="url(#paint0_linear_298_22584)"/>
  </g>
</svg>