<svg xmlns="http://www.w3.org/2000/svg" width="43" height="43" viewBox="0 0 43 43" fill="none">
  <g clip-path="url(#clip0_298_5496)">
    <path d="M21.35 42.7C33.1413 42.7 42.7 33.1413 42.7 21.35C42.7 9.55872 33.1413 7.42886e-08 21.35 1.65928e-07C9.55872 2.57568e-07 7.42886e-08 9.55872 1.65928e-07 21.35C2.57568e-07 33.1413 9.55872 42.7 21.35 42.7Z" fill="#F0F0F0"/>
    <path d="M20.4219 21.3499L42.7001 21.3499C42.7001 19.4229 42.4432 17.5561 41.9646 15.7803L20.4219 15.7803L20.4219 21.3499Z" fill="#D80027"/>
    <path d="M20.4219 10.2109L39.5665 10.2109C38.2596 8.07821 36.5885 6.19316 34.6401 4.64128L20.4219 4.64128L20.4219 10.2109Z" fill="#D80027"/>
    <path d="M21.3506 42.6999C26.3753 42.6999 30.9936 40.9632 34.6406 38.0586L8.06055 38.0586C11.7076 40.9632 16.3259 42.6999 21.3506 42.6999Z" fill="#D80027"/>
    <path d="M3.13445 32.4891L39.5672 32.4891C40.6165 30.777 41.4302 28.9055 41.9653 26.9195L0.736328 26.9195C1.2715 28.9055 2.08521 30.777 3.13445 32.4891V32.4891Z" fill="#D80027"/>
    <path d="M9.88972 3.3341L11.8353 3.3341L10.0256 4.64888L10.7169 6.77629L8.9072 5.46151L7.09754 6.77629L7.69467 4.93844C6.10126 6.26573 4.70467 7.82077 3.55377 9.55346L4.17718 9.55346L3.02519 10.3904C2.84572 10.6898 2.67359 10.9939 2.50863 11.3026L3.05872 12.9956L2.03242 12.25C1.7773 12.7905 1.54396 13.3432 1.33421 13.9074L1.94026 15.7728L4.17718 15.7728L2.36743 17.0876L3.05872 19.215L1.24906 17.9002L0.165046 18.6878C0.0565443 19.56 1.58921e-07 20.4484 1.65928e-07 21.35L21.35 21.35C21.35 9.5588 21.35 8.16871 21.35 1.65928e-07C17.1324 1.98707e-07 13.2007 1.22346 9.88972 3.3341V3.3341ZM10.7169 19.215L8.9072 17.9002L7.09754 19.215L7.78883 17.0876L5.97908 15.7728L8.216 15.7728L8.9072 13.6454L9.59841 15.7728L11.8353 15.7728L10.0256 17.0876L10.7169 19.215ZM10.0256 10.8682L10.7169 12.9956L8.9072 11.6809L7.09754 12.9956L7.78883 10.8682L5.97908 9.55346L8.216 9.55346L8.9072 7.42605L9.59841 9.55346L11.8353 9.55346L10.0256 10.8682ZM18.375 19.215L16.5653 17.9002L14.7557 19.215L15.447 17.0876L13.6372 15.7728L15.8741 15.7728L16.5653 13.6454L17.2566 15.7728L19.4935 15.7728L17.6837 17.0876L18.375 19.215ZM17.6837 10.8682L18.375 12.9956L16.5653 11.6809L14.7557 12.9956L15.447 10.8682L13.6372 9.55346L15.8741 9.55346L16.5653 7.42605L17.2566 9.55346L19.4935 9.55346L17.6837 10.8682ZM17.6837 4.64888L18.375 6.77629L16.5653 5.46151L14.7557 6.77629L15.447 4.64888L13.6372 3.3341L15.8741 3.3341L16.5653 1.20669L17.2566 3.3341L19.4935 3.3341L17.6837 4.64888Z" fill="#0052B4"/>
  </g>
  <defs>
    <clipPath id="clip0_298_5496">
      <rect y="3.31856e-07" width="42.7" height="42.7" rx="21.35" fill="white"/>
    </clipPath>
  </defs>
</svg>
