<svg xmlns="http://www.w3.org/2000/svg" width="43" height="43" viewBox="0 0 43 43" fill="none">
  <g clip-path="url(#clip0_298_5498)">
    <path d="M21.35 42.7C33.1413 42.7 42.7 33.1413 42.7 21.35C42.7 9.55872 33.1413 2.57568e-07 21.35 1.65928e-07C9.55872 7.42886e-08 2.57568e-07 9.55872 1.65928e-07 21.35C7.42886e-08 33.1413 9.55872 42.7 21.35 42.7Z" fill="#F0F0F0"/>
    <path d="M21.3507 1.17329e-07L21.3507 21.35L6.25391 36.4468C10.1175 40.3103 15.455 42.7 21.3507 42.7C33.1419 42.7 42.7007 33.1412 42.7007 21.35C42.7007 9.5588 21.3507 1.17329e-07 21.3507 1.17329e-07Z" fill="#D80027"/>
    <path d="M21.3507 1.17329e-07C15.455 7.15092e-08 10.1175 2.3897 6.25391 6.25322C11.4922 11.4915 13.3517 13.3511 21.3507 21.35L42.7007 21.35C42.7007 9.5588 33.1419 2.08968e-07 21.3507 1.17329e-07Z" fill="#0052B4"/>
    <path d="M14.6199 21.35L12.0125 20.1235L13.401 17.5983L10.5696 18.14L10.2109 15.2797L8.23865 17.3833L6.26653 15.2797L5.90767 18.14L3.07637 17.5982L4.46487 20.1235L1.85742 21.35L4.46487 22.5764L3.07637 25.1017L5.90792 24.5601L6.26645 27.4203L8.23865 25.3167L10.2109 27.4203L10.5696 24.5601L13.4008 25.1017L12.0124 22.5765L14.6199 21.35Z" fill="#FFDA44"/>
    <path d="M5.6945 8.35437L6.56218 9.56723L7.98371 9.11697L7.09818 10.3169L7.96586 11.5298L6.55092 11.0585L5.66548 12.2583L5.67657 10.7672L4.26172 10.2958L5.6835 9.84553L5.6945 8.35437Z" fill="#FFDA44"/>
    <path d="M5.6945 30.4418L6.56218 31.6546L7.98371 31.2043L7.09818 32.4043L7.96586 33.6172L6.55092 33.1459L5.66548 34.3457L5.67657 32.8546L4.26172 32.3832L5.6835 31.9329L5.6945 30.4418Z" fill="#FFDA44"/>
    <path d="M18.0705 19.3981L17.2029 20.6109L15.7813 20.1605L16.6668 21.3605L15.7991 22.5735L17.214 22.1021L18.0996 23.302L18.0884 21.8109L19.5032 21.3395L18.0815 20.8892L18.0705 19.3981Z" fill="#FFDA44"/>
  </g>
  <defs>
    <clipPath id="clip0_298_5498">
      <rect x="3.31856e-07" width="42.7" height="42.7" rx="21.35" fill="white"/>
    </clipPath>
  </defs>
</svg>
