<svg width="15" height="15" viewBox="0 0 15 15" fill="none" xmlns="http://www.w3.org/2000/svg">
<path opacity="0.4" d="M7.53341 14.1012C10.7383 14.117 13.3229 11.5371 13.3062 8.33873C13.2895 5.1404 10.6779 2.53481 7.47303 2.51899C4.26813 2.50316 1.68357 5.08309 1.70024 8.28143C1.71692 11.4798 4.32852 14.0853 7.53341 14.1012Z" fill="white"/>
<path d="M13.4938 4.61709C13.3343 4.6163 13.1753 4.55496 13.0532 4.43316L11.3866 2.77037C11.1424 2.52677 11.1404 2.13414 11.382 1.89302C11.6236 1.6519 12.0171 1.65376 12.2612 1.89736L13.9278 3.56015C14.1719 3.80374 14.174 4.19638 13.9323 4.4375C13.8115 4.5581 13.6533 4.61787 13.4938 4.61709Z" fill="white"/>
<path d="M9.70389 7.81694C9.59359 7.61727 9.38404 7.49222 9.15656 7.4911L7.78598 7.48433L8.29128 5.80679C8.38126 5.51074 8.2371 5.19252 7.95464 5.06066C7.67468 4.93122 7.33836 5.02453 7.17135 5.28421L5.3212 8.17055C5.19917 8.36105 5.19149 8.60373 5.30187 8.8034C5.41225 9.00307 5.62172 9.12812 5.8492 9.12924L7.21978 9.13601L6.71448 10.8135C6.6245 11.1096 6.76866 11.4278 7.05112 11.5597C7.13555 11.5989 7.22468 11.6179 7.31288 11.6183C7.51847 11.6193 7.71798 11.5181 7.83441 11.3361L9.68456 8.44979C9.80658 8.25929 9.81427 8.01661 9.70389 7.81694Z" fill="white"/>
<path d="M5.60397 1.68193L6.84747 1.68807L6.85196 2.5497C7.05627 2.52887 7.26338 2.5174 7.47353 2.51844C7.68368 2.51947 7.89091 2.53299 8.09545 2.55584L8.09096 1.69421L9.33446 1.70035C9.67774 1.70204 9.95475 1.42553 9.95297 1.08294C9.95118 0.740359 9.67127 0.461094 9.32799 0.459399L5.5975 0.44098C5.25421 0.439285 4.9772 0.715799 4.97899 1.05838C4.98077 1.40097 5.26068 1.68023 5.60397 1.68193Z" fill="white"/>
</svg>
