<svg width="30" height="31" viewBox="0 0 30 31" fill="none" xmlns="http://www.w3.org/2000/svg">
<rect width="25.9165" height="26.4583" rx="7.40491" transform="matrix(0.987645 -0.158359 0.166446 0.986315 0 4.1041)" fill="#00BA85"/>
<g clip-path="url(#clip0_93_6200)">
<path opacity="0.4" d="M20.7362 12.9377C20.3978 12.9791 20.1591 13.2866 20.2032 13.6245L20.6571 17.1012C20.7306 17.6637 20.3323 18.1769 19.7688 18.2458L11.0339 19.3138L11.5454 18.6548C11.7536 18.3865 11.703 17.9993 11.4324 17.7896C11.1618 17.5799 10.774 17.6273 10.5658 17.8955L9.14457 19.727C8.93635 19.9953 8.98691 20.3825 9.25753 20.5921L11.1049 22.0239C11.2402 22.1288 11.4048 22.1694 11.5616 22.1502C11.7184 22.131 11.8674 22.0521 11.9715 21.918C12.1797 21.6497 12.1292 21.2625 11.8586 21.0528L11.1938 20.5376L19.9287 19.4696C21.168 19.3181 22.0444 18.1882 21.8829 16.9514L21.429 13.4747C21.3849 13.1369 21.0745 12.8963 20.7362 12.9377Z" fill="white"/>
<path opacity="0.4" d="M9.26427 17.2699C9.60265 17.2285 9.84135 16.9209 9.79725 16.5831L9.34206 13.0968C9.26862 12.5343 9.66693 12.0211 10.2303 11.9522L18.9653 10.8842L18.4538 11.5433C18.2456 11.8116 18.2962 12.1988 18.5668 12.4084C18.7021 12.5133 18.8667 12.5539 19.0235 12.5347C19.1803 12.5155 19.3293 12.4366 19.4334 12.3025L20.8547 10.471C21.0629 10.2027 21.0124 9.81556 20.7417 9.60588L18.8944 8.17408C18.6238 7.96432 18.236 8.01174 18.0278 8.28004C17.8197 8.54833 17.8702 8.93552 18.1408 9.1452L18.8056 9.66043L10.0706 10.7284C8.83128 10.8799 7.95484 12.0098 8.11633 13.2466L8.57151 16.7329C8.61562 17.0707 8.92589 17.3113 9.26427 17.2699Z" fill="white"/>
<path d="M15.2392 16.9347C16.2547 16.8106 16.9705 15.8881 16.8382 14.8744C16.7058 13.8606 15.7753 13.1394 14.7599 13.2636C13.7445 13.3877 13.0286 14.3102 13.161 15.3239C13.2934 16.3377 14.2238 17.0589 15.2392 16.9347Z" fill="white"/>
<path d="M10.2299 11.953C9.66646 12.0219 9.26815 12.5351 9.3416 13.0976L9.59717 15.0551C11.0921 14.608 12.1295 13.2715 12.1907 11.7132L10.2299 11.953Z" fill="white"/>
<path d="M19.7691 18.2459C20.3325 18.177 20.7309 17.6638 20.6574 17.1013L20.4018 15.1438C18.9069 15.5908 17.8695 16.9273 17.8083 18.4856L19.7691 18.2459Z" fill="white"/>
</g>
<defs>
<clipPath id="clip0_93_6200">
<rect width="14.8098" height="14.8098" fill="white" transform="matrix(0.99317 -0.121429 0.129461 0.991539 6.68729 8.65606)"/>
</clipPath>
</defs>
</svg>
