<svg width="17" height="17" viewBox="0 0 17 17" fill="none" xmlns="http://www.w3.org/2000/svg">
<g clip-path="url(#clip0_93_6187)">
<path opacity="0.4" d="M13.7269 6.31137C10.5385 6.04154 7.34853 5.76948 4.16234 5.49985C3.80168 5.46932 3.53403 5.15209 3.56454 4.79151C3.59507 4.43075 3.91221 4.16319 4.27288 4.19371L13.6196 4.98469C13.6338 4.82295 13.6474 4.66142 13.6611 4.4998L13.6751 4.33375C13.7462 3.49233 13.1215 2.75216 12.2802 2.68096L4.87872 2.0546C3.55587 1.94265 2.39345 2.92359 2.28149 4.24654L2.00515 7.51188L6.79432 7.91717C7.99457 8.01874 8.88857 9.07804 8.78699 10.2783L8.7133 11.149C8.71301 11.1524 8.71168 11.1558 8.7114 11.1591C9.20385 11.6014 9.49666 12.2555 9.43668 12.9643L9.36299 13.835C9.33676 14.145 9.24459 14.4331 9.10479 14.6902L12.99 15.0189C13.8313 15.0901 14.5716 14.4655 14.6428 13.6241L15.1218 7.96415C15.193 7.12274 14.5682 6.38257 13.7269 6.31137Z" fill="white"/>
<path d="M11.5253 11.606C12.1265 11.6569 12.655 11.2105 12.7059 10.6097C12.7567 10.0089 12.3107 9.48002 11.7096 9.42915C11.1084 9.37827 10.5798 9.82466 10.529 10.4255C10.4782 11.0263 10.9242 11.5552 11.5253 11.606Z" fill="white"/>
<path opacity="0.4" d="M6.68444 9.22327L1.4599 8.78113C0.978978 8.74043 0.556127 9.09754 0.51545 9.5782L0.441761 10.449C0.401084 10.9296 0.757909 11.3527 1.23883 11.3934L6.46338 11.8355C6.94429 11.8762 7.36715 11.5191 7.40782 11.0385L7.48151 10.1677C7.52219 9.68706 7.16536 9.26397 6.68444 9.22327Z" fill="white"/>
<path d="M7.33374 11.9097L2.1092 11.4675C1.62828 11.4268 1.20543 11.7839 1.16475 12.2646L1.09106 13.1354C1.05038 13.616 1.40721 14.0391 1.88813 14.0798L7.11267 14.5219C7.59359 14.5626 8.01644 14.2055 8.05712 13.7249L8.13081 12.8541C8.17149 12.3735 7.81466 11.9504 7.33374 11.9097Z" fill="white"/>
</g>
<defs>
<clipPath id="clip0_93_6187">
<rect width="14.8098" height="14.8098" fill="white" transform="translate(1.3266) scale(1.06211) rotate(4.83724)"/>
</clipPath>
</defs>
</svg>
