<svg width="22" height="22" viewBox="0 0 22 22" fill="none" xmlns="http://www.w3.org/2000/svg">
<path d="M6.41678 2.44446C4.55996 2.44446 3.05566 3.94876 3.05566 5.80557V17.4167C3.05566 19.2735 4.55996 20.7778 6.41678 20.7778H15.5834C17.4402 20.7778 18.9446 19.2735 18.9446 17.4167V5.80557C18.9446 3.94876 17.4402 2.44446 15.5834 2.44446H6.41678Z" fill="#505670" fill-opacity="0.4"/>
<path fill-rule="evenodd" clip-rule="evenodd" d="M6.72266 2.75C6.72266 1.56908 7.68062 0.611115 8.86155 0.611115H13.1393C14.3202 0.611115 15.2782 1.56908 15.2782 2.75C15.2782 3.93093 14.3202 4.88889 13.1393 4.88889H8.86155C7.68062 4.88889 6.72266 3.93093 6.72266 2.75Z" fill="#162755"/>
<path d="M11.0003 11C12.0129 11 12.8337 10.1792 12.8337 9.16668C12.8337 8.15415 12.0129 7.33334 11.0003 7.33334C9.9878 7.33334 9.16699 8.15415 9.16699 9.16668C9.16699 10.1792 9.9878 11 11.0003 11Z" fill="#162755"/>
<path d="M13.5681 17.1111H8.43221C7.93513 17.1111 7.46607 16.8683 7.17665 16.4613C6.8926 16.0609 6.81852 15.5475 6.97851 15.0887C7.57532 13.3748 9.19133 12.2224 11.0002 12.2224C12.8091 12.2224 14.4251 13.3748 15.0225 15.0893C15.1819 15.5477 15.1078 16.0609 14.8238 16.4614C14.5344 16.8684 14.0652 17.1111 13.5681 17.1111Z" fill="#162755"/>
</svg>
