<svg width="22" height="22" viewBox="0 0 22 22" fill="none" xmlns="http://www.w3.org/2000/svg">
<path d="M3.66634 5.80555C3.66634 4.96125 4.34982 4.27778 5.19412 4.27778C5.70038 4.27778 6.11079 3.86737 6.11079 3.36111C6.11079 2.85485 5.70038 2.44444 5.19412 2.44444C3.33731 2.44444 1.83301 3.94874 1.83301 5.80555V16.1944C1.83301 18.0512 3.33731 19.5556 5.19412 19.5556H18.0275C19.2084 19.5556 20.1663 18.5976 20.1663 17.4167V9.47222C20.1663 8.2913 19.2084 7.33333 18.0275 7.33333H5.19412C4.34982 7.33333 3.66634 6.64985 3.66634 5.80555Z" fill="#505670" fill-opacity="0.4"/>
<path fill-rule="evenodd" clip-rule="evenodd" d="M8.02104 1.78494C8.53732 0.722605 9.81607 0.281029 10.8779 0.795905L18.2283 4.36116C18.6125 4.54748 18.8172 4.97434 18.7219 5.39054C18.6265 5.80671 18.2566 6.10199 17.8297 6.10259L7.37107 6.11729C7.05453 6.11773 6.76016 5.95484 6.59242 5.68639C6.42467 5.41795 6.4073 5.08195 6.54645 4.79764L8.02104 1.78494Z" fill="#162755"/>
<path d="M15.5834 14.9722C16.4268 14.9722 17.1112 14.2878 17.1112 13.4444C17.1112 12.6011 16.4268 11.9167 15.5834 11.9167C14.7401 11.9167 14.0557 12.6011 14.0557 13.4444C14.0557 14.2878 14.7401 14.9722 15.5834 14.9722Z" fill="#162755"/>
</svg>
