<svg width="22" height="22" viewBox="0 0 22 22" fill="none" xmlns="http://www.w3.org/2000/svg">
<g clip-path="url(#clip0_565_5194)">
<path d="M4.58377 1.22223C2.72696 1.22223 1.22266 2.72653 1.22266 4.58334V12.5278C1.22266 14.3846 2.72696 15.8889 4.58377 15.8889H9.1671V14.6667C9.1671 13.6674 9.6471 12.7797 10.3893 12.2221V11C10.3893 9.31318 11.757 7.94445 13.4449 7.94445H20.7782V4.58334C20.7782 2.72653 19.2739 1.22223 17.4171 1.22223H4.58377Z" fill="#505670" fill-opacity="0.4"/>
<path d="M5.19499 9.47222C5.70099 9.47222 6.11165 9.06155 6.11165 8.55555C6.11165 8.04955 5.70099 7.63889 5.19499 7.63889C4.68899 7.63889 4.27832 8.04955 4.27832 8.55555C4.27832 9.06155 4.68899 9.47222 5.19499 9.47222Z" fill="#162755"/>
<path d="M19.5556 13.4445H12.2222C11.5472 13.4445 11 13.992 11 14.6667V15.8889C11 16.5636 11.5472 17.1111 12.2222 17.1111H19.5556C20.2306 17.1111 20.7778 16.5636 20.7778 15.8889V14.6667C20.7778 13.992 20.2306 13.4445 19.5556 13.4445Z" fill="#505670" fill-opacity="0.4"/>
<path d="M20.7782 9.77777H13.4449C12.7698 9.77777 12.2227 10.3253 12.2227 11V12.2222C12.2227 12.8969 12.7698 13.4444 13.4449 13.4444H20.7782C21.4532 13.4444 22.0004 12.8969 22.0004 12.2222V11C22.0004 10.3253 21.4532 9.77777 20.7782 9.77777Z" fill="#162755"/>
<path d="M10.3889 11.2375V11C10.3889 9.31319 11.7565 7.94446 13.4444 7.94446H13.6819C13.4042 6.71945 12.3094 5.80557 11 5.80557C9.48063 5.80557 8.25 7.0362 8.25 8.55557C8.25 9.86489 9.16388 10.9598 10.3889 11.2375Z" fill="#162755"/>
<path d="M20.7782 17.1111H13.4449C12.7698 17.1111 12.2227 17.6587 12.2227 18.3333V19.5556C12.2227 20.2302 12.7698 20.7778 13.4449 20.7778H20.7782C21.4532 20.7778 22.0004 20.2302 22.0004 19.5556V18.3333C22.0004 17.6587 21.4532 17.1111 20.7782 17.1111Z" fill="#162755"/>
</g>
<defs>
<clipPath id="clip0_565_5194">
<rect width="22" height="22" fill="white"/>
</clipPath>
</defs>
</svg>
