<svg width="22" height="22" viewBox="0 0 22 22" fill="none" xmlns="http://www.w3.org/2000/svg">
<g clip-path="url(#clip0_565_5180)">
<path d="M11.0004 1.22223C5.6004 1.22223 1.22266 5.59997 1.22266 11C1.22266 16.4 5.6004 20.7778 11.0004 20.7778L12.2722 19.1808L10.5785 14.5434C10.1631 13.409 10.4386 12.151 11.2954 11.2945L11.2972 11.2927C12.154 10.4387 13.4063 10.1659 14.5385 10.5762L14.543 10.5778L19.5553 12.4087L20.7782 11C20.7782 5.59997 16.4005 1.22223 11.0004 1.22223Z" fill="#505670" fill-opacity="0.4"/>
<path d="M16.1342 22C15.6078 22 15.1352 21.6717 14.9526 21.1753L12.3005 13.9135C12.1298 13.448 12.2407 12.942 12.5917 12.5911C12.9426 12.2413 13.4463 12.1303 13.9142 12.2998L21.1747 14.9519C21.6808 15.137 22.0114 15.6227 22.0007 16.1611C21.9887 16.6983 21.6366 17.1697 21.1258 17.3332L18.2528 18.2523L17.3326 21.1253C17.1703 21.6362 16.6988 21.9883 16.1617 22.0001L16.1342 22Z" fill="#162755"/>
<path d="M11.0003 1.22223C10.1724 1.22223 9.46821 1.63159 8.91777 2.19421C8.37032 2.75381 7.91954 3.51613 7.56052 4.38381C6.84074 6.12334 6.41699 8.46305 6.41699 11C6.41699 13.537 6.84074 15.8767 7.56052 17.6163C7.91954 18.4839 8.37032 19.2462 8.91777 19.8058C9.46821 20.3685 10.1724 20.7778 11.0003 20.7778C11.6216 20.7778 12.1731 20.5473 12.6424 20.1945L11.9563 18.3161C11.8948 18.3921 11.8335 18.4613 11.7724 18.5238C11.4455 18.8579 11.185 18.9445 11.0003 18.9445C10.8157 18.9445 10.5552 18.8579 10.2283 18.5238C9.89836 18.1866 9.55904 17.6511 9.25455 16.9152C8.6473 15.4477 8.25033 13.3568 8.25033 11C8.25033 8.64318 8.6473 6.55234 9.25455 5.08476C9.55904 4.34888 9.89836 3.81351 10.2283 3.4763C10.5552 3.14212 10.8157 3.05556 11.0003 3.05556C11.185 3.05556 11.4455 3.14212 11.7724 3.4763C12.1023 3.81351 12.4416 4.34888 12.7461 5.08476C13.3013 6.42654 13.6808 8.28931 13.7416 10.4C14.0094 10.4232 14.2771 10.4815 14.5384 10.5762L14.5429 10.5778L15.5837 10.958C15.579 8.4372 15.1559 6.11373 14.4401 4.38381C14.0811 3.51613 13.6303 2.75381 13.0829 2.19421C12.5324 1.63159 11.8283 1.22223 11.0003 1.22223Z" fill="#162755"/>
<path d="M11.0004 6.41667C8.46348 6.41667 6.12377 6.84042 4.38424 7.56019C3.51656 7.91922 2.75424 8.37 2.19464 8.91745C1.63202 9.46789 1.22266 10.1721 1.22266 11C1.22266 11.828 1.63202 12.5321 2.19464 13.0826C2.75424 13.63 3.51656 14.0807 4.38424 14.4398C6.11415 15.1556 8.43759 15.5787 10.9583 15.5833L10.5791 14.5448L10.5785 14.5434C10.4822 14.2804 10.4231 14.0109 10.3997 13.7413C8.28928 13.6803 6.42679 13.301 5.08518 12.7458C4.34931 12.4412 3.81394 12.102 3.47673 11.7721C3.14255 11.4451 3.05599 11.1847 3.05599 11C3.05599 10.8153 3.14255 10.5549 3.47673 10.2279C3.81394 9.89804 4.34931 9.55872 5.08518 9.25423C6.55277 8.64698 8.64361 8.25001 11.0004 8.25001C13.3572 8.25001 15.4481 8.64698 16.9156 9.25423C17.6515 9.55872 18.187 9.89804 18.5242 10.2279C18.8583 10.5549 18.9449 10.8153 18.9449 11C18.9449 11.1847 18.8583 11.4451 18.5242 11.7721C18.4616 11.8332 18.3924 11.8946 18.3163 11.9561L20.1947 12.6423C20.5477 12.173 20.7782 11.6214 20.7782 11C20.7782 10.1721 20.3689 9.46789 19.8062 8.91745C19.2466 8.37 18.4843 7.91922 17.6167 7.56019C15.8771 6.84042 13.5374 6.41667 11.0004 6.41667Z" fill="#162755"/>
</g>
<defs>
<clipPath id="clip0_565_5180">
<rect width="22" height="22" fill="white"/>
</clipPath>
</defs>
</svg>
