<svg width="22" height="22" viewBox="0 0 22 22" fill="none" xmlns="http://www.w3.org/2000/svg">
<path d="M5.80642 2.44446C3.94961 2.44446 2.44531 3.94876 2.44531 5.80557V16.1945C2.44531 18.0513 3.94961 19.5556 5.80642 19.5556H16.1953C18.0521 19.5556 19.5564 18.0513 19.5564 16.1945V5.80557C19.5564 3.94876 18.0521 2.44446 16.1953 2.44446H5.80642Z" fill="#505670" fill-opacity="0.4"/>
<path fill-rule="evenodd" clip-rule="evenodd" d="M1.22266 11C1.22266 10.4938 1.63307 10.0833 2.13932 10.0833H3.36155C3.8678 10.0833 4.27821 10.4938 4.27821 11C4.27821 11.5063 3.8678 11.9167 3.36155 11.9167H2.13932C1.63307 11.9167 1.22266 11.5063 1.22266 11Z" fill="#162755"/>
<path fill-rule="evenodd" clip-rule="evenodd" d="M1.22266 7.02778C1.22266 6.52152 1.63307 6.11111 2.13932 6.11111H3.36155C3.8678 6.11111 4.27821 6.52152 4.27821 7.02778C4.27821 7.53404 3.8678 7.94445 3.36155 7.94445H2.13932C1.63307 7.94445 1.22266 7.53404 1.22266 7.02778Z" fill="#162755"/>
<path fill-rule="evenodd" clip-rule="evenodd" d="M1.22266 14.9722C1.22266 14.466 1.63307 14.0556 2.13932 14.0556H3.36155C3.8678 14.0556 4.27821 14.466 4.27821 14.9722C4.27821 15.4785 3.8678 15.8889 3.36155 15.8889H2.13932C1.63307 15.8889 1.22266 15.4785 1.22266 14.9722Z" fill="#162755"/>
<path d="M11.8958 12.026C12.6296 11.687 13.1391 10.9443 13.1391 10.0833C13.1391 8.90268 12.1809 7.94446 11.0002 7.94446C9.81955 7.94446 8.86133 8.90268 8.86133 10.0833C8.86133 10.9443 9.37085 11.687 10.1046 12.026C10.0908 12.0892 10.0836 12.1549 10.0836 12.2222V14.3611C10.0836 14.8674 10.494 15.2778 11.0002 15.2778C11.5065 15.2778 11.9169 14.8674 11.9169 14.3611V12.2222C11.9169 12.1549 11.9096 12.0892 11.8958 12.026Z" fill="#162755"/>
<path d="M4.88965 19.4291C5.18103 19.5115 5.48851 19.5556 5.80632 19.5556H6.72298V20.4722C6.72298 20.9785 6.31257 21.3889 5.80632 21.3889C5.30006 21.3889 4.88965 20.9785 4.88965 20.4722V19.4291Z" fill="#162755"/>
<path d="M15.2783 19.5556H16.195C16.5128 19.5556 16.8203 19.5115 17.1117 19.4291V20.4722C17.1117 20.9785 16.7012 21.3889 16.195 21.3889C15.6887 21.3889 15.2783 20.9785 15.2783 20.4722V19.5556Z" fill="#162755"/>
</svg>
